<svg xmlns="http://www.w3.org/2000/svg" xmlns:xlink="http://www.w3.org/1999/xlink" width="668.413" height="525.749" viewBox="0 0 668.413 525.749"><defs><style>.a{fill:none;}.b,.e,.q{fill:#ead2c4;}.c{fill:#b9b9b9;}.d{fill:#dcdcdc;}.e{opacity:0.2;}.f{fill:#f5f5f5;}.g,.p,.r,.s{fill:#2b2b2b;}.h{fill:#263238;}.i,.j{fill:#bab1b1;}.j{opacity:0.3;}.k{clip-path:url(#a);}.l{fill:#e0e0e0;}.m{fill:#ebebeb;}.n,.w{fill:#a19d9d;}.o{clip-path:url(#b);}.p,.u,.v{opacity:0.5;}.q,.r{opacity:0.6;}.s,.w{opacity:0.7;}.t,.u{fill:#a19e9e;}</style><clipPath id="a"><path class="a" d="M246.078,201.487c-1.774,1.021-4.627,2.676-6.489,3.519-11.412,5.144-26.742,5.6-37.459,1.124a30.407,30.407,0,0,1-6.357-3.726c-7.465-6.134-6.681-14.812,1.981-21.316,1.642-1.228,4.524-2.854,6.283-3.874L390.77,69.405c1.552-.9,1.8-2.246.71-3.207a7.023,7.023,0,0,1,2.483,5.057L432.8,93.674Z" transform="translate(-190.672 -66.198)"/></clipPath><clipPath id="b"><path class="b" d="M151.757,317.537v27.277c0,2.04,1.434,2.869,3.2,1.848l35.634-20.573a7.078,7.078,0,0,0,3.2-5.543V293.27c0-2.04-1.434-2.869-3.2-1.848l-35.633,20.571A7.074,7.074,0,0,0,151.757,317.537Z" transform="translate(-151.757 -290.985)"/></clipPath></defs><g transform="translate(-1179.587 -170.252)"><path class="c" d="M156.986,228.775c-17.5-10.1-45.877-10.1-63.377,0s-17.5,26.487,0,36.591,45.875,10.1,63.377,0S174.488,238.879,156.986,228.775Z" transform="translate(1519.517 269.105)"/><path class="d" d="M120.2,485.444c130.517,68.183,342.125,68.184,472.639,0s130.515-178.729,0-246.911-342.125-68.184-472.64,0S-10.313,417.261,120.2,485.444Z" transform="translate(1157.271 159.42)"/><g transform="translate(1274.358 492.086)"><path class="b" d="M157.821,364.518a130.225,130.225,0,0,0-8.791-37.411c-7.808-19.271-21.352-34.9-38.643-38.561S86.5,293.928,87.957,304.154s15.993,18.01,25.748,26.6,27.972,29.341,33.036,49.4l9.754,1.066Z" transform="translate(-87.762 -287.716)"/><path class="e" d="M157.821,364.518a130.225,130.225,0,0,0-8.791-37.411c-7.808-19.271-21.352-34.9-38.643-38.561S86.5,293.928,87.957,304.154s15.993,18.01,25.748,26.6,27.972,29.341,33.036,49.4l9.754,1.066Z" transform="translate(-87.762 -287.716)"/></g><g transform="translate(1287.352 496.941)"><path class="f" d="M148.863,379.767c-.017,0-.033,0-.048,0a.724.724,0,0,1-.676-.769c2.2-34.374-20.191-72.389-50.982-86.546a.724.724,0,0,1,.605-1.315c31.3,14.388,54.062,53.023,51.822,87.953A.724.724,0,0,1,148.863,379.767Z" transform="translate(-96.735 -291.069)"/></g><path class="g" d="M164.181,424.414s-10.081,6.373-25.832,3.662-19.1-13.418-20.448-24.024-9.084-5.766-19.63-10.135-12.3-15.2-9.947-23.347a24.039,24.039,0,0,1,5.288-9.518s-7.452-3.268-14.2-14.572a106.952,106.952,0,0,1-7.307-15.887s8.574-6.545,25.5-3a42.927,42.927,0,0,1,15.709,7.074s9.291-10.439,21.854-6.6c4.551,1.392,7.405,4.586,9.194,8.875a42.014,42.014,0,0,0,2.061,5.141c1.3,2.22,3.982,3.265,6.418,3.614,5.986.857,11.531-.145,17.1,2.916,2.757,1.515,4.7,4.269,6.222,6.957C184.358,370.022,164.181,424.414,164.181,424.414Z" transform="translate(1179.581 221.768)"/><g transform="translate(1260.093 553.262)"><path class="f" d="M168.5,402.37a.724.724,0,0,1-.617-.345c-24.588-39.932-63.555-63.014-89.451-70.646a.724.724,0,0,1,.41-1.389c26.142,7.7,65.47,30.993,90.275,71.277a.723.723,0,0,1-.237.995A.709.709,0,0,1,168.5,402.37Z" transform="translate(-77.91 -329.962)"/></g><g transform="translate(1284.909 582.104)"><path class="f" d="M95.773,362.073a.724.724,0,0,1-.479-1.267c.494-.436,12.261-10.658,28.253-10.926a.7.7,0,0,1,.737.712.723.723,0,0,1-.711.736c-15.465.259-27.205,10.461-27.321,10.564A.72.72,0,0,1,95.773,362.073Z" transform="translate(-95.049 -349.88)"/></g><g transform="translate(1303.292 556.797)"><path class="f" d="M108.649,352.178a.722.722,0,0,1-.718-.643,37.075,37.075,0,0,1,3.215-18.731.725.725,0,0,1,1.3.643,36.254,36.254,0,0,0-3.074,17.926.725.725,0,0,1-.64.8A.76.76,0,0,1,108.649,352.178Z" transform="translate(-107.744 -332.404)"/></g><path class="h" d="M364.236,119.813l12.011,6.926v20.8l-12.011-6.934Z" transform="translate(1310.477 129.137)"/><path class="g" d="M435.626,94l-38.832,22.421V71.582a6.012,6.012,0,0,0-9.205-5.314L195.5,177.17c-7.424,4.285-11.136,9.9-11.136,15.52V379.9c0,5.617,3.711,11.236,11.136,15.52l.274.159c14.849,8.573,38.921,8.573,53.769,0l192.089-110.9a7.1,7.1,0,0,0,3.2-5.543V95.62l-3-1.733A6.864,6.864,0,0,0,435.626,94Z" transform="translate(1229.882 104.785)"/><g transform="translate(1414.291 170.252)"><path class="i" d="M195.486,208.213c-14.786-8.536-14.786-22.506,0-31.042l192.089-110.9a6.864,6.864,0,0,1,6.2-.116c1.658.959,1.568,2.562-.2,3.583l-186.725,107.8c-1.768,1.021-4.654,2.651-6.286,3.876-8.665,6.508-9.452,15.186-1.985,21.321a30.574,30.574,0,0,0,6.357,3.722c10.711,4.475,26.054,4.024,37.457-1.121,1.861-.84,4.721-2.508,6.489-3.529L435.614,94a6.861,6.861,0,0,1,6.2-.114c1.658.957,1.57,2.562-.2,3.581l-192.089,110.9c-14.786,8.536-38.982,8.536-53.769,0Z" transform="translate(-184.397 -65.467)"/><path class="j" d="M195.486,208.213c-14.786-8.536-14.786-22.506,0-31.042l192.089-110.9a6.864,6.864,0,0,1,6.2-.116c1.658.959,1.568,2.562-.2,3.583l-186.725,107.8c-1.768,1.021-4.654,2.651-6.286,3.876-8.665,6.508-9.452,15.186-1.985,21.321a30.574,30.574,0,0,0,6.357,3.722c10.711,4.475,26.054,4.024,37.457-1.121,1.861-.84,4.721-2.508,6.489-3.529L435.614,94a6.861,6.861,0,0,1,6.2-.114c1.658.957,1.57,2.562-.2,3.581l-192.089,110.9c-14.786,8.536-38.982,8.536-53.769,0Z" transform="translate(-184.397 -65.467)"/></g><g transform="translate(1417.305 220.455)"><g transform="translate(0 99.693)"><path class="f" d="M189.741,173a.727.727,0,0,1-.475-.178,23.688,23.688,0,0,1-2.622-2.654.724.724,0,0,1,1.112-.928,22.106,22.106,0,0,0,2.46,2.489.725.725,0,0,1-.475,1.271Z" transform="translate(-186.476 -168.981)"/></g><g transform="translate(8.573 5.468)"><path class="f" d="M221.4,212.1a.723.723,0,0,1-.025-1.447,63.588,63.588,0,0,0,7.184-.66.724.724,0,0,1,.214,1.432,64.724,64.724,0,0,1-7.348.675Zm-7.3-.146h-.056a63.425,63.425,0,0,1-7.314-.979.724.724,0,1,1,.278-1.422,62.369,62.369,0,0,0,7.146.957.724.724,0,0,1-.054,1.445Zm21.7-2.048a.723.723,0,0,1-.2-1.419,47.159,47.159,0,0,0,6.747-2.462.724.724,0,0,1,.6,1.318,48.368,48.368,0,0,1-6.957,2.536A.651.651,0,0,1,235.8,209.9Zm-35.982-.779a.719.719,0,0,1-.232-.038,44.107,44.107,0,0,1-6.807-2.937.724.724,0,1,1,.686-1.274,42.985,42.985,0,0,0,6.584,2.84.723.723,0,0,1-.232,1.409Zm49.239-5.212a.724.724,0,0,1-.362-1.351l6.322-3.651a.724.724,0,0,1,.724,1.254l-6.322,3.651A.73.73,0,0,1,249.056,203.913Zm12.645-7.3a.725.725,0,0,1-.362-1.351l6.322-3.651a.724.724,0,0,1,.724,1.254l-6.322,3.651A.73.73,0,0,1,261.7,196.613Zm12.645-7.3a.724.724,0,0,1-.362-1.351l6.322-3.649a.724.724,0,0,1,.724,1.254l-6.322,3.649A.716.716,0,0,1,274.345,189.312Zm12.645-7.3a.724.724,0,0,1-.362-1.351l6.321-3.651a.724.724,0,1,1,.724,1.254l-6.321,3.651A.73.73,0,0,1,286.99,182.012Zm12.645-7.3a.724.724,0,0,1-.362-1.351l6.322-3.651a.724.724,0,0,1,.724,1.254L300,174.616A.73.73,0,0,1,299.634,174.713Zm12.643-7.3a.724.724,0,0,1-.362-1.351l6.322-3.649a.724.724,0,1,1,.724,1.254l-6.322,3.649A.715.715,0,0,1,312.278,167.411Zm12.645-7.3a.724.724,0,0,1-.362-1.351l6.322-3.651a.724.724,0,0,1,.724,1.254l-6.322,3.651A.715.715,0,0,1,324.922,160.112Zm12.645-7.3a.724.724,0,0,1-.362-1.351l6.322-3.651a.724.724,0,1,1,.724,1.254l-6.322,3.651A.73.73,0,0,1,337.567,152.812Zm12.643-7.3a.724.724,0,0,1-.362-1.351l6.324-3.649a.724.724,0,0,1,.724,1.254l-6.324,3.649A.715.715,0,0,1,350.21,145.511Zm12.646-7.3a.724.724,0,0,1-.362-1.351l6.321-3.649a.724.724,0,0,1,.724,1.254l-6.321,3.649A.715.715,0,0,1,362.856,138.211Zm12.643-7.3a.724.724,0,0,1-.362-1.351l6.322-3.651a.724.724,0,0,1,.724,1.254l-6.322,3.651A.73.73,0,0,1,375.5,130.911Zm12.645-7.3a.724.724,0,0,1-.362-1.351l6.322-3.651a.724.724,0,0,1,.724,1.254l-6.322,3.651A.73.73,0,0,1,388.144,123.612Zm12.645-7.3a.724.724,0,0,1-.362-1.351l6.321-3.651a.725.725,0,0,1,.724,1.255l-6.321,3.649A.716.716,0,0,1,400.788,116.31Zm12.645-7.3a.725.725,0,0,1-.362-1.353l6.322-3.649a.724.724,0,0,1,.724,1.254l-6.322,3.651A.734.734,0,0,1,413.433,109.011Z" transform="translate(-192.397 -103.912)"/></g><g transform="translate(241.543 0)"><path class="f" d="M357.138,105.2a.722.722,0,0,1-.724-.724v-2.366l-2.049,1.183a.724.724,0,0,1-.724-1.254l3.135-1.81a.724.724,0,0,1,1.086.627v3.62A.723.723,0,0,1,357.138,105.2Z" transform="translate(-353.279 -100.136)"/></g><g transform="translate(244.679 10.87)"><path class="f" d="M356.168,246.851a.723.723,0,0,1-.724-.724v-7.251a.724.724,0,1,1,1.448,0v7.251A.724.724,0,0,1,356.168,246.851Zm0-14.5a.723.723,0,0,1-.724-.724v-7.25a.724.724,0,1,1,1.448,0v7.25A.724.724,0,0,1,356.168,232.35Zm0-14.5a.723.723,0,0,1-.724-.724v-7.251a.724.724,0,1,1,1.448,0v7.251A.724.724,0,0,1,356.168,217.849Zm0-14.5a.723.723,0,0,1-.724-.724v-7.251a.724.724,0,1,1,1.448,0v7.251A.724.724,0,0,1,356.168,203.348Zm0-14.5a.723.723,0,0,1-.724-.724v-7.251a.724.724,0,1,1,1.448,0v7.251A.724.724,0,0,1,356.168,188.847Zm0-14.5a.723.723,0,0,1-.724-.724v-7.251a.724.724,0,1,1,1.448,0v7.251A.724.724,0,0,1,356.168,174.346Zm0-14.5a.723.723,0,0,1-.724-.724V151.87a.724.724,0,1,1,1.448,0v7.251A.724.724,0,0,1,356.168,159.845Zm0-14.5a.723.723,0,0,1-.724-.724v-7.251a.724.724,0,1,1,1.448,0v7.251A.724.724,0,0,1,356.168,145.344Zm0-14.5a.723.723,0,0,1-.724-.724v-7.251a.724.724,0,1,1,1.448,0v7.251A.724.724,0,0,1,356.168,130.843Zm0-14.5a.723.723,0,0,1-.724-.724v-7.251a.724.724,0,0,1,1.448,0v7.251A.724.724,0,0,1,356.168,116.342Z" transform="translate(-355.444 -107.643)"/></g><g transform="translate(241.543 155.881)"><path class="f" d="M354,214.661a.724.724,0,0,1-.362-1.351l2.773-1.6v-3.2a.724.724,0,1,1,1.448,0v3.62a.725.725,0,0,1-.362.627l-3.135,1.81A.73.73,0,0,1,354,214.661Z" transform="translate(-353.279 -207.783)"/></g><g transform="translate(8.586 164.959)"><path class="f" d="M221.411,322.248a.724.724,0,0,1-.026-1.448,63.538,63.538,0,0,0,7.184-.66.723.723,0,1,1,.216,1.431,64.728,64.728,0,0,1-7.348.678Zm-7.3-.143a.347.347,0,0,1-.055,0,63.307,63.307,0,0,1-7.317-.976.725.725,0,0,1,.277-1.423,61.048,61.048,0,0,0,7.148.954.725.725,0,0,1-.052,1.448Zm21.694-2.053a.725.725,0,0,1-.2-1.422,47.19,47.19,0,0,0,6.747-2.462.723.723,0,0,1,.6,1.315,48.492,48.492,0,0,1-6.954,2.541A.729.729,0,0,1,235.81,320.051Zm-35.982-.772a.754.754,0,0,1-.232-.038,44.391,44.391,0,0,1-6.81-2.935.724.724,0,1,1,.688-1.274,43,43,0,0,0,6.586,2.838.724.724,0,0,1-.232,1.409Zm49.239-5.225a.724.724,0,0,1-.362-1.351l6.321-3.649a.723.723,0,0,1,.724,1.253l-6.321,3.649A.717.717,0,0,1,249.067,314.055Zm12.643-7.3a.724.724,0,0,1-.362-1.351l6.322-3.649a.723.723,0,1,1,.724,1.253l-6.322,3.651A.729.729,0,0,1,261.71,306.755Zm12.645-7.3a.724.724,0,0,1-.362-1.351l6.322-3.651a.723.723,0,0,1,.724,1.253l-6.322,3.651A.726.726,0,0,1,274.354,299.455Zm12.645-7.3a.724.724,0,0,1-.362-1.351l6.321-3.649a.723.723,0,1,1,.724,1.253l-6.321,3.651A.73.73,0,0,1,287,292.154Zm12.643-7.3a.725.725,0,0,1-.362-1.351l6.324-3.649a.723.723,0,0,1,.724,1.253L300,284.756A.717.717,0,0,1,299.642,284.854Zm12.645-7.3a.724.724,0,0,1-.362-1.351l6.322-3.649a.723.723,0,1,1,.724,1.253l-6.322,3.649A.717.717,0,0,1,312.287,277.554Zm12.645-7.3a.724.724,0,0,1-.362-1.351l6.322-3.649a.723.723,0,1,1,.724,1.253l-6.322,3.649A.717.717,0,0,1,324.931,270.253Zm12.645-7.3a.724.724,0,0,1-.362-1.351l6.322-3.651a.724.724,0,0,1,.724,1.254l-6.322,3.649A.717.717,0,0,1,337.576,262.953Zm12.645-7.3a.724.724,0,0,1-.362-1.351l6.321-3.649a.724.724,0,1,1,.724,1.254l-6.321,3.649A.715.715,0,0,1,350.221,255.652Zm12.645-7.3A.724.724,0,0,1,362.5,247l6.322-3.651a.724.724,0,0,1,.724,1.254l-6.322,3.651A.719.719,0,0,1,362.865,248.352Zm12.643-7.3a.724.724,0,0,1-.362-1.351l6.322-3.651a.724.724,0,1,1,.724,1.254l-6.322,3.651A.73.73,0,0,1,375.508,241.053Zm12.645-7.3a.724.724,0,0,1-.362-1.351l6.322-3.651a.724.724,0,0,1,.724,1.254l-6.322,3.651A.73.73,0,0,1,388.153,233.753Zm12.645-7.3a.724.724,0,0,1-.362-1.351l6.322-3.649a.724.724,0,1,1,.724,1.254l-6.322,3.649A.716.716,0,0,1,400.8,226.452Zm12.643-7.3a.725.725,0,0,1-.362-1.351l6.324-3.651a.724.724,0,0,1,.724,1.254l-6.324,3.651A.73.73,0,0,1,413.441,219.152Z" transform="translate(-192.405 -214.052)"/></g><g transform="translate(0 259.194)"><path class="f" d="M189.741,283.149a.725.725,0,0,1-.475-.177,23.812,23.812,0,0,1-2.622-2.654.725.725,0,0,1,1.112-.931,21.879,21.879,0,0,0,2.46,2.491.724.724,0,0,1-.475,1.271Z" transform="translate(-186.476 -279.128)"/></g></g><g transform="translate(1423.379 171.311)"><g class="k" transform="translate(0 0)"><g transform="translate(-6.87 12.63)"><path class="l" d="M396.095,102.3V80.476a5.662,5.662,0,0,0-2.56-4.434l-.885-.511a5.666,5.666,0,0,0-5.12,0l-201.6,116.395,30.024,17.332L393.534,106.733A5.658,5.658,0,0,0,396.095,102.3Z" transform="translate(-185.928 -74.92)"/><path class="m" d="M387.529,75.531l-201.6,116.395,6.007,3.465L393.534,79c1.413-.815,1.413-2.139,0-2.956l-.885-.511A5.666,5.666,0,0,0,387.529,75.531Z" transform="translate(-185.928 -74.92)"/><g transform="translate(12.01 6.932)"><path class="l" d="M404.389,107.086V85.265a5.66,5.66,0,0,0-2.562-4.435l-.883-.51a5.66,5.66,0,0,0-5.122,0l-201.6,116.393,30.024,17.333L401.828,111.52A5.662,5.662,0,0,0,404.389,107.086Z" transform="translate(-194.222 -79.707)"/><path class="m" d="M395.822,80.32l-201.6,116.393,6.007,3.467,201.6-116.393c1.415-.817,1.415-2.14,0-2.957l-.883-.51A5.66,5.66,0,0,0,395.822,80.32Z" transform="translate(-194.222 -79.707)"/></g><g transform="translate(24.019 13.861)"><path class="l" d="M412.682,111.871V90.05a5.662,5.662,0,0,0-2.56-4.435l-.885-.51a5.657,5.657,0,0,0-5.12,0L202.515,201.5l30.023,17.333L410.121,116.3A5.659,5.659,0,0,0,412.682,111.871Z" transform="translate(-202.515 -84.492)"/><path class="m" d="M404.115,85.1,202.515,201.5l6.005,3.467L410.12,88.571c1.413-.817,1.413-2.14,0-2.957l-.885-.51A5.657,5.657,0,0,0,404.115,85.1Z" transform="translate(-202.515 -84.492)"/></g></g></g></g><g transform="translate(1590.646 248.949)"><path class="i" d="M414.27,136.635v42.617a5.689,5.689,0,0,1-2.557,4.435l-77.754,44.895a.742.742,0,0,1-.148.074c-5.875,3.357-11.21,3.79-15.111,1.775-1.185-.613-5.74-3.264-6.851-3.984-3.523-2.278-5.668-6.768-5.668-13.063,0-12.978,9.136-28.854,20.622-36.143l.014-.014,72.877-42.071a4.189,4.189,0,0,0,.384-.266c1.021-.812.888-1.951-.384-2.691l-9.446-5.455v-6.932L411.712,132.2a5.719,5.719,0,0,1,2.514,3.933A2.929,2.929,0,0,1,414.27,136.635Z" transform="translate(-306.181 -119.813)"/><path class="j" d="M414.27,136.635v42.617a5.689,5.689,0,0,1-2.557,4.435l-77.754,44.895a.742.742,0,0,1-.148.074c-5.875,3.357-11.21,3.79-15.111,1.775-1.185-.613-5.74-3.264-6.851-3.984-3.523-2.278-5.668-6.768-5.668-13.063,0-12.978,9.136-28.854,20.622-36.143l.014-.014,72.877-42.071a4.189,4.189,0,0,0,.384-.266c1.021-.812.888-1.951-.384-2.691l-9.446-5.455v-6.932L411.712,132.2a5.719,5.719,0,0,1,2.514,3.933A2.929,2.929,0,0,1,414.27,136.635Z" transform="translate(-306.181 -119.813)"/></g><path class="g" d="M412.413,132v42.617a5.689,5.689,0,0,1-2.557,4.435L332.1,223.945a.741.741,0,0,1-.148.074c-7.657,4.375-14.4,3.784-18.243-.725-2.143-2.527-3.386-6.267-3.386-11.056,0-13.408,9.757-29.891,21.776-36.839l74.311-42.9,3.444-1.981c1.257-.74,2.307-.3,2.514.976A2.932,2.932,0,0,1,412.413,132Z" transform="translate(1286.321 133.773)"/><g transform="translate(1614.667 318.779)"><path class="n" d="M322.77,184.868c0,5.743,4.033,8.072,9.007,5.2s9.007-9.857,9.007-15.6-4.033-8.072-9.007-5.2S322.77,179.124,322.77,184.868Z" transform="translate(-322.77 -168.037)"/><path class="n" d="M340.281,170.1l-2.671-1.524-13.023,21.88,3.059,1.762Z" transform="translate(-321.956 -167.796)"/><path class="n" d="M324.843,186.065c0,5.743,4.033,8.072,9.008,5.2s9.007-9.857,9.007-15.6-4.034-8.072-9.009-5.2S324.843,180.321,324.843,186.065Z" transform="translate(-321.841 -167.5)"/></g><path class="i" d="M138.173,495.7a6.861,6.861,0,0,1-3-5.429V317.387a7.073,7.073,0,0,1,3.2-5.543L360.147,183.8a6.015,6.015,0,0,1,9.207,5.316V362a7.075,7.075,0,0,1-3.2,5.543L144.375,495.585A6.861,6.861,0,0,1,138.173,495.7Z" transform="translate(1207.839 157.447)"/><path class="h" d="M147.18,280.018l-11.073-6.393a6.56,6.56,0,0,0-.937,3.155V449.663a6.012,6.012,0,0,0,9.2,5.314l2.8-1.619Z" transform="translate(1207.839 198.057)"/><path class="b" d="M139.317,319.669V492.552c0,2.042,1.432,2.869,3.2,1.848L364.3,366.356a7.075,7.075,0,0,0,3.2-5.543V187.93c0-2.042-1.434-2.869-3.2-1.848L142.517,314.126A7.07,7.07,0,0,0,139.317,319.669Z" transform="translate(1209.697 158.633)"/><path class="g" d="M151.757,317.537v27.277c0,2.04,1.434,2.869,3.2,1.848l35.634-20.573a7.078,7.078,0,0,0,3.2-5.543V293.27c0-2.04-1.434-2.869-3.2-1.848l-35.633,20.571A7.074,7.074,0,0,0,151.757,317.537Z" transform="translate(1215.271 205.834)"/><g class="o" transform="translate(1367.028 496.818)"><g transform="translate(-6.362 4.886)"><rect class="b" width="62.403" height="1.447" transform="translate(0 31.221) rotate(-30.021)"/></g><g transform="translate(11.285 26.324)"><rect class="b" width="1.448" height="13.895"/></g><g transform="translate(29.3 15.981)"><rect class="b" width="1.448" height="13.874"/></g><g transform="translate(-6.362 18.811)"><rect class="b" width="62.403" height="1.447" transform="translate(0 31.221) rotate(-30.021)"/></g></g><path class="g" d="M151.757,353.451v6.477c0,2.04,1.434,2.867,3.2,1.848L190.59,341.2a7.074,7.074,0,0,0,3.2-5.543v-6.476c0-2.042-1.434-2.869-3.2-1.848l-35.633,20.571A7.077,7.077,0,0,0,151.757,353.451Z" transform="translate(1215.271 221.926)"/><path class="g" d="M186.313,333.5v6.477c0,2.04,1.432,2.869,3.2,1.848l35.631-20.573a7.075,7.075,0,0,0,3.2-5.543v-6.476c0-2.042-1.432-2.869-3.2-1.848l-35.631,20.571A7.074,7.074,0,0,0,186.313,333.5Z" transform="translate(1230.754 212.986)"/><path class="g" d="M220.868,313.546v6.476c0,2.04,1.434,2.869,3.2,1.848L259.7,301.3a7.075,7.075,0,0,0,3.2-5.543v-6.476c0-2.04-1.434-2.869-3.2-1.848L224.068,308A7.073,7.073,0,0,0,220.868,313.546Z" transform="translate(1246.236 204.047)"/><path class="g" d="M255.424,293.593v6.476c0,2.042,1.432,2.869,3.2,1.848l35.631-20.573a7.07,7.07,0,0,0,3.2-5.543v-6.476c0-2.04-1.432-2.869-3.2-1.848L258.624,288.05A7.072,7.072,0,0,0,255.424,293.593Z" transform="translate(1261.723 195.104)"/><path class="g" d="M273.807,290.857l-8.169,4.716a4.242,4.242,0,0,0-1.92,3.326v2.5c0,1.224.859,1.72,1.92,1.108l8.169-4.716a4.246,4.246,0,0,0,1.92-3.326v-2.5C275.727,290.741,274.867,290.245,273.807,290.857Z" transform="translate(1265.438 205.66)"/><path class="g" d="M286.247,283.675l-8.17,4.716a4.243,4.243,0,0,0-1.92,3.325v2.5c0,1.225.86,1.722,1.92,1.109l8.17-4.716a4.246,4.246,0,0,0,1.92-3.326v-2.5C288.167,283.559,287.307,283.063,286.247,283.675Z" transform="translate(1271.011 202.441)"/><path class="g" d="M212.9,354.979l101.684-58.708c1.767-1.019,3.2-.193,3.2,1.848v3.011a7.078,7.078,0,0,1-3.2,5.543L212.9,365.379c-1.767,1.021-3.2.194-3.2-1.848v-3.009A7.069,7.069,0,0,1,212.9,354.979Z" transform="translate(1241.232 208.006)"/><path class="c" d="M156.986,228.775c-17.5-10.1-45.877-10.1-63.377,0s-17.5,26.487,0,36.591,45.875,10.1,63.377,0S174.488,238.879,156.986,228.775Z" transform="translate(1183.335 174.563)"/><path class="c" d="M156.986,228.775c-17.5-10.1-45.877-10.1-63.377,0s-17.5,26.487,0,36.591,45.875,10.1,63.377,0S174.488,238.879,156.986,228.775Z" transform="translate(1597.888 204.945)"/><path class="c" d="M156.986,228.775c-17.5-10.1-45.877-10.1-63.377,0s-17.5,26.487,0,36.591,45.875,10.1,63.377,0S174.488,238.879,156.986,228.775Z" transform="translate(1511.517 308.945)"/><path class="g" d="M162.285,235.191a26.074,26.074,0,0,0-9.659-8.932c-15.79-9.117-41.392-9.117-57.182,0a26.074,26.074,0,0,0-9.659,8.932H83.6v8.261h.029c.291,5.743,4.221,11.437,11.815,15.82,15.79,9.117,41.392,9.117,57.182,0,7.594-4.383,11.524-10.077,11.815-15.82h.029v-8.261Z" transform="translate(1184.731 173.766)"/><path class="g" d="M162.285,235.191a26.074,26.074,0,0,0-9.659-8.932c-15.79-9.117-41.392-9.117-57.182,0a26.074,26.074,0,0,0-9.659,8.932H83.6v8.261h.029c.291,5.743,4.221,11.437,11.815,15.82,15.79,9.117,41.392,9.117,57.182,0,7.594-4.383,11.524-10.077,11.815-15.82h.029v-8.261Z" transform="translate(1599.284 204.148)"/><path class="g" d="M162.285,235.191a26.074,26.074,0,0,0-9.659-8.932c-15.79-9.117-41.392-9.117-57.182,0a26.074,26.074,0,0,0-9.659,8.932H83.6v8.261h.029c.291,5.743,4.221,11.437,11.815,15.82,15.79,9.117,41.392,9.117,57.182,0,7.594-4.383,11.524-10.077,11.815-15.82h.029v-8.261Z" transform="translate(1512.913 308.148)"/><path class="p" d="M162.285,235.191a26.074,26.074,0,0,0-9.659-8.932c-15.79-9.117-41.392-9.117-57.182,0a26.074,26.074,0,0,0-9.659,8.932H83.6v8.261h.029c.291,5.743,4.221,11.437,11.815,15.82,15.79,9.117,41.392,9.117,57.182,0,7.594-4.383,11.524-10.077,11.815-15.82h.029v-8.261Z" transform="translate(1184.544 173.891)"/><path class="p" d="M162.285,235.191a26.074,26.074,0,0,0-9.659-8.932c-15.79-9.117-41.392-9.117-57.182,0a26.074,26.074,0,0,0-9.659,8.932H83.6v8.261h.029c.291,5.743,4.221,11.437,11.815,15.82,15.79,9.117,41.392,9.117,57.182,0,7.594-4.383,11.524-10.077,11.815-15.82h.029v-8.261Z" transform="translate(1599.097 204.273)"/><path class="p" d="M162.285,235.191a26.074,26.074,0,0,0-9.659-8.932c-15.79-9.117-41.392-9.117-57.182,0a26.074,26.074,0,0,0-9.659,8.932H83.6v8.261h.029c.291,5.743,4.221,11.437,11.815,15.82,15.79,9.117,41.392,9.117,57.182,0,7.594-4.383,11.524-10.077,11.815-15.82h.029v-8.261Z" transform="translate(1512.726 308.273)"/><g transform="translate(1268.333 385.617)"><path class="b" d="M152.626,221.029c-15.79-9.116-41.392-9.116-57.182,0s-15.791,23.9,0,33.015,41.392,9.117,57.182,0S168.418,230.147,152.626,221.029Z" transform="translate(-83.601 -214.193)"/><path class="q" d="M152.626,221.029c-15.79-9.116-41.392-9.116-57.182,0s-15.791,23.9,0,33.015,41.392,9.117,57.182,0S168.418,230.147,152.626,221.029Z" transform="translate(-83.601 -214.193)"/></g><g transform="translate(1682.886 416)"><path class="b" d="M152.626,221.029c-15.79-9.116-41.392-9.116-57.182,0s-15.791,23.9,0,33.015,41.392,9.117,57.182,0S168.418,230.147,152.626,221.029Z" transform="translate(-83.601 -214.193)"/><path class="q" d="M152.626,221.029c-15.79-9.116-41.392-9.116-57.182,0s-15.791,23.9,0,33.015,41.392,9.117,57.182,0S168.418,230.147,152.626,221.029Z" transform="translate(-83.601 -214.193)"/></g><g transform="translate(1596.515 520)"><path class="b" d="M152.626,221.029c-15.79-9.116-41.392-9.116-57.182,0s-15.791,23.9,0,33.015,41.392,9.117,57.182,0S168.418,230.147,152.626,221.029Z" transform="translate(-83.601 -214.193)"/><path class="q" d="M152.626,221.029c-15.79-9.116-41.392-9.116-57.182,0s-15.791,23.9,0,33.015,41.392,9.117,57.182,0S168.418,230.147,152.626,221.029Z" transform="translate(-83.601 -214.193)"/></g><g transform="translate(1270.097 387.373)"><g transform="translate(11.845 7.151)"><path class="g" d="M138.444,224.315c-5-2.56-11.609-3.972-18.621-3.972s-13.621,1.412-18.615,3.972C95.914,227.027,93,230.749,93,234.783s2.915,7.75,8.209,10.464c4.994,2.566,11.609,3.978,18.615,3.978s13.619-1.412,18.621-3.978c5.287-2.714,8.2-6.428,8.2-10.464S143.731,227.027,138.444,224.315Z" transform="translate(-92.999 -220.343)"/><path class="r" d="M138.444,224.315c-5-2.56-11.609-3.972-18.621-3.972s-13.621,1.412-18.615,3.972C95.914,227.027,93,230.749,93,234.783s2.915,7.75,8.209,10.464c4.994,2.566,11.609,3.978,18.615,3.978s13.619-1.412,18.621-3.978c5.287-2.714,8.2-6.428,8.2-10.464S143.731,227.027,138.444,224.315Z" transform="translate(-92.999 -220.343)"/></g><g transform="translate(0 0)"><path class="g" d="M151.2,222.013c-7.374-4.257-17.219-6.608-27.715-6.608s-20.334,2.35-27.706,6.608c-7.074,4.084-10.963,9.4-10.963,14.983s3.89,10.9,10.963,14.985c7.372,4.249,17.209,6.6,27.706,6.6s20.341-2.35,27.715-6.6c7.064-4.084,10.962-9.405,10.962-14.985S158.267,226.1,151.2,222.013Zm-9.094,25.447c-5,2.566-11.609,3.978-18.621,3.978s-13.621-1.412-18.615-3.978c-5.294-2.714-8.209-6.428-8.209-10.464s2.915-7.756,8.209-10.468c4.994-2.56,11.609-3.972,18.615-3.972s13.619,1.412,18.621,3.972c5.287,2.712,8.2,6.434,8.2,10.468S147.4,244.746,142.109,247.46Z" transform="translate(-84.819 -215.405)"/><path class="s" d="M151.2,222.013c-7.374-4.257-17.219-6.608-27.715-6.608s-20.334,2.35-27.706,6.608c-7.074,4.084-10.963,9.4-10.963,14.983s3.89,10.9,10.963,14.985c7.372,4.249,17.209,6.6,27.706,6.6s20.341-2.35,27.715-6.6c7.064-4.084,10.962-9.405,10.962-14.985S158.267,226.1,151.2,222.013Zm-9.094,25.447c-5,2.566-11.609,3.978-18.621,3.978s-13.621-1.412-18.615-3.978c-5.294-2.714-8.209-6.428-8.209-10.464s2.915-7.756,8.209-10.468c4.994-2.56,11.609-3.972,18.615-3.972s13.619,1.412,18.621,3.972c5.287,2.712,8.2,6.434,8.2,10.468S147.4,244.746,142.109,247.46Z" transform="translate(-84.819 -215.405)"/></g></g><g transform="translate(1684.649 417.756)"><g transform="translate(11.845 7.151)"><path class="g" d="M138.444,224.315c-5-2.56-11.609-3.972-18.621-3.972s-13.621,1.412-18.615,3.972C95.914,227.027,93,230.749,93,234.783s2.915,7.75,8.209,10.464c4.994,2.566,11.609,3.978,18.615,3.978s13.619-1.412,18.621-3.978c5.287-2.714,8.2-6.428,8.2-10.464S143.731,227.027,138.444,224.315Z" transform="translate(-92.999 -220.343)"/><path class="r" d="M138.444,224.315c-5-2.56-11.609-3.972-18.621-3.972s-13.621,1.412-18.615,3.972C95.914,227.027,93,230.749,93,234.783s2.915,7.75,8.209,10.464c4.994,2.566,11.609,3.978,18.615,3.978s13.619-1.412,18.621-3.978c5.287-2.714,8.2-6.428,8.2-10.464S143.731,227.027,138.444,224.315Z" transform="translate(-92.999 -220.343)"/></g><g transform="translate(0 0)"><path class="g" d="M151.2,222.013c-7.374-4.257-17.219-6.608-27.715-6.608s-20.334,2.35-27.706,6.608c-7.074,4.084-10.963,9.4-10.963,14.983s3.89,10.9,10.963,14.985c7.372,4.249,17.209,6.6,27.706,6.6s20.341-2.35,27.715-6.6c7.064-4.084,10.962-9.405,10.962-14.985S158.267,226.1,151.2,222.013Zm-9.094,25.447c-5,2.566-11.609,3.978-18.621,3.978s-13.621-1.412-18.615-3.978c-5.294-2.714-8.209-6.428-8.209-10.464s2.915-7.756,8.209-10.468c4.994-2.56,11.609-3.972,18.615-3.972s13.619,1.412,18.621,3.972c5.287,2.712,8.2,6.434,8.2,10.468S147.4,244.746,142.109,247.46Z" transform="translate(-84.819 -215.405)"/><path class="s" d="M151.2,222.013c-7.374-4.257-17.219-6.608-27.715-6.608s-20.334,2.35-27.706,6.608c-7.074,4.084-10.963,9.4-10.963,14.983s3.89,10.9,10.963,14.985c7.372,4.249,17.209,6.6,27.706,6.6s20.341-2.35,27.715-6.6c7.064-4.084,10.962-9.405,10.962-14.985S158.267,226.1,151.2,222.013Zm-9.094,25.447c-5,2.566-11.609,3.978-18.621,3.978s-13.621-1.412-18.615-3.978c-5.294-2.714-8.209-6.428-8.209-10.464s2.915-7.756,8.209-10.468c4.994-2.56,11.609-3.972,18.615-3.972s13.619,1.412,18.621,3.972c5.287,2.712,8.2,6.434,8.2,10.468S147.4,244.746,142.109,247.46Z" transform="translate(-84.819 -215.405)"/></g></g><g transform="translate(1598.278 521.756)"><g transform="translate(11.845 7.151)"><path class="g" d="M138.444,224.315c-5-2.56-11.609-3.972-18.621-3.972s-13.621,1.412-18.615,3.972C95.914,227.027,93,230.749,93,234.783s2.915,7.75,8.209,10.464c4.994,2.566,11.609,3.978,18.615,3.978s13.619-1.412,18.621-3.978c5.287-2.714,8.2-6.428,8.2-10.464S143.731,227.027,138.444,224.315Z" transform="translate(-92.999 -220.343)"/><path class="r" d="M138.444,224.315c-5-2.56-11.609-3.972-18.621-3.972s-13.621,1.412-18.615,3.972C95.914,227.027,93,230.749,93,234.783s2.915,7.75,8.209,10.464c4.994,2.566,11.609,3.978,18.615,3.978s13.619-1.412,18.621-3.978c5.287-2.714,8.2-6.428,8.2-10.464S143.731,227.027,138.444,224.315Z" transform="translate(-92.999 -220.343)"/></g><g transform="translate(0 0)"><path class="g" d="M151.2,222.013c-7.374-4.257-17.219-6.608-27.715-6.608s-20.334,2.35-27.706,6.608c-7.074,4.084-10.963,9.4-10.963,14.983s3.89,10.9,10.963,14.985c7.372,4.249,17.209,6.6,27.706,6.6s20.341-2.35,27.715-6.6c7.064-4.084,10.962-9.405,10.962-14.985S158.267,226.1,151.2,222.013Zm-9.094,25.447c-5,2.566-11.609,3.978-18.621,3.978s-13.621-1.412-18.615-3.978c-5.294-2.714-8.209-6.428-8.209-10.464s2.915-7.756,8.209-10.468c4.994-2.56,11.609-3.972,18.615-3.972s13.619,1.412,18.621,3.972c5.287,2.712,8.2,6.434,8.2,10.468S147.4,244.746,142.109,247.46Z" transform="translate(-84.819 -215.405)"/><path class="s" d="M151.2,222.013c-7.374-4.257-17.219-6.608-27.715-6.608s-20.334,2.35-27.706,6.608c-7.074,4.084-10.963,9.4-10.963,14.983s3.89,10.9,10.963,14.985c7.372,4.249,17.209,6.6,27.706,6.6s20.341-2.35,27.715-6.6c7.064-4.084,10.962-9.405,10.962-14.985S158.267,226.1,151.2,222.013Zm-9.094,25.447c-5,2.566-11.609,3.978-18.621,3.978s-13.621-1.412-18.615-3.978c-5.294-2.714-8.209-6.428-8.209-10.464s2.915-7.756,8.209-10.468c4.994-2.56,11.609-3.972,18.615-3.972s13.619,1.412,18.621,3.972c5.287,2.712,8.2,6.434,8.2,10.468S147.4,244.746,142.109,247.46Z" transform="translate(-84.819 -215.405)"/></g></g><g transform="translate(1283.336 395.91)"><ellipse class="t" cx="25.431" cy="13.051" rx="25.431" ry="13.051" transform="translate(0 0)"/><ellipse class="u" cx="25.431" cy="13.051" rx="25.431" ry="13.051" transform="translate(0 0)"/></g><g transform="translate(1697.889 426.293)"><ellipse class="t" cx="25.431" cy="13.051" rx="25.431" ry="13.051" transform="translate(0 0)"/><ellipse class="u" cx="25.431" cy="13.051" rx="25.431" ry="13.051" transform="translate(0 0)"/></g><g transform="translate(1611.518 530.293)"><ellipse class="t" cx="25.431" cy="13.051" rx="25.431" ry="13.051" transform="translate(0 0)"/><ellipse class="u" cx="25.431" cy="13.051" rx="25.431" ry="13.051" transform="translate(0 0)"/></g><g transform="translate(1283.564 399.367)"><path class="b" d="M137.3,227.511c-9.931-5.1-26.034-5.1-35.964,0-4.107,2.108-6.511,4.757-7.22,7.5.71,2.743,3.113,5.393,7.22,7.5,9.931,5.1,26.034,5.1,35.964,0,4.107-2.107,6.511-4.755,7.222-7.5C143.815,232.268,141.411,229.618,137.3,227.511Z" transform="translate(-94.12 -223.688)"/><path class="q" d="M137.3,227.511c-9.931-5.1-26.034-5.1-35.964,0-4.107,2.108-6.511,4.757-7.22,7.5.71,2.743,3.113,5.393,7.22,7.5,9.931,5.1,26.034,5.1,35.964,0,4.107-2.107,6.511-4.755,7.222-7.5C143.815,232.268,141.411,229.618,137.3,227.511Z" transform="translate(-94.12 -223.688)"/></g><g transform="translate(1698.117 429.75)"><path class="b" d="M137.3,227.511c-9.931-5.1-26.034-5.1-35.964,0-4.107,2.108-6.511,4.757-7.22,7.5.71,2.743,3.113,5.393,7.22,7.5,9.931,5.1,26.034,5.1,35.964,0,4.107-2.107,6.511-4.755,7.222-7.5C143.815,232.268,141.411,229.618,137.3,227.511Z" transform="translate(-94.12 -223.688)"/><path class="q" d="M137.3,227.511c-9.931-5.1-26.034-5.1-35.964,0-4.107,2.108-6.511,4.757-7.22,7.5.71,2.743,3.113,5.393,7.22,7.5,9.931,5.1,26.034,5.1,35.964,0,4.107-2.107,6.511-4.755,7.222-7.5C143.815,232.268,141.411,229.618,137.3,227.511Z" transform="translate(-94.12 -223.688)"/></g><g transform="translate(1611.746 533.75)"><path class="b" d="M137.3,227.511c-9.931-5.1-26.034-5.1-35.964,0-4.107,2.108-6.511,4.757-7.22,7.5.71,2.743,3.113,5.393,7.22,7.5,9.931,5.1,26.034,5.1,35.964,0,4.107-2.107,6.511-4.755,7.222-7.5C143.815,232.268,141.411,229.618,137.3,227.511Z" transform="translate(-94.12 -223.688)"/><path class="q" d="M137.3,227.511c-9.931-5.1-26.034-5.1-35.964,0-4.107,2.108-6.511,4.757-7.22,7.5.71,2.743,3.113,5.393,7.22,7.5,9.931,5.1,26.034,5.1,35.964,0,4.107-2.107,6.511-4.755,7.222-7.5C143.815,232.268,141.411,229.618,137.3,227.511Z" transform="translate(-94.12 -223.688)"/></g><g transform="translate(1293.098 399.93)"><g transform="translate(0 0)"><path class="i" d="M114.31,224.077v3.729l-1.273,1.344-2.354,2.466v-3.88Z" transform="translate(-96.232 -224.077)"/><path class="i" d="M112.955,226.906v3.882H105.6v-4.546S112.4,225.2,112.955,226.906Z" transform="translate(-98.509 -223.249)"/><path class="i" d="M132.034,237.938v3.219l-4.078,2.353-3.018-1.745a15.363,15.363,0,0,1-11.68.527v-3.222l1.854-1.838-1.854.511a11.928,11.928,0,0,1-9.1-1.041c-1.829-1.054-2.677-2.208-2.673-3.4v-3.134l.33-1.37-1.114-.647v-3.222l3.018,1.743c-1.473,1.143-2.255,2.318-2.234,3.459v.036c.032,1.158.889,2.282,2.673,3.312,3.966,2.291,7.9,1.535,11.5.381,3.349-1.093,5.787-2.376,7.718-1.264,1.2.694.834,1.535-.511,2.314a6.693,6.693,0,0,1-5.75.333l-3.855,3.823a13.777,13.777,0,0,0,2.13.626,15.89,15.89,0,0,0,9.55-1.148l3.018,1.743Z" transform="translate(-100.703 -223.694)"/><path class="i" d="M117.438,234.335v3.219l3.02,1.744v-3.219Z" transform="translate(-93.204 -219.481)"/></g><g class="v" transform="translate(0 0)"><path class="i" d="M114.31,224.077v3.729l-1.273,1.344-2.354,2.466v-3.88Z" transform="translate(-96.232 -224.077)"/><path class="i" d="M112.955,226.906v3.882H105.6v-4.546S112.4,225.2,112.955,226.906Z" transform="translate(-98.509 -223.249)"/><path class="i" d="M132.034,237.938v3.219l-4.078,2.353-3.018-1.745a15.363,15.363,0,0,1-11.68.527v-3.222l1.854-1.838-1.854.511a11.928,11.928,0,0,1-9.1-1.041c-1.829-1.054-2.677-2.208-2.673-3.4v-3.134l.33-1.37-1.114-.647v-3.222l3.018,1.743c-1.473,1.143-2.255,2.318-2.234,3.459v.036c.032,1.158.889,2.282,2.673,3.312,3.966,2.291,7.9,1.535,11.5.381,3.349-1.093,5.787-2.376,7.718-1.264,1.2.694.834,1.535-.511,2.314a6.693,6.693,0,0,1-5.75.333l-3.855,3.823a13.777,13.777,0,0,0,2.13.626,15.89,15.89,0,0,0,9.55-1.148l3.018,1.743Z" transform="translate(-100.703 -223.694)"/><path class="i" d="M117.438,234.335v3.219l3.02,1.744v-3.219Z" transform="translate(-93.204 -219.481)"/></g></g><g transform="translate(1707.65 430.313)"><g transform="translate(0 0)"><path class="i" d="M114.31,224.077v3.729l-1.273,1.344-2.354,2.466v-3.88Z" transform="translate(-96.232 -224.077)"/><path class="i" d="M112.955,226.906v3.882H105.6v-4.546S112.4,225.2,112.955,226.906Z" transform="translate(-98.509 -223.249)"/><path class="i" d="M132.034,237.938v3.219l-4.078,2.353-3.018-1.745a15.363,15.363,0,0,1-11.68.527v-3.222l1.854-1.838-1.854.511a11.928,11.928,0,0,1-9.1-1.041c-1.829-1.054-2.677-2.208-2.673-3.4v-3.134l.33-1.37-1.114-.647v-3.222l3.018,1.743c-1.473,1.143-2.255,2.318-2.234,3.459v.036c.032,1.158.889,2.282,2.673,3.312,3.966,2.291,7.9,1.535,11.5.381,3.349-1.093,5.787-2.376,7.718-1.264,1.2.694.834,1.535-.511,2.314a6.693,6.693,0,0,1-5.75.333l-3.855,3.823a13.777,13.777,0,0,0,2.13.626,15.89,15.89,0,0,0,9.55-1.148l3.018,1.743Z" transform="translate(-100.703 -223.694)"/><path class="i" d="M117.438,234.335v3.219l3.02,1.744v-3.219Z" transform="translate(-93.204 -219.481)"/></g><g class="v" transform="translate(0 0)"><path class="i" d="M114.31,224.077v3.729l-1.273,1.344-2.354,2.466v-3.88Z" transform="translate(-96.232 -224.077)"/><path class="i" d="M112.955,226.906v3.882H105.6v-4.546S112.4,225.2,112.955,226.906Z" transform="translate(-98.509 -223.249)"/><path class="i" d="M132.034,237.938v3.219l-4.078,2.353-3.018-1.745a15.363,15.363,0,0,1-11.68.527v-3.222l1.854-1.838-1.854.511a11.928,11.928,0,0,1-9.1-1.041c-1.829-1.054-2.677-2.208-2.673-3.4v-3.134l.33-1.37-1.114-.647v-3.222l3.018,1.743c-1.473,1.143-2.255,2.318-2.234,3.459v.036c.032,1.158.889,2.282,2.673,3.312,3.966,2.291,7.9,1.535,11.5.381,3.349-1.093,5.787-2.376,7.718-1.264,1.2.694.834,1.535-.511,2.314a6.693,6.693,0,0,1-5.75.333l-3.855,3.823a13.777,13.777,0,0,0,2.13.626,15.89,15.89,0,0,0,9.55-1.148l3.018,1.743Z" transform="translate(-100.703 -223.694)"/><path class="i" d="M117.438,234.335v3.219l3.02,1.744v-3.219Z" transform="translate(-93.204 -219.481)"/></g></g><g transform="translate(1621.279 534.313)"><g transform="translate(0 0)"><path class="i" d="M114.31,224.077v3.729l-1.273,1.344-2.354,2.466v-3.88Z" transform="translate(-96.232 -224.077)"/><path class="i" d="M112.955,226.906v3.882H105.6v-4.546S112.4,225.2,112.955,226.906Z" transform="translate(-98.509 -223.249)"/><path class="i" d="M132.034,237.938v3.219l-4.078,2.353-3.018-1.745a15.363,15.363,0,0,1-11.68.527v-3.222l1.854-1.838-1.854.511a11.928,11.928,0,0,1-9.1-1.041c-1.829-1.054-2.677-2.208-2.673-3.4v-3.134l.33-1.37-1.114-.647v-3.222l3.018,1.743c-1.473,1.143-2.255,2.318-2.234,3.459v.036c.032,1.158.889,2.282,2.673,3.312,3.966,2.291,7.9,1.535,11.5.381,3.349-1.093,5.787-2.376,7.718-1.264,1.2.694.834,1.535-.511,2.314a6.693,6.693,0,0,1-5.75.333l-3.855,3.823a13.777,13.777,0,0,0,2.13.626,15.89,15.89,0,0,0,9.55-1.148l3.018,1.743Z" transform="translate(-100.703 -223.694)"/><path class="i" d="M117.438,234.335v3.219l3.02,1.744v-3.219Z" transform="translate(-93.204 -219.481)"/></g><g class="v" transform="translate(0 0)"><path class="i" d="M114.31,224.077v3.729l-1.273,1.344-2.354,2.466v-3.88Z" transform="translate(-96.232 -224.077)"/><path class="i" d="M112.955,226.906v3.882H105.6v-4.546S112.4,225.2,112.955,226.906Z" transform="translate(-98.509 -223.249)"/><path class="i" d="M132.034,237.938v3.219l-4.078,2.353-3.018-1.745a15.363,15.363,0,0,1-11.68.527v-3.222l1.854-1.838-1.854.511a11.928,11.928,0,0,1-9.1-1.041c-1.829-1.054-2.677-2.208-2.673-3.4v-3.134l.33-1.37-1.114-.647v-3.222l3.018,1.743c-1.473,1.143-2.255,2.318-2.234,3.459v.036c.032,1.158.889,2.282,2.673,3.312,3.966,2.291,7.9,1.535,11.5.381,3.349-1.093,5.787-2.376,7.718-1.264,1.2.694.834,1.535-.511,2.314a6.693,6.693,0,0,1-5.75.333l-3.855,3.823a13.777,13.777,0,0,0,2.13.626,15.89,15.89,0,0,0,9.55-1.148l3.018,1.743Z" transform="translate(-100.703 -223.694)"/><path class="i" d="M117.438,234.335v3.219l3.02,1.744v-3.219Z" transform="translate(-93.204 -219.481)"/></g></g><g transform="translate(1293.098 398.799)"><g transform="translate(0 0)"><path class="n" d="M131.352,238.281l-2.334-1.354a3.976,3.976,0,0,0,2.334-3.577,3.015,3.015,0,0,0-.02-.313c-.1-1.112-.92-2.194-2.607-3.164v-.01a10.72,10.72,0,0,0-5.427-1.413c-.151,0-.313.009-.465.009h-.051l-.484.03c-.142.01-.284.02-.426.041-.059.01-.12.01-.171.02a3.072,3.072,0,0,0-.323.041,21.984,21.984,0,0,0-2.638.546c-.414.112-.828.232-1.232.363-.586.182-1.163.374-1.707.556-.223.081-.434.152-.647.223a19.956,19.956,0,0,1-3.617,1.03,3.75,3.75,0,0,1-1.557-.061,3.179,3.179,0,0,1-.727-.3c-.909-.526-1.051-1.324.656-2.314a5.968,5.968,0,0,1,5.245-.546l3.627-3.658a15.537,15.537,0,0,0-10.943.607l-3.021-1.738-4.114,2.373,3.022,1.739c-1.476,1.141-2.263,2.324-2.243,3.465v.03c.041,1.163.889,2.284,2.677,3.315,3.971,2.294,7.9,1.536,11.5.374,3.345-1.092,5.779-2.375,7.71-1.263,1.2.7.838,1.536-.505,2.314a6.639,6.639,0,0,1-5.749.333l-3.861,3.83a14.855,14.855,0,0,0,2.133.626,15.917,15.917,0,0,0,9.549-1.151l3.021,1.748,4.072-2.355Z" transform="translate(-100.703 -223.296)"/><path class="w" d="M131.352,238.281l-2.334-1.354a3.976,3.976,0,0,0,2.334-3.577,3.015,3.015,0,0,0-.02-.313c-.1-1.112-.92-2.194-2.607-3.164v-.01a10.72,10.72,0,0,0-5.427-1.413c-.151,0-.313.009-.465.009h-.051l-.484.03c-.142.01-.284.02-.426.041-.059.01-.12.01-.171.02a3.072,3.072,0,0,0-.323.041,21.984,21.984,0,0,0-2.638.546c-.414.112-.828.232-1.232.363-.586.182-1.163.374-1.707.556-.223.081-.434.152-.647.223a19.956,19.956,0,0,1-3.617,1.03,3.75,3.75,0,0,1-1.557-.061,3.179,3.179,0,0,1-.727-.3c-.909-.526-1.051-1.324.656-2.314a5.968,5.968,0,0,1,5.245-.546l3.627-3.658a15.537,15.537,0,0,0-10.943.607l-3.021-1.738-4.114,2.373,3.022,1.739c-1.476,1.141-2.263,2.324-2.243,3.465v.03c.041,1.163.889,2.284,2.677,3.315,3.971,2.294,7.9,1.536,11.5.374,3.345-1.092,5.779-2.375,7.71-1.263,1.2.7.838,1.536-.505,2.314a6.639,6.639,0,0,1-5.749.333l-3.861,3.83a14.855,14.855,0,0,0,2.133.626,15.917,15.917,0,0,0,9.549-1.151l3.021,1.748,4.072-2.355Z" transform="translate(-100.703 -223.296)"/></g></g><g transform="translate(1707.65 429.182)"><g transform="translate(0 0)"><path class="n" d="M131.352,238.281l-2.334-1.354a3.976,3.976,0,0,0,2.334-3.577,3.015,3.015,0,0,0-.02-.313c-.1-1.112-.92-2.194-2.607-3.164v-.01a10.72,10.72,0,0,0-5.427-1.413c-.151,0-.313.009-.465.009h-.051l-.484.03c-.142.01-.284.02-.426.041-.059.01-.12.01-.171.02a3.072,3.072,0,0,0-.323.041,21.984,21.984,0,0,0-2.638.546c-.414.112-.828.232-1.232.363-.586.182-1.163.374-1.707.556-.223.081-.434.152-.647.223a19.956,19.956,0,0,1-3.617,1.03,3.75,3.75,0,0,1-1.557-.061,3.179,3.179,0,0,1-.727-.3c-.909-.526-1.051-1.324.656-2.314a5.968,5.968,0,0,1,5.245-.546l3.627-3.658a15.537,15.537,0,0,0-10.943.607l-3.021-1.738-4.114,2.373,3.022,1.739c-1.476,1.141-2.263,2.324-2.243,3.465v.03c.041,1.163.889,2.284,2.677,3.315,3.971,2.294,7.9,1.536,11.5.374,3.345-1.092,5.779-2.375,7.71-1.263,1.2.7.838,1.536-.505,2.314a6.639,6.639,0,0,1-5.749.333l-3.861,3.83a14.855,14.855,0,0,0,2.133.626,15.917,15.917,0,0,0,9.549-1.151l3.021,1.748,4.072-2.355Z" transform="translate(-100.703 -223.296)"/><path class="w" d="M131.352,238.281l-2.334-1.354a3.976,3.976,0,0,0,2.334-3.577,3.015,3.015,0,0,0-.02-.313c-.1-1.112-.92-2.194-2.607-3.164v-.01a10.72,10.72,0,0,0-5.427-1.413c-.151,0-.313.009-.465.009h-.051l-.484.03c-.142.01-.284.02-.426.041-.059.01-.12.01-.171.02a3.072,3.072,0,0,0-.323.041,21.984,21.984,0,0,0-2.638.546c-.414.112-.828.232-1.232.363-.586.182-1.163.374-1.707.556-.223.081-.434.152-.647.223a19.956,19.956,0,0,1-3.617,1.03,3.75,3.75,0,0,1-1.557-.061,3.179,3.179,0,0,1-.727-.3c-.909-.526-1.051-1.324.656-2.314a5.968,5.968,0,0,1,5.245-.546l3.627-3.658a15.537,15.537,0,0,0-10.943.607l-3.021-1.738-4.114,2.373,3.022,1.739c-1.476,1.141-2.263,2.324-2.243,3.465v.03c.041,1.163.889,2.284,2.677,3.315,3.971,2.294,7.9,1.536,11.5.374,3.345-1.092,5.779-2.375,7.71-1.263,1.2.7.838,1.536-.505,2.314a6.639,6.639,0,0,1-5.749.333l-3.861,3.83a14.855,14.855,0,0,0,2.133.626,15.917,15.917,0,0,0,9.549-1.151l3.021,1.748,4.072-2.355Z" transform="translate(-100.703 -223.296)"/></g></g><g transform="translate(1621.279 533.182)"><g transform="translate(0 0)"><path class="n" d="M131.352,238.281l-2.334-1.354a3.976,3.976,0,0,0,2.334-3.577,3.015,3.015,0,0,0-.02-.313c-.1-1.112-.92-2.194-2.607-3.164v-.01a10.72,10.72,0,0,0-5.427-1.413c-.151,0-.313.009-.465.009h-.051l-.484.03c-.142.01-.284.02-.426.041-.059.01-.12.01-.171.02a3.072,3.072,0,0,0-.323.041,21.984,21.984,0,0,0-2.638.546c-.414.112-.828.232-1.232.363-.586.182-1.163.374-1.707.556-.223.081-.434.152-.647.223a19.956,19.956,0,0,1-3.617,1.03,3.75,3.75,0,0,1-1.557-.061,3.179,3.179,0,0,1-.727-.3c-.909-.526-1.051-1.324.656-2.314a5.968,5.968,0,0,1,5.245-.546l3.627-3.658a15.537,15.537,0,0,0-10.943.607l-3.021-1.738-4.114,2.373,3.022,1.739c-1.476,1.141-2.263,2.324-2.243,3.465v.03c.041,1.163.889,2.284,2.677,3.315,3.971,2.294,7.9,1.536,11.5.374,3.345-1.092,5.779-2.375,7.71-1.263,1.2.7.838,1.536-.505,2.314a6.639,6.639,0,0,1-5.749.333l-3.861,3.83a14.855,14.855,0,0,0,2.133.626,15.917,15.917,0,0,0,9.549-1.151l3.021,1.748,4.072-2.355Z" transform="translate(-100.703 -223.296)"/><path class="w" d="M131.352,238.281l-2.334-1.354a3.976,3.976,0,0,0,2.334-3.577,3.015,3.015,0,0,0-.02-.313c-.1-1.112-.92-2.194-2.607-3.164v-.01a10.72,10.72,0,0,0-5.427-1.413c-.151,0-.313.009-.465.009h-.051l-.484.03c-.142.01-.284.02-.426.041-.059.01-.12.01-.171.02a3.072,3.072,0,0,0-.323.041,21.984,21.984,0,0,0-2.638.546c-.414.112-.828.232-1.232.363-.586.182-1.163.374-1.707.556-.223.081-.434.152-.647.223a19.956,19.956,0,0,1-3.617,1.03,3.75,3.75,0,0,1-1.557-.061,3.179,3.179,0,0,1-.727-.3c-.909-.526-1.051-1.324.656-2.314a5.968,5.968,0,0,1,5.245-.546l3.627-3.658a15.537,15.537,0,0,0-10.943.607l-3.021-1.738-4.114,2.373,3.022,1.739c-1.476,1.141-2.263,2.324-2.243,3.465v.03c.041,1.163.889,2.284,2.677,3.315,3.971,2.294,7.9,1.536,11.5.374,3.345-1.092,5.779-2.375,7.71-1.263,1.2.7.838,1.536-.505,2.314a6.639,6.639,0,0,1-5.749.333l-3.861,3.83a14.855,14.855,0,0,0,2.133.626,15.917,15.917,0,0,0,9.549-1.151l3.021,1.748,4.072-2.355Z" transform="translate(-100.703 -223.296)"/></g></g><path class="g" d="M162.285,235.191a26.074,26.074,0,0,0-9.659-8.932c-15.79-9.117-41.392-9.117-57.182,0a26.074,26.074,0,0,0-9.659,8.932H83.6v8.261h.029c.291,5.743,4.221,11.437,11.815,15.82,15.79,9.117,41.392,9.117,57.182,0,7.594-4.383,11.524-10.077,11.815-15.82h.029v-8.261Z" transform="translate(1535.284 302.26)"/><path class="p" d="M162.285,235.191a26.074,26.074,0,0,0-9.659-8.932c-15.79-9.117-41.392-9.117-57.182,0a26.074,26.074,0,0,0-9.659,8.932H83.6v8.261h.029c.291,5.743,4.221,11.437,11.815,15.82,15.79,9.117,41.392,9.117,57.182,0,7.594-4.383,11.524-10.077,11.815-15.82h.029v-8.261Z" transform="translate(1535.097 302.385)"/><g transform="translate(1618.886 514.111)"><path class="b" d="M152.626,221.029c-15.79-9.116-41.392-9.116-57.182,0s-15.791,23.9,0,33.015,41.392,9.117,57.182,0S168.418,230.147,152.626,221.029Z" transform="translate(-83.601 -214.193)"/><path class="q" d="M152.626,221.029c-15.79-9.116-41.392-9.116-57.182,0s-15.791,23.9,0,33.015,41.392,9.117,57.182,0S168.418,230.147,152.626,221.029Z" transform="translate(-83.601 -214.193)"/></g><g transform="translate(1620.649 515.867)"><g transform="translate(11.845 7.151)"><path class="g" d="M138.444,224.315c-5-2.56-11.609-3.972-18.621-3.972s-13.621,1.412-18.615,3.972C95.914,227.027,93,230.749,93,234.783s2.915,7.75,8.209,10.464c4.994,2.566,11.609,3.978,18.615,3.978s13.619-1.412,18.621-3.978c5.287-2.714,8.2-6.428,8.2-10.464S143.731,227.027,138.444,224.315Z" transform="translate(-92.999 -220.343)"/><path class="r" d="M138.444,224.315c-5-2.56-11.609-3.972-18.621-3.972s-13.621,1.412-18.615,3.972C95.914,227.027,93,230.749,93,234.783s2.915,7.75,8.209,10.464c4.994,2.566,11.609,3.978,18.615,3.978s13.619-1.412,18.621-3.978c5.287-2.714,8.2-6.428,8.2-10.464S143.731,227.027,138.444,224.315Z" transform="translate(-92.999 -220.343)"/></g><g transform="translate(0 0)"><path class="g" d="M151.2,222.013c-7.374-4.257-17.219-6.608-27.715-6.608s-20.334,2.35-27.706,6.608c-7.074,4.084-10.963,9.4-10.963,14.983s3.89,10.9,10.963,14.985c7.372,4.249,17.209,6.6,27.706,6.6s20.341-2.35,27.715-6.6c7.064-4.084,10.962-9.405,10.962-14.985S158.267,226.1,151.2,222.013Zm-9.094,25.447c-5,2.566-11.609,3.978-18.621,3.978s-13.621-1.412-18.615-3.978c-5.294-2.714-8.209-6.428-8.209-10.464s2.915-7.756,8.209-10.468c4.994-2.56,11.609-3.972,18.615-3.972s13.619,1.412,18.621,3.972c5.287,2.712,8.2,6.434,8.2,10.468S147.4,244.746,142.109,247.46Z" transform="translate(-84.819 -215.405)"/><path class="s" d="M151.2,222.013c-7.374-4.257-17.219-6.608-27.715-6.608s-20.334,2.35-27.706,6.608c-7.074,4.084-10.963,9.4-10.963,14.983s3.89,10.9,10.963,14.985c7.372,4.249,17.209,6.6,27.706,6.6s20.341-2.35,27.715-6.6c7.064-4.084,10.962-9.405,10.962-14.985S158.267,226.1,151.2,222.013Zm-9.094,25.447c-5,2.566-11.609,3.978-18.621,3.978s-13.621-1.412-18.615-3.978c-5.294-2.714-8.209-6.428-8.209-10.464s2.915-7.756,8.209-10.468c4.994-2.56,11.609-3.972,18.615-3.972s13.619,1.412,18.621,3.972c5.287,2.712,8.2,6.434,8.2,10.468S147.4,244.746,142.109,247.46Z" transform="translate(-84.819 -215.405)"/></g></g><g transform="translate(1633.889 524.404)"><ellipse class="t" cx="25.431" cy="13.051" rx="25.431" ry="13.051" transform="translate(0 0)"/><ellipse class="u" cx="25.431" cy="13.051" rx="25.431" ry="13.051" transform="translate(0 0)"/></g><g transform="translate(1634.117 527.861)"><path class="b" d="M137.3,227.511c-9.931-5.1-26.034-5.1-35.964,0-4.107,2.108-6.511,4.757-7.22,7.5.71,2.743,3.113,5.393,7.22,7.5,9.931,5.1,26.034,5.1,35.964,0,4.107-2.107,6.511-4.755,7.222-7.5C143.815,232.268,141.411,229.618,137.3,227.511Z" transform="translate(-94.12 -223.688)"/><path class="q" d="M137.3,227.511c-9.931-5.1-26.034-5.1-35.964,0-4.107,2.108-6.511,4.757-7.22,7.5.71,2.743,3.113,5.393,7.22,7.5,9.931,5.1,26.034,5.1,35.964,0,4.107-2.107,6.511-4.755,7.222-7.5C143.815,232.268,141.411,229.618,137.3,227.511Z" transform="translate(-94.12 -223.688)"/></g><g transform="translate(1643.65 528.424)"><g transform="translate(0 0)"><path class="i" d="M114.31,224.077v3.729l-1.273,1.344-2.354,2.466v-3.88Z" transform="translate(-96.232 -224.077)"/><path class="i" d="M112.955,226.906v3.882H105.6v-4.546S112.4,225.2,112.955,226.906Z" transform="translate(-98.509 -223.249)"/><path class="i" d="M132.034,237.938v3.219l-4.078,2.353-3.018-1.745a15.363,15.363,0,0,1-11.68.527v-3.222l1.854-1.838-1.854.511a11.928,11.928,0,0,1-9.1-1.041c-1.829-1.054-2.677-2.208-2.673-3.4v-3.134l.33-1.37-1.114-.647v-3.222l3.018,1.743c-1.473,1.143-2.255,2.318-2.234,3.459v.036c.032,1.158.889,2.282,2.673,3.312,3.966,2.291,7.9,1.535,11.5.381,3.349-1.093,5.787-2.376,7.718-1.264,1.2.694.834,1.535-.511,2.314a6.693,6.693,0,0,1-5.75.333l-3.855,3.823a13.777,13.777,0,0,0,2.13.626,15.89,15.89,0,0,0,9.55-1.148l3.018,1.743Z" transform="translate(-100.703 -223.694)"/><path class="i" d="M117.438,234.335v3.219l3.02,1.744v-3.219Z" transform="translate(-93.204 -219.481)"/></g><g class="v" transform="translate(0 0)"><path class="i" d="M114.31,224.077v3.729l-1.273,1.344-2.354,2.466v-3.88Z" transform="translate(-96.232 -224.077)"/><path class="i" d="M112.955,226.906v3.882H105.6v-4.546S112.4,225.2,112.955,226.906Z" transform="translate(-98.509 -223.249)"/><path class="i" d="M132.034,237.938v3.219l-4.078,2.353-3.018-1.745a15.363,15.363,0,0,1-11.68.527v-3.222l1.854-1.838-1.854.511a11.928,11.928,0,0,1-9.1-1.041c-1.829-1.054-2.677-2.208-2.673-3.4v-3.134l.33-1.37-1.114-.647v-3.222l3.018,1.743c-1.473,1.143-2.255,2.318-2.234,3.459v.036c.032,1.158.889,2.282,2.673,3.312,3.966,2.291,7.9,1.535,11.5.381,3.349-1.093,5.787-2.376,7.718-1.264,1.2.694.834,1.535-.511,2.314a6.693,6.693,0,0,1-5.75.333l-3.855,3.823a13.777,13.777,0,0,0,2.13.626,15.89,15.89,0,0,0,9.55-1.148l3.018,1.743Z" transform="translate(-100.703 -223.694)"/><path class="i" d="M117.438,234.335v3.219l3.02,1.744v-3.219Z" transform="translate(-93.204 -219.481)"/></g></g><g transform="translate(1643.65 527.293)"><g transform="translate(0 0)"><path class="n" d="M131.352,238.281l-2.334-1.354a3.976,3.976,0,0,0,2.334-3.577,3.015,3.015,0,0,0-.02-.313c-.1-1.112-.92-2.194-2.607-3.164v-.01a10.72,10.72,0,0,0-5.427-1.413c-.151,0-.313.009-.465.009h-.051l-.484.03c-.142.01-.284.02-.426.041-.059.01-.12.01-.171.02a3.072,3.072,0,0,0-.323.041,21.984,21.984,0,0,0-2.638.546c-.414.112-.828.232-1.232.363-.586.182-1.163.374-1.707.556-.223.081-.434.152-.647.223a19.956,19.956,0,0,1-3.617,1.03,3.75,3.75,0,0,1-1.557-.061,3.179,3.179,0,0,1-.727-.3c-.909-.526-1.051-1.324.656-2.314a5.968,5.968,0,0,1,5.245-.546l3.627-3.658a15.537,15.537,0,0,0-10.943.607l-3.021-1.738-4.114,2.373,3.022,1.739c-1.476,1.141-2.263,2.324-2.243,3.465v.03c.041,1.163.889,2.284,2.677,3.315,3.971,2.294,7.9,1.536,11.5.374,3.345-1.092,5.779-2.375,7.71-1.263,1.2.7.838,1.536-.505,2.314a6.639,6.639,0,0,1-5.749.333l-3.861,3.83a14.855,14.855,0,0,0,2.133.626,15.917,15.917,0,0,0,9.549-1.151l3.021,1.748,4.072-2.355Z" transform="translate(-100.703 -223.296)"/><path class="w" d="M131.352,238.281l-2.334-1.354a3.976,3.976,0,0,0,2.334-3.577,3.015,3.015,0,0,0-.02-.313c-.1-1.112-.92-2.194-2.607-3.164v-.01a10.72,10.72,0,0,0-5.427-1.413c-.151,0-.313.009-.465.009h-.051l-.484.03c-.142.01-.284.02-.426.041-.059.01-.12.01-.171.02a3.072,3.072,0,0,0-.323.041,21.984,21.984,0,0,0-2.638.546c-.414.112-.828.232-1.232.363-.586.182-1.163.374-1.707.556-.223.081-.434.152-.647.223a19.956,19.956,0,0,1-3.617,1.03,3.75,3.75,0,0,1-1.557-.061,3.179,3.179,0,0,1-.727-.3c-.909-.526-1.051-1.324.656-2.314a5.968,5.968,0,0,1,5.245-.546l3.627-3.658a15.537,15.537,0,0,0-10.943.607l-3.021-1.738-4.114,2.373,3.022,1.739c-1.476,1.141-2.263,2.324-2.243,3.465v.03c.041,1.163.889,2.284,2.677,3.315,3.971,2.294,7.9,1.536,11.5.374,3.345-1.092,5.779-2.375,7.71-1.263,1.2.7.838,1.536-.505,2.314a6.639,6.639,0,0,1-5.749.333l-3.861,3.83a14.855,14.855,0,0,0,2.133.626,15.917,15.917,0,0,0,9.549-1.151l3.021,1.748,4.072-2.355Z" transform="translate(-100.703 -223.296)"/></g></g><path class="g" d="M162.285,235.191a26.074,26.074,0,0,0-9.659-8.932c-15.79-9.117-41.392-9.117-57.182,0a26.074,26.074,0,0,0-9.659,8.932H83.6v8.261h.029c.291,5.743,4.221,11.437,11.815,15.82,15.79,9.117,41.392,9.117,57.182,0,7.594-4.383,11.524-10.077,11.815-15.82h.029v-8.261Z" transform="translate(1520.913 268.309)"/><path class="p" d="M162.285,235.191a26.074,26.074,0,0,0-9.659-8.932c-15.79-9.117-41.392-9.117-57.182,0a26.074,26.074,0,0,0-9.659,8.932H83.6v8.261h.029c.291,5.743,4.221,11.437,11.815,15.82,15.79,9.117,41.392,9.117,57.182,0,7.594-4.383,11.524-10.077,11.815-15.82h.029v-8.261Z" transform="translate(1520.726 268.434)"/><g transform="translate(1604.515 480.16)"><path class="b" d="M152.626,221.029c-15.79-9.116-41.392-9.116-57.182,0s-15.791,23.9,0,33.015,41.392,9.117,57.182,0S168.418,230.147,152.626,221.029Z" transform="translate(-83.601 -214.193)"/><path class="q" d="M152.626,221.029c-15.79-9.116-41.392-9.116-57.182,0s-15.791,23.9,0,33.015,41.392,9.117,57.182,0S168.418,230.147,152.626,221.029Z" transform="translate(-83.601 -214.193)"/></g><g transform="translate(1606.278 481.914)"><g transform="translate(11.845 7.151)"><path class="g" d="M138.444,224.315c-5-2.56-11.609-3.972-18.621-3.972s-13.621,1.412-18.615,3.972C95.914,227.027,93,230.749,93,234.783s2.915,7.75,8.209,10.464c4.994,2.566,11.609,3.978,18.615,3.978s13.619-1.412,18.621-3.978c5.287-2.714,8.2-6.428,8.2-10.464S143.731,227.027,138.444,224.315Z" transform="translate(-92.999 -220.343)"/><path class="r" d="M138.444,224.315c-5-2.56-11.609-3.972-18.621-3.972s-13.621,1.412-18.615,3.972C95.914,227.027,93,230.749,93,234.783s2.915,7.75,8.209,10.464c4.994,2.566,11.609,3.978,18.615,3.978s13.619-1.412,18.621-3.978c5.287-2.714,8.2-6.428,8.2-10.464S143.731,227.027,138.444,224.315Z" transform="translate(-92.999 -220.343)"/></g><g transform="translate(0 0)"><path class="g" d="M151.2,222.013c-7.374-4.257-17.219-6.608-27.715-6.608s-20.334,2.35-27.706,6.608c-7.074,4.084-10.963,9.4-10.963,14.983s3.89,10.9,10.963,14.985c7.372,4.249,17.209,6.6,27.706,6.6s20.341-2.35,27.715-6.6c7.064-4.084,10.962-9.405,10.962-14.985S158.267,226.1,151.2,222.013Zm-9.094,25.447c-5,2.566-11.609,3.978-18.621,3.978s-13.621-1.412-18.615-3.978c-5.294-2.714-8.209-6.428-8.209-10.464s2.915-7.756,8.209-10.468c4.994-2.56,11.609-3.972,18.615-3.972s13.619,1.412,18.621,3.972c5.287,2.712,8.2,6.434,8.2,10.468S147.4,244.746,142.109,247.46Z" transform="translate(-84.819 -215.405)"/><path class="s" d="M151.2,222.013c-7.374-4.257-17.219-6.608-27.715-6.608s-20.334,2.35-27.706,6.608c-7.074,4.084-10.963,9.4-10.963,14.983s3.89,10.9,10.963,14.985c7.372,4.249,17.209,6.6,27.706,6.6s20.341-2.35,27.715-6.6c7.064-4.084,10.962-9.405,10.962-14.985S158.267,226.1,151.2,222.013Zm-9.094,25.447c-5,2.566-11.609,3.978-18.621,3.978s-13.621-1.412-18.615-3.978c-5.294-2.714-8.209-6.428-8.209-10.464s2.915-7.756,8.209-10.468c4.994-2.56,11.609-3.972,18.615-3.972s13.619,1.412,18.621,3.972c5.287,2.712,8.2,6.434,8.2,10.468S147.4,244.746,142.109,247.46Z" transform="translate(-84.819 -215.405)"/></g></g><g transform="translate(1619.518 490.453)"><ellipse class="t" cx="25.431" cy="13.051" rx="25.431" ry="13.051" transform="translate(0 0)"/><ellipse class="u" cx="25.431" cy="13.051" rx="25.431" ry="13.051" transform="translate(0 0)"/></g><g transform="translate(1619.746 493.91)"><path class="b" d="M137.3,227.511c-9.931-5.1-26.034-5.1-35.964,0-4.107,2.108-6.511,4.757-7.22,7.5.71,2.743,3.113,5.393,7.22,7.5,9.931,5.1,26.034,5.1,35.964,0,4.107-2.107,6.511-4.755,7.222-7.5C143.815,232.268,141.411,229.618,137.3,227.511Z" transform="translate(-94.12 -223.688)"/><path class="q" d="M137.3,227.511c-9.931-5.1-26.034-5.1-35.964,0-4.107,2.108-6.511,4.757-7.22,7.5.71,2.743,3.113,5.393,7.22,7.5,9.931,5.1,26.034,5.1,35.964,0,4.107-2.107,6.511-4.755,7.222-7.5C143.815,232.268,141.411,229.618,137.3,227.511Z" transform="translate(-94.12 -223.688)"/></g><g transform="translate(1629.279 494.473)"><g transform="translate(0 0)"><path class="i" d="M114.31,224.077v3.729l-1.273,1.344-2.354,2.466v-3.88Z" transform="translate(-96.232 -224.077)"/><path class="i" d="M112.955,226.906v3.882H105.6v-4.546S112.4,225.2,112.955,226.906Z" transform="translate(-98.509 -223.249)"/><path class="i" d="M132.034,237.938v3.219l-4.078,2.353-3.018-1.745a15.363,15.363,0,0,1-11.68.527v-3.222l1.854-1.838-1.854.511a11.928,11.928,0,0,1-9.1-1.041c-1.829-1.054-2.677-2.208-2.673-3.4v-3.134l.33-1.37-1.114-.647v-3.222l3.018,1.743c-1.473,1.143-2.255,2.318-2.234,3.459v.036c.032,1.158.889,2.282,2.673,3.312,3.966,2.291,7.9,1.535,11.5.381,3.349-1.093,5.787-2.376,7.718-1.264,1.2.694.834,1.535-.511,2.314a6.693,6.693,0,0,1-5.75.333l-3.855,3.823a13.777,13.777,0,0,0,2.13.626,15.89,15.89,0,0,0,9.55-1.148l3.018,1.743Z" transform="translate(-100.703 -223.694)"/><path class="i" d="M117.438,234.335v3.219l3.02,1.744v-3.219Z" transform="translate(-93.204 -219.481)"/></g><g class="v" transform="translate(0 0)"><path class="i" d="M114.31,224.077v3.729l-1.273,1.344-2.354,2.466v-3.88Z" transform="translate(-96.232 -224.077)"/><path class="i" d="M112.955,226.906v3.882H105.6v-4.546S112.4,225.2,112.955,226.906Z" transform="translate(-98.509 -223.249)"/><path class="i" d="M132.034,237.938v3.219l-4.078,2.353-3.018-1.745a15.363,15.363,0,0,1-11.68.527v-3.222l1.854-1.838-1.854.511a11.928,11.928,0,0,1-9.1-1.041c-1.829-1.054-2.677-2.208-2.673-3.4v-3.134l.33-1.37-1.114-.647v-3.222l3.018,1.743c-1.473,1.143-2.255,2.318-2.234,3.459v.036c.032,1.158.889,2.282,2.673,3.312,3.966,2.291,7.9,1.535,11.5.381,3.349-1.093,5.787-2.376,7.718-1.264,1.2.694.834,1.535-.511,2.314a6.693,6.693,0,0,1-5.75.333l-3.855,3.823a13.777,13.777,0,0,0,2.13.626,15.89,15.89,0,0,0,9.55-1.148l3.018,1.743Z" transform="translate(-100.703 -223.694)"/><path class="i" d="M117.438,234.335v3.219l3.02,1.744v-3.219Z" transform="translate(-93.204 -219.481)"/></g></g><g transform="translate(1629.279 493.34)"><g transform="translate(0 0)"><path class="n" d="M131.352,238.281l-2.334-1.354a3.976,3.976,0,0,0,2.334-3.577,3.015,3.015,0,0,0-.02-.313c-.1-1.112-.92-2.194-2.607-3.164v-.01a10.72,10.72,0,0,0-5.427-1.413c-.151,0-.313.009-.465.009h-.051l-.484.03c-.142.01-.284.02-.426.041-.059.01-.12.01-.171.02a3.072,3.072,0,0,0-.323.041,21.984,21.984,0,0,0-2.638.546c-.414.112-.828.232-1.232.363-.586.182-1.163.374-1.707.556-.223.081-.434.152-.647.223a19.956,19.956,0,0,1-3.617,1.03,3.75,3.75,0,0,1-1.557-.061,3.179,3.179,0,0,1-.727-.3c-.909-.526-1.051-1.324.656-2.314a5.968,5.968,0,0,1,5.245-.546l3.627-3.658a15.537,15.537,0,0,0-10.943.607l-3.021-1.738-4.114,2.373,3.022,1.739c-1.476,1.141-2.263,2.324-2.243,3.465v.03c.041,1.163.889,2.284,2.677,3.315,3.971,2.294,7.9,1.536,11.5.374,3.345-1.092,5.779-2.375,7.71-1.263,1.2.7.838,1.536-.505,2.314a6.639,6.639,0,0,1-5.749.333l-3.861,3.83a14.855,14.855,0,0,0,2.133.626,15.917,15.917,0,0,0,9.549-1.151l3.021,1.748,4.072-2.355Z" transform="translate(-100.703 -223.296)"/><path class="w" d="M131.352,238.281l-2.334-1.354a3.976,3.976,0,0,0,2.334-3.577,3.015,3.015,0,0,0-.02-.313c-.1-1.112-.92-2.194-2.607-3.164v-.01a10.72,10.72,0,0,0-5.427-1.413c-.151,0-.313.009-.465.009h-.051l-.484.03c-.142.01-.284.02-.426.041-.059.01-.12.01-.171.02a3.072,3.072,0,0,0-.323.041,21.984,21.984,0,0,0-2.638.546c-.414.112-.828.232-1.232.363-.586.182-1.163.374-1.707.556-.223.081-.434.152-.647.223a19.956,19.956,0,0,1-3.617,1.03,3.75,3.75,0,0,1-1.557-.061,3.179,3.179,0,0,1-.727-.3c-.909-.526-1.051-1.324.656-2.314a5.968,5.968,0,0,1,5.245-.546l3.627-3.658a15.537,15.537,0,0,0-10.943.607l-3.021-1.738-4.114,2.373,3.022,1.739c-1.476,1.141-2.263,2.324-2.243,3.465v.03c.041,1.163.889,2.284,2.677,3.315,3.971,2.294,7.9,1.536,11.5.374,3.345-1.092,5.779-2.375,7.71-1.263,1.2.7.838,1.536-.505,2.314a6.639,6.639,0,0,1-5.749.333l-3.861,3.83a14.855,14.855,0,0,0,2.133.626,15.917,15.917,0,0,0,9.549-1.151l3.021,1.748,4.072-2.355Z" transform="translate(-100.703 -223.296)"/></g></g></g></svg>