<svg xmlns="http://www.w3.org/2000/svg" width="25.977" height="25.978" viewBox="0 0 25.977 25.978"><defs><style>.a{fill:#2b2b2b;}</style></defs><path class="a" d="M18.817,19.89v2.03a4.064,4.064,0,0,1-4.059,4.059H4.559A4.064,4.064,0,0,1,.5,21.919V4.059A4.064,4.064,0,0,1,4.559,0h10.2a4.064,4.064,0,0,1,4.059,4.059v2.03a1.015,1.015,0,1,1-2.03,0V4.059a2.032,2.032,0,0,0-2.03-2.03H4.559a2.032,2.032,0,0,0-2.03,2.03v17.86a2.032,2.032,0,0,0,2.03,2.03h10.2a2.032,2.032,0,0,0,2.03-2.03V19.89a1.015,1.015,0,1,1,2.03,0Zm6.918-8.644L23.463,8.974a1.015,1.015,0,0,0-1.435,1.435l1.616,1.617H11.459a1.015,1.015,0,0,0,0,2.03H23.644l-1.616,1.616a1.015,1.015,0,1,0,1.435,1.435l2.272-2.272a2.54,2.54,0,0,0,0-3.588Zm0,0" transform="translate(-0.5)"/></svg>