<svg xmlns="http://www.w3.org/2000/svg" xmlns:xlink="http://www.w3.org/1999/xlink" width="323.926" height="410.956" viewBox="0 0 323.926 410.956"><defs><style>.a{fill:#ead2c4;}.b,.c,.d,.j,.l{fill:none;}.b,.d{stroke:#fff;}.b,.c,.d,.l{stroke-miterlimit:10;}.b,.c{stroke-width:3.411px;}.c{stroke:#75271f;}.d,.l{stroke-linecap:round;}.d{stroke-width:1.137px;stroke-dasharray:1;}.e,.g{fill:#fff;}.e{font-size:87.497px;font-family:SegoeUI, Segoe UI;}.f{fill:#2b2b2b;}.g,.i{font-size:127.806px;font-family:BebasNeueBold, Bebas Neue;}.h{letter-spacing:0.04em;}.i{fill:#fb6c56;}.k{fill:#bab1b1;}.l{stroke:#2b2b2b;stroke-width:1.15px;}.m{fill:#2c0e72;}.n{filter:url(#c);}.o{filter:url(#a);}</style><filter id="a" x="19.768" y="127.123" width="278.052" height="124.052" filterUnits="userSpaceOnUse"><feOffset dx="4.601" dy="4.601" input="SourceAlpha"/><feGaussianBlur stdDeviation="1.15" result="b"/><feFlood flood-opacity="0.302"/><feComposite operator="in" in2="b"/><feComposite in="SourceGraphic"/></filter><filter id="c" x="51.742" y="227.456" width="226.052" height="161.052" filterUnits="userSpaceOnUse"><feOffset dx="4.601" dy="4.601" input="SourceAlpha"/><feGaussianBlur stdDeviation="1.15" result="d"/><feFlood flood-opacity="0.302"/><feComposite operator="in" in2="d"/><feComposite in="SourceGraphic"/></filter></defs><g transform="translate(-245.65 0.575)"><g transform="translate(-1105.645)"><rect class="a" width="320.645" height="320.645" rx="9.657" transform="translate(1353 88.228)"/><path class="b" d="M89.678,372.238V99.335a9.657,9.657,0,0,1,9.657-9.658h272.9" transform="translate(1263.322 -1.45)"/><path class="c" d="M410.193,127.565v272.9a9.657,9.657,0,0,1-9.657,9.657h-272.9" transform="translate(1263.322 -1.45)"/><rect class="d" width="284.274" height="284.274" transform="translate(1370.048 105.275)"/><g class="o" transform="matrix(1, 0, 0, 1, 1351.29, -0.58)"><text class="e" transform="translate(154.77 221.12)"><tspan x="-134.365" y="0">We are</tspan></text></g><rect class="f" width="236.713" height="120.1" transform="translate(1393.681 239.626)"/><text class="g" transform="translate(1510.332 339.606)"><tspan class="h" x="-108.188" y="0">OPE</tspan><tspan y="0">N</tspan></text><g class="n" transform="matrix(1, 0, 0, 1, 1351.29, -0.58)"><text class="i" transform="translate(160.74 342.46)"><tspan class="h" x="-108.188" y="0">OPE</tspan><tspan y="0">N</tspan></text></g><rect class="j" width="320.645" height="320.645" rx="9.657" transform="translate(1353 88.228)"/><rect class="j" width="320.645" height="320.645" rx="9.657" transform="translate(1353 88.228)"/><path class="k" d="M161.758,120.02a10.916,10.916,0,0,0,6.939-2.874,7.349,7.349,0,0,0,2.029-3.159,7.4,7.4,0,0,0,.846-3.781,9.919,9.919,0,0,0-2.875-6.939,10.2,10.2,0,0,0-6.939-2.875,10.929,10.929,0,0,0-6.94,2.875,7.355,7.355,0,0,0-2.029,3.158,7.4,7.4,0,0,0-.845,3.781,9.92,9.92,0,0,0,2.874,6.94,10.2,10.2,0,0,0,6.94,2.874Z" transform="translate(1263.322 -1.45)"/><line class="l" y2="107.302" transform="translate(1425.648)"/><path class="m" d="M161.679,114.624c5.829,0,5.838-9.059,0-9.059s-5.839,9.059,0,9.059Z" transform="translate(1263.322 -1.45)"/><path class="k" d="M342.556,120.02a9.472,9.472,0,0,0,8.968-6.033,7.384,7.384,0,0,0,.846-3.781,9.918,9.918,0,0,0-2.875-6.939,10.2,10.2,0,0,0-6.939-2.875,9.479,9.479,0,0,0-8.969,6.033,7.4,7.4,0,0,0-.845,3.781,9.916,9.916,0,0,0,2.875,6.94,10.2,10.2,0,0,0,6.939,2.874Z" transform="translate(1263.322 -1.45)"/><line class="l" y2="107.302" transform="translate(1606.447)"/><path class="m" d="M342.477,114.624c5.829,0,5.839-9.059,0-9.059s-5.839,9.059,0,9.059Z" transform="translate(1263.322 -1.45)"/></g></g></svg>