<svg xmlns="http://www.w3.org/2000/svg" width="128" height="72" viewBox="0 0 128 72"><defs><style>.a{fill:#fff;}</style></defs><g transform="translate(-1104 -912)"><rect class="a" width="128" height="72" rx="12" transform="translate(1104 912)"/><g transform="translate(1151 928)"><g transform="translate(0)"><path d="M66.607,3.035C64.732.91,61.338,0,57,0H44.4a1.8,1.8,0,0,0-1.782,1.508L37.366,34.521a1.076,1.076,0,0,0,1.068,1.239h7.779l1.953-12.294-.06.387a1.8,1.8,0,0,1,1.777-1.508h3.7c7.263,0,12.948-2.926,14.609-11.391.05-.251.128-.734.128-.734C68.789,7.087,68.314,4.963,66.607,3.035Z" transform="translate(-37.352 0)"/></g><g transform="translate(10.439 11.824)"><path d="M192.719,150.5c-1.805,8.334-7.565,12.744-16.706,12.744H172.7L170.225,178.9H175.6a1.574,1.574,0,0,0,1.559-1.322l.063-.332,1.237-7.771.08-.427a1.573,1.573,0,0,1,1.556-1.322h.983c6.353,0,11.326-2.559,12.779-9.963C194.441,154.788,194.159,152.3,192.719,150.5Z" transform="translate(-170.225 -150.496)"/></g></g></g></svg>