<svg xmlns="http://www.w3.org/2000/svg" width="27.998" height="27.998" viewBox="0 0 27.998 27.998"><defs><style>.a{fill:#b9b9b9;}</style></defs><g transform="translate(-0.001)"><g transform="translate(0.001)"><path class="a" d="M14,0A14,14,0,1,0,28,14,14,14,0,0,0,14,0Zm6.655,10.074-1.33,1.33L16.618,8.7,15.591,9.724,18.3,12.431l-6.639,6.638L8.953,16.363,7.926,17.39,10.633,20.1l-.662.662-.013-.013a.524.524,0,0,1-.334.24L7.1,21.548a.525.525,0,0,1-.626-.627L7.037,18.4a.526.526,0,0,1,.241-.334l-.013-.013L17.948,7.367a.4.4,0,0,1,.568,0l2.139,2.139A.4.4,0,0,1,20.654,10.074Z" transform="translate(-0.001)"/></g></g></svg>