<svg xmlns="http://www.w3.org/2000/svg" width="220.002" height="43.001" viewBox="0 0 220.002 43.001"><defs><style>.a{fill:#e9e9e9;}.b{fill:#2b2b2b;}</style></defs><g transform="translate(-140 -58.273)"><path class="a" d="M57.052,171.506h0a21.5,21.5,0,0,1-21.5-21.5h0a21.5,21.5,0,0,1,21.5-21.5h0a21.5,21.5,0,0,1,21.5,21.5h0A21.5,21.5,0,0,1,57.052,171.506Z" transform="translate(104.448 -70.231)"/><path class="b" d="M44.444,155.8a13.368,13.368,0,0,0,20.565-11.871,9.527,9.527,0,0,0,2.344-2.434,9.373,9.373,0,0,1-2.7.74,4.707,4.707,0,0,0,2.066-2.6,9.429,9.429,0,0,1-2.984,1.141,4.7,4.7,0,0,0-8.01,4.288,13.339,13.339,0,0,1-9.688-4.911,4.706,4.706,0,0,0,1.454,6.276,4.685,4.685,0,0,1-2.13-.589,4.707,4.707,0,0,0,3.77,4.669,4.7,4.7,0,0,1-2.122.079,4.7,4.7,0,0,0,4.39,3.265A9.451,9.451,0,0,1,44.444,155.8Z" transform="translate(105.602 -68.832)"/><path class="a" d="M19.031,0h4.938A19.03,19.03,0,0,1,43,19.03v4.94A19.03,19.03,0,0,1,23.969,43H19.03A19.03,19.03,0,0,1,0,23.971v-4.94A19.031,19.031,0,0,1,19.031,0Z" transform="translate(229.001 58.273)"/><path class="b" d="M162.835,162.025h5.233V148.918h3.652l.389-4.388h-4.041v-2.5c0-1.035.208-1.444,1.209-1.444h2.832v-4.554h-3.624c-3.894,0-5.65,1.715-5.65,5v3.5h-2.723v4.443h2.723Z" transform="translate(84.39 -69.256)"/><path class="a" d="M223.625,171.506h0a21.5,21.5,0,0,1-21.5-21.5h0a21.5,21.5,0,0,1,21.5-21.5h0a21.5,21.5,0,0,1,21.5,21.5h0A21.5,21.5,0,0,1,223.625,171.506Z" transform="translate(114.877 -70.231)"/><path class="b" d="M222.51,139.225c3.147,0,3.52.012,4.764.069a6.531,6.531,0,0,1,2.188.407,3.9,3.9,0,0,1,2.237,2.237,6.532,6.532,0,0,1,.407,2.188c.057,1.244.069,1.617.069,4.764s-.012,3.52-.069,4.763a6.535,6.535,0,0,1-.407,2.19,3.9,3.9,0,0,1-2.237,2.237,6.509,6.509,0,0,1-2.188.406c-1.244.056-1.616.069-4.764.069s-3.52-.012-4.763-.069a6.518,6.518,0,0,1-2.189-.406,3.905,3.905,0,0,1-2.237-2.237,6.514,6.514,0,0,1-.406-2.19c-.056-1.243-.069-1.616-.069-4.763s.012-3.52.069-4.764a6.511,6.511,0,0,1,.406-2.188,3.9,3.9,0,0,1,2.237-2.237,6.54,6.54,0,0,1,2.189-.407c1.243-.056,1.616-.069,4.763-.069m0-2.124c-3.2,0-3.6.015-4.86.071a8.666,8.666,0,0,0-2.862.548,6.029,6.029,0,0,0-3.447,3.448,8.633,8.633,0,0,0-.548,2.862c-.058,1.257-.071,1.658-.071,4.86s.014,3.6.071,4.86a8.633,8.633,0,0,0,.548,2.862,6.028,6.028,0,0,0,3.447,3.448,8.7,8.7,0,0,0,2.862.548c1.257.057,1.658.07,4.86.07s3.6-.014,4.86-.07a8.689,8.689,0,0,0,2.862-.548,6.035,6.035,0,0,0,3.448-3.448,8.663,8.663,0,0,0,.548-2.862c.058-1.257.071-1.659.071-4.86s-.014-3.6-.071-4.86a8.664,8.664,0,0,0-.548-2.862,6.035,6.035,0,0,0-3.448-3.448,8.66,8.66,0,0,0-2.862-.548c-1.257-.057-1.658-.071-4.86-.071" transform="translate(115.992 -69.116)"/><path class="b" d="M221.851,142.178a6.053,6.053,0,1,0,6.053,6.053,6.054,6.054,0,0,0-6.053-6.053m0,9.983a3.929,3.929,0,1,1,3.929-3.929,3.929,3.929,0,0,1-3.929,3.929" transform="translate(116.651 -68.458)"/><path class="b" d="M228.3,142.128a1.414,1.414,0,1,1-1.415-1.414,1.415,1.415,0,0,1,1.415,1.414" transform="translate(117.906 -68.647)"/></g></svg>