<svg xmlns="http://www.w3.org/2000/svg" width="128" height="72" viewBox="0 0 128 72"><defs><style>.a{fill:#fff;}.b{fill:#f0efeb;}.c{fill:#191b73;}</style></defs><g transform="translate(-11413 -21970)"><rect class="a" width="128" height="72" rx="12" transform="translate(11413 21970)"/><g transform="translate(11453 21982)"><path class="b" d="M48.651,24.325a24.377,24.377,0,0,1-.225,3.317,24.041,24.041,0,0,1-1.117,4.67A24.332,24.332,0,0,1,.95,17.572q.182-.633.4-1.251a24.33,24.33,0,0,1,47.3,8Z"/><g transform="translate(0.95 16.318)"><path class="c" d="M174.381,187.715h4.105l2.567-15.983h-4.1Z" transform="translate(-158.761 -171.732)"/><path class="c" d="M26.533,171.733,20.079,187.7H15.735l-3.168-11.819a4.311,4.311,0,0,0-2.311-2.776c-.084-.041-.17-.08-.255-.118q.182-.633.4-1.251h3.308a2.683,2.683,0,0,1,2.671,2.058l1.386,6.777c0-.014-.012-.029-.017-.043l.422,2.063,4.022-10.859v0Z" transform="translate(-10 -171.731)"/><path class="c" d="M376.236,172.251H373.06a2.035,2.035,0,0,0-2.147,1.286l-6.1,14.648h4.308l1.187-3.171h4.82l.616,3.183h1.713a24.04,24.04,0,0,0,1.117-4.67Zm-4.731,9.561c.085,0,1.654-5.176,1.654-5.176l1.25,5.176Z" transform="translate(-331.101 -172.202)"/><path class="c" d="M252.891,178.441c-1.435-.708-2.314-1.187-2.314-1.911.018-.659.744-1.334,2.365-1.334a7.145,7.145,0,0,1,3.058.592l.372.166.558-3.344a10.36,10.36,0,0,0-3.685-.659c-4.054,0-6.908,2.108-6.926,5.122-.033,2.225,2.044,3.459,3.6,4.2,1.588.76,2.129,1.252,2.129,1.927-.018,1.036-1.284,1.514-2.466,1.514a8.348,8.348,0,0,1-3.852-.824l-.541-.246-.574,3.475a12.822,12.822,0,0,0,4.578.825c4.308,0,7.112-2.076,7.147-5.288C256.354,180.895,255.258,179.545,252.891,178.441Z" transform="translate(-222.321 -171.931)"/></g></g></g></svg>