<svg id="Layer_1" enable-background="new 0 0 512 512" height="512" viewBox="0 0 512 512" width="512" xmlns="http://www.w3.org/2000/svg"><g><path d="m512 213.5v160.56c0 29.5-23.933 53.5-53.352 53.5h-11.682l-45.968 54.1c-1.429 1.68-3.517 2.65-5.716 2.65s-4.287-.97-5.706-2.65l-45.968-54.1h-90.047c-29.409 0-53.342-24-53.342-53.5v-206.56c0-4.14 3.358-7.5 7.495-7.5h250.934c29.419 0 53.352 24 53.352 53.5z" fill="#09eaa3"/><g><path d="m512 213.5v160.56c0 29.5-23.933 53.5-53.352 53.5h-9.723c24.523-4.81 43.09-26.52 43.09-52.5v-161.56c0-29.5-23.933-53.5-53.352-53.5h19.986c29.418 0 53.351 24 53.351 53.5z" fill="#14bb87"/></g><g><path d="m411.711 143.5v154.56c0 29.5-23.933 53.5-53.343 53.5h-189.976l-45.968 54.1c-1.419 1.68-3.508 2.65-5.706 2.65s-4.287-.97-5.716-2.65l-45.968-54.1h-11.681c-29.419 0-53.353-24-53.353-53.5v-154.56c0-29.5 23.933-53.5 53.353-53.5h305.016c29.408 0 53.342 24 53.342 53.5z" fill="#d9f0f4"/><path d="m411.711 143.5v154.56c0 29.5-23.933 53.5-53.343 53.5h-19.986c29.409 0 53.343-24 53.343-53.5v-154.56c0-29.5-23.933-53.5-53.343-53.5h19.986c29.409 0 53.343 24 53.343 53.5z" fill="#bae1e5"/><g fill="#56788b"><ellipse cx="169.739" cy="220.771" rx="22.484" ry="22.5"/><ellipse cx="96.652" cy="220.771" rx="22.484" ry="22.5"/><ellipse cx="242.826" cy="220.771" rx="22.484" ry="22.5"/><ellipse cx="315.913" cy="220.771" rx="22.484" ry="22.5"/></g></g><path d="m253.612 479.66c0 17.83-14.48 32.34-32.277 32.34h-189.058c-17.797 0-32.277-14.51-32.277-32.34s14.48-32.33 32.277-32.33h2.808l16.868-23.3c1.409-1.95 3.667-3.11 6.066-3.11 2.408 0 4.667 1.16 6.076 3.11l16.868 23.3h140.371c17.798 0 32.278 14.5 32.278 32.33z" fill="#4dd4f7"/><path d="m512 32.34c0 17.83-14.48 32.33-32.277 32.33h-19.986l-16.868 23.3c-1.409 1.95-3.667 3.11-6.066 3.11-2.408 0-4.667-1.16-6.076-3.11l-16.858-23.3h-123.203c-17.797 0-32.277-14.5-32.277-32.33s14.48-32.34 32.277-32.34h189.057c17.797 0 32.277 14.51 32.277 32.34z" fill="#fbdf63"/><path d="m512 32.34c0 17.83-14.48 32.33-32.277 32.33h-19.986c17.797 0 32.277-14.5 32.277-32.33s-14.48-32.34-32.277-32.34h19.986c17.797 0 32.277 14.51 32.277 32.34z" fill="#ffa402"/><path d="m253.612 479.66c0 17.83-14.48 32.34-32.277 32.34h-19.986c17.797 0 32.277-14.51 32.277-32.34s-14.48-32.33-32.277-32.33h19.986c17.797 0 32.277 14.5 32.277 32.33z" fill="#00c2f3"/></g></svg>