<svg id="Layer_1" enable-background="new 0 0 512 512" height="512" viewBox="0 0 512 512" width="512" xmlns="http://www.w3.org/2000/svg"><g><g><path d="m481.88 53.54v404.92c0 29.52-23.95 53.54-53.39 53.54h-345.23c-29.44 0-53.38-24.02-53.38-53.54v-404.92c0-29.52 23.94-53.54 53.38-53.54h345.23c29.44 0 53.39 24.02 53.39 53.54z" fill="#09eaa3"/><path d="m481.88 53.54v404.92c0 29.52-23.95 53.54-53.39 53.54h-20c29.44 0 53.39-24.02 53.39-53.54v-404.92c0-29.52-23.95-53.54-53.39-53.54h20c29.44 0 53.39 24.02 53.39 53.54z" fill="#14bb87"/><path d="m451.95 83.32v376.38c0 13.11-10.63 23.77-23.71 23.77h-344.72c-13.08 0-23.72-10.66-23.72-23.77v-376.38c0-13.1 10.64-23.77 23.72-23.77h344.72c13.08 0 23.71 10.67 23.71 23.77z" fill="#d9f0f4"/><path d="m451.95 83.32v376.38c0 13.11-10.63 23.77-23.71 23.77h-20c13.08 0 23.71-10.66 23.71-23.77v-376.38c0-13.1-10.63-23.77-23.71-23.77h20c13.08 0 23.71 10.67 23.71 23.77z" fill="#bae1e5"/><g fill="#14bb87"><path d="m123.252 22.332h-30.639c-4.142 0-7.5 3.358-7.5 7.5s3.358 7.5 7.5 7.5h30.639c4.142 0 7.5-3.358 7.5-7.5s-3.358-7.5-7.5-7.5z"/><path d="m183.252 22.332h-30.639c-4.142 0-7.5 3.358-7.5 7.5s3.358 7.5 7.5 7.5h30.639c4.142 0 7.5-3.358 7.5-7.5s-3.358-7.5-7.5-7.5z"/></g><g fill="#90abbd"><path d="m112.302 403.542h32.143c4.142 0 7.5-3.358 7.5-7.5s-3.358-7.5-7.5-7.5h-32.143c-4.142 0-7.5 3.358-7.5 7.5s3.358 7.5 7.5 7.5z"/><path d="m164.415 423.574h-52.113c-4.142 0-7.5 3.358-7.5 7.5s3.358 7.5 7.5 7.5h52.113c4.142 0 7.5-3.358 7.5-7.5s-3.358-7.5-7.5-7.5z"/><path d="m399.396 139.539h-32.143c-4.142 0-7.5 3.358-7.5 7.5s3.358 7.5 7.5 7.5h32.143c4.142 0 7.5-3.358 7.5-7.5s-3.358-7.5-7.5-7.5z"/><path d="m406.896 112.007c0-4.142-3.358-7.5-7.5-7.5h-52.113c-4.142 0-7.5 3.358-7.5 7.5s3.358 7.5 7.5 7.5h52.113c4.142 0 7.5-3.358 7.5-7.5z"/></g><path d="m151.75 128.54v75.68c0 12.65-10.27 22.94-22.9 22.94h-77.26l-39.54 30.12c-1.33 1.01-2.93 1.53-4.55 1.53-1.13 0-2.27-.26-3.33-.78-2.55-1.27-4.17-3.87-4.17-6.72v-122.77c0-12.65 10.28-22.95 22.91-22.95h105.94c12.63 0 22.9 10.3 22.9 22.95z" fill="#4dd4f7"/><g fill="#fff"><path d="m107.819 141.297h-62.881c-4.142 0-7.5 3.358-7.5 7.5s3.358 7.5 7.5 7.5h62.881c4.142 0 7.5-3.358 7.5-7.5s-3.357-7.5-7.5-7.5z"/><path d="m97.834 175.328h-52.896c-4.142 0-7.5 3.358-7.5 7.5s3.358 7.5 7.5 7.5h52.896c4.142 0 7.5-3.358 7.5-7.5s-3.358-7.5-7.5-7.5z"/></g><path d="m512 386.84c0 17.84-14.49 32.36-32.29 32.36h-60.48l-16.87 23.32c-1.41 1.95-3.67 3.11-6.08 3.11s-4.67-1.16-6.08-3.11l-16.87-23.32h-2.81c-17.81 0-32.3-14.52-32.3-32.36s14.49-32.36 32.3-32.36h109.19c17.8 0 32.29 14.52 32.29 32.36z" fill="#fbdf63"/><path d="m512 386.84c0 17.84-14.49 32.36-32.29 32.36h-20c17.8 0 32.29-14.52 32.29-32.36s-14.49-32.36-32.29-32.36h20c17.8 0 32.29 14.52 32.29 32.36z" fill="#ffa402"/><path d="m151.75 128.54v75.68c0 12.65-10.27 22.94-22.9 22.94h-20c12.63 0 22.9-10.29 22.9-22.94v-75.68c0-12.65-10.27-22.95-22.9-22.95h20c12.63 0 22.9 10.3 22.9 22.95z" fill="#00c2f3"/></g><path d="m333.916 282.103-76.012-38.333-75.943 41.666c-.28 2.486-6.525 61.276 23.13 94.462 12.954 14.497 30.605 21.847 52.464 21.847 21.587 0 39.125-7.322 52.124-21.763 30.577-33.966 24.51-95.286 24.237-97.879z" fill="#fdd9b4"/><path d="m351.374 275.42c-4.42 9.65-13.21 14.97-24.74 14.97-25.08 0-39.87-13.79-46.78-22.63-27.73 19.07-53.2 29.05-73.74 29.05-5.16 0-10.01-.63-14.51-1.9-12.49-3.54-21.79-11.99-26.89-24.44-9.8-23.93 3.11-56.18 30.03-75.01 14.9-10.42 32.1-15.25 49.74-13.99 19.33 1.39 38.16 9.9 56.02 25.3 14.22-2.59 28.21 2.81 38.92 15.2 13.57 15.69 18.7 38.67 11.95 53.45z" fill="#56788b"/><path d="m277.819 340.105c-3.48-2.246-8.122-1.246-10.368 2.235-2.107 3.265-5.676 5.214-9.547 5.214s-7.44-1.949-9.547-5.214c-2.246-3.481-6.889-4.481-10.368-2.235-3.48 2.246-4.481 6.888-2.235 10.368 4.882 7.565 13.162 12.082 22.15 12.082s17.269-4.517 22.15-12.082c2.247-3.479 1.246-8.121-2.235-10.368z" fill="#fab684"/><path d="m351.374 275.42c-4.42 9.65-13.21 14.97-24.74 14.97-25.08 0-39.87-13.79-46.78-22.63-26.45-45.56 20.65-60.99 20.65-60.99 14.22-2.59 28.21 2.81 38.92 15.2 13.57 15.69 18.7 38.67 11.95 53.45z" fill="#415e6f"/></g></svg>