<svg id="Layer_1" enable-background="new 0 0 512 512" height="512" viewBox="0 0 512 512" width="512" xmlns="http://www.w3.org/2000/svg"><g><g><g><path d="m423.206 53.5v405c0 29.5-23.974 53.5-53.438 53.5h-227.706c-29.465 0-53.438-24-53.438-53.5v-405c0-29.5 23.974-53.5 53.438-53.5h227.706c29.464 0 53.438 24 53.438 53.5z" fill="#56788b"/><path d="m423.206 53.5v405c0 29.5-23.974 53.5-53.438 53.5h-20.003c29.465 0 53.438-24 53.438-53.5v-405c0-29.5-23.974-53.5-53.438-53.5h20.003c29.464 0 53.438 24 53.438 53.5z" fill="#415e6f"/><path d="m393.241 52.26v407.48c0 13.1-10.642 23.76-23.734 23.76h-227.185c-13.092 0-23.734-10.66-23.734-23.76v-407.48c0-13.1 10.642-23.76 23.734-23.76h23.714c3.251 0 6.141 2.1 7.141 5.2l5.871 18.23c1.46 4.53 5.621 7.57 10.372 7.57h132.99c4.741 0 8.911-3.04 10.372-7.57l5.871-18.23c1-3.1 3.881-5.2 7.141-5.2h23.714c13.092 0 23.733 10.66 23.733 23.76z" fill="#d9f0f4"/><path d="m393.241 52.26v407.48c0 13.1-10.642 23.76-23.734 23.76h-20.003c13.092 0 23.734-10.66 23.734-23.76v-407.48c0-13.1-10.642-23.76-23.734-23.76h20.003c13.093 0 23.734 10.66 23.734 23.76z" fill="#bae1e5"/><path d="m296.536 21.985h-81.244c-4.143 0-7.501 3.358-7.501 7.5s3.358 7.5 7.501 7.5h81.244c4.143 0 7.501-3.358 7.501-7.5s-3.359-7.5-7.501-7.5z" fill="#415e6f"/><path d="m296.536 434.722h-81.244c-4.143 0-7.501 3.358-7.501 7.5s3.358 7.5 7.501 7.5h81.244c4.143 0 7.501-3.358 7.501-7.5s-3.359-7.5-7.501-7.5z" fill="#56788b"/><path d="m171.777 120.7v75.62c0 12.64-10.282 22.93-22.914 22.93h-97.275l-39.546 30.08c-1.33 1.02-2.931 1.53-4.541 1.53-1.14 0-2.28-.25-3.33-.78-2.551-1.26-4.171-3.87-4.171-6.72v-122.66c0-12.64 10.282-22.93 22.914-22.93h125.95c12.631 0 22.913 10.29 22.913 22.93z" fill="#4dd4f7"/><path d="m171.777 120.7v75.62c0 12.64-10.282 22.93-22.914 22.93h-20.003c12.632 0 22.914-10.29 22.914-22.93v-75.62c0-12.64-10.282-22.93-22.914-22.93h20.003c12.632 0 22.914 10.29 22.914 22.93z" fill="#00c2f3"/><g fill="#fff"><path d="m125.835 133.444h-79.894c-4.143 0-7.501 3.358-7.501 7.5s3.358 7.5 7.501 7.5h79.894c4.143 0 7.501-3.358 7.501-7.5s-3.358-7.5-7.501-7.5z"/><path d="m115.849 167.444h-69.908c-4.143 0-7.501 3.358-7.501 7.5s3.358 7.5 7.501 7.5h69.907c4.143 0 7.501-3.358 7.501-7.5s-3.358-7.5-7.5-7.5z"/></g></g></g><path d="m512 216.99v153.33c0 2.43-1.18 4.72-3.17 6.12-1.28.91-2.801 1.38-4.331 1.38-.84 0-1.68-.14-2.5-.43l-10.752-3.8-74.141-26.2c-3-1.06-5.001-3.89-5.001-7.07v-93.33c0-3.18 2-6.01 5.001-7.07l74.141-26.2 10.752-3.8c2.3-.81 4.841-.46 6.831.95 1.99 1.4 3.17 3.68 3.17 6.12z" fill="#ff6b81"/><path d="m512 216.99v153.33c0 2.43-1.18 4.72-3.17 6.12-1.28.91-2.801 1.38-4.331 1.38-.84 0-1.68-.14-2.5-.43l-10.752-3.8c.48-1 .75-2.12.75-3.27v-153.33c0-1.15-.27-2.27-.75-3.27l10.752-3.8c2.3-.81 4.841-.46 6.831.95 1.99 1.4 3.17 3.68 3.17 6.12z" fill="#ed2061"/><path d="m427.107 212.17v162.97c0 12.51-10.172 22.68-22.684 22.68h-182.998c-12.512 0-22.684-10.17-22.684-22.68v-162.97c0-12.51 10.172-22.68 22.684-22.68h182.999c12.511 0 22.683 10.17 22.683 22.68z" fill="#fbdf63"/><path d="m427.107 212.17v162.97c0 12.51-10.172 22.68-22.684 22.68h-20.003c12.532 0 22.684-10.15 22.684-22.68v-162.97c0-12.53-10.152-22.68-22.684-22.68h20.003c12.512 0 22.684 10.17 22.684 22.68z" fill="#ffa402"/><path d="m353.17 289.37-63.685-38.314c-1.545-.929-3.469-.956-5.04-.068-1.57.887-2.539 2.55-2.539 4.353v76.629c0 1.803.97 3.465 2.539 4.353.765.432 1.614.647 2.461.647.894 0 1.785-.239 2.579-.716l63.685-38.315c1.503-.904 2.422-2.53 2.422-4.284s-.918-3.381-2.422-4.285z" fill="#fff"/><g fill="#90abbd"><path d="m341.717 138.395h-32.183c-4.143 0-7.501 3.358-7.501 7.5s3.358 7.5 7.501 7.5h32.183c4.143 0 7.501-3.358 7.501-7.5s-3.357-7.5-7.501-7.5z"/><path d="m349.219 110.895c0-4.142-3.358-7.5-7.501-7.5h-52.178c-4.143 0-7.501 3.358-7.501 7.5s3.358 7.5 7.501 7.5h52.178c4.143 0 7.501-3.358 7.501-7.5z"/></g></g></svg>