<svg id="Layer_1" enable-background="new 0 0 512 512" height="512" viewBox="0 0 512 512" width="512" xmlns="http://www.w3.org/2000/svg"><g><g><g><g><path d="m422.978 53.5v405c0 29.5-23.961 53.5-53.41 53.5h-227.582c-29.449 0-53.41-24-53.41-53.5v-405c0-29.5 23.961-53.5 53.41-53.5h227.583c29.448 0 53.409 24 53.409 53.5z" fill="#56788b"/><path d="m422.978 53.5v405c0 29.5-23.961 53.5-53.41 53.5h-19.992c29.449 0 53.41-24 53.41-53.5v-405c0-29.5-23.961-53.5-53.41-53.5h19.992c29.449 0 53.41 24 53.41 53.5z" fill="#415e6f"/><path d="m393.029 52.26v407.48c0 13.1-10.636 23.76-23.721 23.76h-227.063c-13.085 0-23.721-10.66-23.721-23.76v-407.48c0-13.1 10.636-23.76 23.721-23.76h23.701c3.249 0 6.138 2.1 7.137 5.2l5.868 18.23c1.459 4.53 5.618 7.57 10.366 7.57h132.919c4.738 0 8.907-3.04 10.366-7.57l5.868-18.23c1-3.1 3.879-5.2 7.137-5.2h23.701c13.085 0 23.721 10.66 23.721 23.76z" fill="#d9f0f4"/><path d="m393.029 52.26v407.48c0 13.1-10.636 23.76-23.721 23.76h-19.992c13.085 0 23.721-10.66 23.721-23.76v-407.48c0-13.1-10.636-23.76-23.721-23.76h19.992c13.085 0 23.721 10.66 23.721 23.76z" fill="#bae1e5"/><path d="m296.376 21.985h-81.2c-4.141 0-7.497 3.358-7.497 7.5s3.357 7.5 7.497 7.5h81.2c4.141 0 7.497-3.358 7.497-7.5s-3.357-7.5-7.497-7.5z" fill="#415e6f"/><path d="m296.376 434.722h-81.2c-4.141 0-7.497 3.358-7.497 7.5s3.357 7.5 7.497 7.5h81.2c4.141 0 7.497-3.358 7.497-7.5s-3.357-7.5-7.497-7.5z" fill="#56788b"/><path d="m171.684 120.7v75.62c0 12.64-10.276 22.93-22.901 22.93h-97.223l-39.525 30.08c-1.33 1.02-2.929 1.53-4.538 1.53-1.14 0-2.279-.25-3.329-.78-2.549-1.26-4.168-3.87-4.168-6.72v-122.66c0-12.64 10.276-22.93 22.901-22.93h125.882c12.625 0 22.901 10.29 22.901 22.93z" fill="#4dd4f7"/><path d="m171.684 120.7v75.62c0 12.64-10.276 22.93-22.901 22.93h-19.992c12.625 0 22.901-10.29 22.901-22.93v-75.62c0-12.64-10.276-22.93-22.901-22.93h19.992c12.625 0 22.901 10.29 22.901 22.93z" fill="#00c2f3"/><g fill="#fff"><path d="m125.767 133.444h-79.851c-4.141 0-7.497 3.358-7.497 7.5s3.357 7.5 7.497 7.5h79.851c4.141 0 7.497-3.358 7.497-7.5s-3.356-7.5-7.497-7.5z"/><path d="m115.786 167.444h-69.87c-4.141 0-7.497 3.358-7.497 7.5s3.357 7.5 7.497 7.5h69.87c4.141 0 7.497-3.358 7.497-7.5s-3.356-7.5-7.497-7.5z"/></g></g></g></g><path d="m512 127.865v216.86c0 12.57-10.235 22.8-22.808 22.8h-179.783l-28.315 35.66c-1.419 1.79-3.588 2.83-5.867 2.83-2.289 0-4.448-1.04-5.867-2.83l-28.325-35.66h-25.865c-12.573 0-22.798-10.23-22.798-22.8v-216.86c0-12.57 10.225-22.79 22.798-22.79h274.022c12.573 0 22.808 10.22 22.808 22.79z" fill="#fbdf63"/><g fill="#fff"><path d="m255.152 176.515h194.887c4.14 0 7.496-3.358 7.496-7.5s-3.356-7.5-7.496-7.5h-194.887c-4.14 0-7.496 3.358-7.496 7.5s3.355 7.5 7.496 7.5z"/><path d="m255.152 210.515h164.904c4.14 0 7.496-3.358 7.496-7.5s-3.356-7.5-7.496-7.5h-164.904c-4.14 0-7.496 3.358-7.496 7.5s3.355 7.5 7.496 7.5z"/><path d="m420.056 297.515h-34.004c-4.14 0-7.496 3.358-7.496 7.5s3.356 7.5 7.496 7.5h34.004c4.14 0 7.496-3.358 7.496-7.5s-3.356-7.5-7.496-7.5z"/><path d="m351.141 297.515h-95.989c-4.14 0-7.496 3.358-7.496 7.5s3.356 7.5 7.496 7.5h95.989c4.14 0 7.496-3.358 7.496-7.5s-3.356-7.5-7.496-7.5z"/><path d="m450.039 229.515h-120.465c-4.14 0-7.496 3.358-7.496 7.5s3.356 7.5 7.496 7.5h120.464c4.14 0 7.496-3.358 7.496-7.5s-3.355-7.5-7.495-7.5z"/><path d="m255.152 244.515h38.036c4.14 0 7.496-3.358 7.496-7.5s-3.356-7.5-7.496-7.5h-38.036c-4.14 0-7.496 3.358-7.496 7.5s3.355 7.5 7.496 7.5z"/><path d="m450.039 263.515h-194.887c-4.14 0-7.496 3.358-7.496 7.5s3.356 7.5 7.496 7.5h194.887c4.14 0 7.496-3.358 7.496-7.5s-3.356-7.5-7.496-7.5z"/></g><path d="m512 127.865v216.86c0 12.57-10.235 22.8-22.808 22.8h-19.989c12.573 0 22.808-10.23 22.808-22.8v-216.86c0-12.57-10.235-22.79-22.808-22.79h19.989c12.573 0 22.808 10.22 22.808 22.79z" fill="#ffa402"/></g></svg>