<svg id="Layer_1" enable-background="new 0 0 512 512" height="512" viewBox="0 0 512 512" width="512" xmlns="http://www.w3.org/2000/svg"><g><g><g><g><g><path d="m432.508 53.5v405c0 29.5-23.961 53.5-53.41 53.5h-227.582c-29.449 0-53.41-24-53.41-53.5v-405c0-29.5 23.961-53.5 53.41-53.5h227.583c29.448 0 53.409 24 53.409 53.5z" fill="#56788b"/><path d="m432.508 53.5v405c0 29.5-23.961 53.5-53.41 53.5h-19.992c29.449 0 53.41-24 53.41-53.5v-405c0-29.5-23.961-53.5-53.41-53.5h19.992c29.449 0 53.41 24 53.41 53.5z" fill="#415e6f"/><path d="m402.559 52.26v407.48c0 13.1-10.636 23.76-23.721 23.76h-227.063c-13.085 0-23.721-10.66-23.721-23.76v-407.48c0-13.1 10.636-23.76 23.721-23.76h23.701c3.249 0 6.138 2.1 7.137 5.2l5.868 18.23c1.459 4.53 5.618 7.57 10.366 7.57h132.919c4.738 0 8.907-3.04 10.366-7.57l5.868-18.23c1-3.1 3.879-5.2 7.137-5.2h23.701c13.085 0 23.721 10.66 23.721 23.76z" fill="#4dd4f7"/><path d="m402.559 52.26v407.48c0 13.1-10.636 23.76-23.721 23.76h-19.992c13.085 0 23.721-10.66 23.721-23.76v-407.48c0-13.1-10.636-23.76-23.721-23.76h19.992c13.085 0 23.721 10.66 23.721 23.76z" fill="#00c2f3"/><path d="m305.906 21.985h-81.2c-4.141 0-7.497 3.358-7.497 7.5s3.357 7.5 7.497 7.5h81.2c4.141 0 7.497-3.358 7.497-7.5s-3.357-7.5-7.497-7.5z" fill="#415e6f"/><path d="m305.906 434.722h-81.2c-4.141 0-7.497 3.358-7.497 7.5s3.357 7.5 7.497 7.5h81.2c4.141 0 7.497-3.358 7.497-7.5s-3.357-7.5-7.497-7.5z" fill="#56788b"/></g></g></g></g><path d="m292.92 131.97v87.46c0 12.85-10.45 23.31-23.31 23.31h-207.46c-12.85 0-23.3-10.46-23.3-23.31v-87.46c0-12.86 10.45-23.31 23.3-23.31h207.46c12.86 0 23.31 10.45 23.31 23.31z" fill="#ff6b81"/><path d="m292.92 131.97v87.46c0 12.85-10.45 23.31-23.31 23.31h-20c12.86 0 23.31-10.46 23.31-23.31v-87.46c0-12.86-10.45-23.31-23.31-23.31h20c12.86 0 23.31 10.45 23.31 23.31z" fill="#ed2061"/><g fill="#fff"><path d="m106.365 198.354h-22.5v-52.5c0-4.142-3.358-7.5-7.5-7.5s-7.5 3.358-7.5 7.5v60c0 4.142 3.358 7.5 7.5 7.5h30c4.142 0 7.5-3.358 7.5-7.5s-3.357-7.5-7.5-7.5z"/><path d="m135.365 138.354c-4.142 0-7.5 3.358-7.5 7.5v60c0 4.142 3.358 7.5 7.5 7.5s7.5-3.358 7.5-7.5v-60c0-4.142-3.357-7.5-7.5-7.5z"/><path d="m197.184 138.578c-4.011-1.005-8.09 1.438-9.095 5.457l-7.724 30.896-7.724-30.896c-1.005-4.019-5.08-6.463-9.095-5.457-4.019 1.004-6.462 5.077-5.457 9.095l15 60c.834 3.339 3.834 5.681 7.276 5.681s6.441-2.342 7.276-5.681l15-60c1.005-4.018-1.438-8.09-5.457-9.095z"/><path d="m255.365 183.354c4.142 0 7.5-3.358 7.5-7.5s-3.358-7.5-7.5-7.5h-22.5v-15h22.5c4.142 0 7.5-3.358 7.5-7.5s-3.358-7.5-7.5-7.5h-30c-4.142 0-7.5 3.358-7.5 7.5v60c0 4.142 3.358 7.5 7.5 7.5h30c4.142 0 7.5-3.358 7.5-7.5s-3.358-7.5-7.5-7.5h-22.5v-15z"/></g><g><path d="m473.15 337.41c-.01 9.34-3.65 18.12-10.26 24.73l-49.42 49.42c-.98.98-2.26 1.47-3.53 1.47-1.28 0-2.56-.49-3.54-1.47l-49.42-49.42c-13.65-13.64-13.66-35.83-.03-49.45 13.62-13.63 35.81-13.62 49.45.03l3.54 3.53 3.53-3.53c4.25-4.26 9.35-7.19 14.75-8.8 11.91-3.53 25.33-.61 34.7 8.77 6.61 6.6 10.24 15.38 10.23 24.72z" fill="#ff6b81"/><path d="m462.92 312.69c6.61 6.6 10.24 15.38 10.23 24.72s-3.65 18.12-10.26 24.73l-49.42 49.42c-.98.98-2.26 1.47-3.53 1.47 43.21-52.9 43.2-66.28 43.21-75.62s-3.62-18.12-10.23-24.72c-4.24-4.25-9.31-7.17-14.7-8.77 11.91-3.53 25.33-.61 34.7 8.77z" fill="#ed2061"/><path d="m473.15 227.9c0 7.14-2.79 13.85-7.84 18.9l-35.82 35.82c-.94.94-2.21 1.47-3.54 1.47-1.32 0-2.59-.53-3.53-1.47l-35.82-35.82c-10.43-10.43-10.44-27.38-.03-37.79 10.42-10.41 27.37-10.41 37.8.02l1.58 1.59 1.59-1.59c2.63-2.62 5.66-4.59 8.91-5.89 9.64-3.88 21.09-1.93 28.88 5.87 5.05 5.04 7.83 11.75 7.82 18.89z" fill="#fbdf63"/><path d="m465.33 209.01c5.05 5.04 7.83 11.75 7.82 18.89 0 7.14-2.79 13.85-7.84 18.9l-35.82 35.82c-.94.94-2.21 1.47-3.54 1.47 29.27-41.44 27.2-49.05 27.2-56.19.01-7.14-2.77-13.85-7.82-18.89-2.61-2.62-5.64-4.58-8.88-5.87 9.64-3.88 21.09-1.93 28.88 5.87z" fill="#ffa402"/></g><g><path d="m211.366 396.282h-23.723v-33.722c0-4.142-3.357-7.5-7.5-7.5s-7.5 3.358-7.5 7.5v41.222c0 4.142 3.357 7.5 7.5 7.5h31.223c4.143 0 7.5-3.358 7.5-7.5s-3.358-7.5-7.5-7.5z" fill="#56788b"/></g><path d="m350.301 100.027h-31.223c-4.143 0-7.5 3.358-7.5 7.5s3.357 7.5 7.5 7.5h23.723v33.722c0 4.142 3.357 7.5 7.5 7.5s7.5-3.358 7.5-7.5v-41.222c0-4.142-3.357-7.5-7.5-7.5z" fill="#56788b"/></g></svg>