<svg id="Layer_1" enable-background="new 0 0 512 512" height="512" viewBox="0 0 512 512" width="512" xmlns="http://www.w3.org/2000/svg"><g><g><path d="m256.03 340.58c-1.97-.34-3.93-.63-5.87-.88h-115.72c-43.5 5.569-96.43 32.904-97.73 167.171-.03 2.8 2.24 5.099 5.04 5.099h301.1c2.8 0 5.07-2.3 5.04-5.099-1.239-128.277-49.61-158.952-91.86-166.291z" fill="#9090fb"/><path d="m347.891 506.871c.03 2.8-2.24 5.099-5.04 5.099h-20c2.8 0 5.07-2.3 5.04-5.099-1.05-108.281-35.68-150.914-71.86-166.291 42.249 7.339 90.62 38.014 91.86 166.291z" fill="#6c5fea"/><path d="m250.161 339.7c-1.73 30.415-26.97 54.551-57.86 54.551s-56.13-24.136-57.86-54.551c10.92-1.39 21.24-1.42 30-1.42h55.72c8.76 0 19.08.031 30 1.42z" fill="#d9f0f4"/><path d="m331.071 298.847h-277.75c-3.41 0-5.81-3.339-4.75-6.589 13.84-42.653 19.86-115.37 19.86-115.37h247.53s6.02 72.717 19.87 115.37c1.05 3.25-1.34 6.589-4.76 6.589z" fill="#f79e60"/><path d="m331.071 298.847h-138.771v-121.959h123.66s6.02 72.717 19.87 115.37c1.051 3.25-1.339 6.589-4.759 6.589z" fill="#d77d41"/><path d="m66.46 151.468 14.935 16.198 161.934-18.345 3.807-112.174c-17.591-46.099-210.96-84.947-180.676 114.321z" fill="#f79e60"/><path d="m313.285 148.718c50.32-81.421-89.183-187.612-86.547-48.969v65.178h72.102z" fill="#d77d41"/><g><g fill="#fab684"><path d="m273.75 190.767h27.337c12.616 0 22.844-10.227 22.844-22.842s-10.228-22.842-22.844-22.842h-19.448z"/><path d="m109.638 190.767h-27.337c-12.616 0-22.844-10.227-22.844-22.842s10.228-22.842 22.844-22.842h19.448z"/></g><path d="m220.159 306.569c-2.331 6.318-3.534 22.524 0 31.703 0 15.387-12.473 27.861-27.859 27.861s-27.859-12.474-27.859-27.861c3.534-9.179 2.331-25.385 0-31.703z" fill="#fab684"/><path d="m285.259 222.255c0 22.116-18.81 48.532-55.93 78.536-2.08 1.69-4.29 3.229-6.59 4.609-9.18 5.499-19.91 8.439-30.64 8.419-13.42.03-26.43-4.579-36.83-13.028-37.11-30.005-55.92-56.42-55.92-78.536 0-2.35.09-4.699.28-7.009.96-9.648.68-53.701.66-82.146v-.03c-.25-9.638 5.15-18.547 13.82-22.796 18.94-8.419 48.55-12.618 78.19-12.598 21.27-.01 42.52 2.14 59.83 6.479 6.81 1.7 13.02 3.739 18.37 6.119 8.66 4.249 14.06 13.158 13.81 22.796v.03c-.02 28.445-.29 72.498.66 82.146.19 2.31.29 4.659.29 7.009z" fill="#fdd9b4"/><path d="m285.259 222.255c0 22.116-18.81 48.532-55.93 78.536-2.08 1.69-4.29 3.229-6.59 4.609 28.24-25.346 42.52-47.882 42.52-67.148 0-2.35-.1-4.699-.29-7.009-.95-9.648-.68-69.698-.66-98.143v-7.029c.23-9.018-4.48-17.397-12.18-21.916 6.81 1.7 13.02 3.739 18.37 6.119 8.66 4.249 14.06 13.158 13.81 22.796v.03c-.02 28.445-.29 72.498.66 82.146.19 2.31.29 4.659.29 7.009z" fill="#f9c19b"/><g><path d="m178.62 211.928c3.479 2.245 8.122 1.247 10.369-2.233.731-1.134 1.97-1.81 3.312-1.81s2.581.677 3.312 1.81c1.435 2.222 3.846 3.433 6.308 3.433 1.394 0 2.803-.388 4.061-1.199 3.48-2.246 4.48-6.888 2.233-10.367-3.507-5.431-9.456-8.673-15.915-8.673-6.458 0-12.407 3.243-15.914 8.673-2.246 3.478-1.246 8.12 2.234 10.366z" fill="#fab684"/></g></g><g fill="#6c5fea"><path d="m115.532 470.958c-1.376-.044-4.147.322-6.818 2.947-2.942 2.889-6.854 9.202-6.854 30.567 0 4.141 3.357 7.499 7.5 7.499s7.5-3.357 7.5-7.499c0-13.045 1.568-17.975 2.247-19.498 2.223-1.267 3.74-3.641 3.79-6.384.074-4.141-3.223-7.558-7.365-7.632z"/><path d="m275.889 473.904c-2.67-2.622-5.438-2.979-6.818-2.946-4.142.074-7.438 3.492-7.364 7.632.05 2.774 1.601 5.169 3.864 6.425.563 1.37 2.172 6.452 2.172 19.457 0 4.141 3.357 7.499 7.5 7.499s7.5-3.357 7.5-7.499c-.001-21.367-3.912-27.679-6.854-30.568z"/></g></g><g><path d="m475.28 405.416c0-3.68-2.69-6.82-6.33-7.4l-10.35-1.64-4.93-11.919 6.15-8.49c2.16-2.99 1.84-7.1-.77-9.709l-21.18-21.179c-2.61-2.61-6.73-2.93-9.72-.76l-8.47 6.16-11.91-4.93-1.65-10.359c-.58-3.64-3.72-6.32-7.4-6.32h-12.73l-17.22.01c-3.69.01-6.83 2.69-7.41 6.33l-1.64 10.359-11.9 4.94-8.48-6.16c-2.99-2.16-7.1-1.84-9.71.77l-21.17 21.199c-2.61 2.61-2.93 6.72-.76 9.709l6.15 8.48-4.93 11.929-10.34 1.64c-3.64.58-6.32 3.72-6.32 7.41l.01 29.968c0 3.68 2.69 6.82 6.33 7.4l10.35 1.64 4.93 11.919-6.15 8.49c-2.16 2.99-1.84 7.1.77 9.709l21.18 21.179c2.61 2.61 6.73 2.93 9.71.76l8.47-6.16 11.92 4.94 1.65 10.349c.58 3.64 3.72 6.32 7.4 6.32h.01l14.99-.01h14.95c3.69-.01 6.83-2.69 7.41-6.33l1.64-10.359 11.9-4.94 8.48 6.16c2.99 2.16 7.11 1.84 9.71-.77l21.17-21.199c2.61-2.61 2.93-6.72.76-9.709l-6.15-8.479 4.93-11.919 10.34-1.65c3.64-.58 6.32-3.72 6.32-7.41zm-91.51 55.017c-22.09 0-40-17.909-40-39.998s17.91-39.998 40-39.998c22.1 0 40 17.909 40 39.998s-17.9 39.998-40 39.998z" fill="#56788b"/><path d="m475.289 435.384c0 3.69-2.68 6.83-6.32 7.41l-10.34 1.65-4.93 11.919 6.15 8.48c2.17 2.99 1.85 7.1-.76 9.709l-21.17 21.199c-2.6 2.61-6.72 2.93-9.71.77l-8.48-6.16-11.9 4.94-1.64 10.359c-.58 3.64-3.72 6.32-7.41 6.33h-14.95l6.62-31.128 31.96-13.269 8.91 6.47 6.08-6.1-6.46-8.9 13.48-32.608 10.87-1.73-.01-8.63-10.87-1.72-13.5-32.598 6.46-8.91-6.09-6.09-8.9 6.46-33.31-13.789-3.08-30.578h12.73c3.68 0 6.82 2.68 7.4 6.32l1.65 10.359 11.91 4.93 8.47-6.16c2.99-2.17 7.11-1.85 9.72.76l21.18 21.179c2.61 2.61 2.93 6.72.77 9.709l-6.15 8.49 4.93 11.919 10.35 1.64c3.64.58 6.33 3.72 6.33 7.4z" fill="#415e6f"/></g><g><path d="m216.876 236.277c-3.482-2.247-8.123-1.247-10.369 2.233-3.177 4.922-8.563 7.861-14.406 7.861s-11.229-2.939-14.407-7.861c-2.247-3.479-6.89-4.479-10.369-2.233-3.48 2.246-4.479 6.888-2.233 10.368 5.953 9.22 16.049 14.725 27.008 14.725s21.056-5.505 27.009-14.725c2.247-3.48 1.247-8.122-2.233-10.368z" fill="#fab684"/></g></g></svg>