<svg id="Layer_1" enable-background="new 0 0 512 512" height="512" viewBox="0 0 512 512" width="512" xmlns="http://www.w3.org/2000/svg"><g><g><path d="m458.14 188.38c-.13-4.14-.3-8.26-.51-13.17v-.01c-.87-19.58-3.82-34.91-9.55-49.65-5.37-14.21-13.54-26.75-24.27-37.26-10.46-10.61-23.31-18.97-37.11-24.17-8.84-3.42-17.84-5.84-27.77-7.43-3.05-.49-6.19-.9-9.44-1.23-3.97-.41-8.11-.71-12.46-.9-20.94-1-27.89-1.23-80.82-1.23-52.54 0-59.54.22-80.72 1.15-19.57.86-34.9 3.81-49.64 9.54-14.22 5.38-26.75 13.55-37.26 24.29-10.6 10.45-18.96 23.31-24.16 37.11-5.76 14.9-8.71 30.23-9.56 49.68-.24 4.94-.43 9.11-.58 13.28-.52 13.51-.65 27.12-.65 67.56 0 40.31.13 53.82.61 67.49.14 4.15.32 8.32.54 13.25.86 19.58 3.81 34.91 9.55 49.65 5.32 14.1 13.48 26.63 24.26 37.26 10.46 10.61 23.31 18.98 37.12 24.17 14.89 5.76 30.21 8.71 49.69 9.57 15.15.67 23.03.97 45.71 1.08l30.799-9.98 30.641 10.02c29.52-.09 37.37-.37 54.29-1.12 3.73-.16 7.31-.4 10.76-.72 1.71-.16 3.38-.34 5.02-.54 12.49-1.52 23.34-4.2 33.92-8.31 28.12-10.87 50.49-33.24 61.36-61.38 5.76-14.9 8.71-30.23 9.57-49.7.21-4.93.39-9.1.54-13.25.47-13.67.6-27.18.6-67.49 0-40.61-.05-54.15-.48-67.56z" fill="#4dd4f7"/><path d="m458.62 255.94c0 40.31-.13 53.82-.6 67.49-.15 4.15-.33 8.32-.54 13.25-.86 19.47-3.81 34.8-9.57 49.7-10.87 28.14-33.24 50.51-61.36 61.38-10.58 4.11-21.43 6.79-33.92 8.31-1.64.2-3.31.38-5.02.54 5.17-1.34 10.15-2.95 15.07-4.86 28.85-11.15 51.8-34.1 62.95-62.97 5.91-15.29 8.94-31.02 9.82-51 .22-5.06.4-9.33.55-13.59.49-14.03.62-27.89.62-69.25 0-41.67-.05-55.56-.49-69.32-.14-4.24-.31-8.47-.53-13.51v-.01c-.89-20.09-3.91-35.82-9.79-50.94-5.51-14.58-13.9-27.45-24.91-38.23-10.73-10.89-23.91-19.47-38.07-24.8-1.3-.5-2.6-.98-3.9-1.44 9.93 1.59 18.93 4.01 27.77 7.43 13.8 5.2 26.65 13.56 37.11 24.17 10.73 10.51 18.9 23.05 24.27 37.26 5.73 14.74 8.68 30.07 9.55 49.65v.01c.21 4.91.38 9.03.51 13.17.43 13.41.48 26.95.48 67.56z" fill="#00c2f3"/><g><path d="m512 420.488v68.592c0 12.635-10.29 22.92-22.92 22.92h-146.037c-12.64 0-22.92-10.286-22.92-22.92v-115.613c0-2.849 1.62-5.448 4.17-6.717s5.6-.97 7.87.75l39.579 30.078h117.338c12.63-.001 22.92 10.275 22.92 22.91z" fill="#d9f0f4"/><g fill="#fff"><path d="m468.379 466.089h-99.942c-4.142 0-7.5 3.357-7.5 7.497s3.357 7.497 7.5 7.497h99.942c4.143 0 7.5-3.357 7.5-7.497s-3.358-7.497-7.5-7.497z"/><path d="m368.437 447.097h89.95c4.142 0 7.5-3.357 7.5-7.497s-3.357-7.497-7.5-7.497h-89.95c-4.142 0-7.5 3.357-7.5 7.497 0 4.141 3.358 7.497 7.5 7.497z"/></g><path d="m512 420.488v68.592c0 12.635-10.29 22.92-22.92 22.92h-20c12.63 0 22.92-10.286 22.92-22.92v-68.592c0-12.635-10.29-22.91-22.92-22.91h20c12.63-.001 22.92 10.275 22.92 22.91z" fill="#bae1e5"/></g><path d="m199.437 24.93v95.55c0 13.754-11.18 24.93-24.94 24.93h-26.569l-16.05 23.111c-1.4 2.019-3.7 3.229-6.16 3.229s-4.76-1.21-6.16-3.229l-16.04-23.111h-78.578c-13.75 0-24.94-11.176-24.94-24.93v-95.55c0-13.745 11.19-24.93 24.94-24.93h149.558c13.759 0 24.939 11.185 24.939 24.93z" fill="#fbdf63"/><path d="m131.997 48.01c-.001 0-.001-.001 0 0-8.737-8.733-22.961-8.725-31.706.018l-.572.572-.573-.573c-4.235-4.234-9.865-6.568-15.852-6.573h-.017c-5.983 0-11.607 2.328-15.835 6.555-4.233 4.231-6.562 9.859-6.558 15.845.005 5.985 2.34 11.612 6.576 15.846l28.724 28.712c.976.976 2.256 1.464 3.535 1.464s2.56-.488 3.535-1.464l28.724-28.713c8.746-8.74 8.754-22.956.019-31.689z" fill="#ff6b81"/><path d="m199.437 24.93v95.55c0 13.754-11.18 24.93-24.94 24.93h-20c13.76 0 24.94-11.175 24.94-24.93v-95.55c0-13.744-11.18-24.93-24.94-24.93h20c13.76 0 24.94 11.185 24.94 24.93z" fill="#ffa402"/></g><path d="m335.071 248.64-17.14 42.86c-.76 1.9-2.6 3.15-4.65 3.15h-30.72v163.8c-7.32.02-15.97.03-26.43.03-14.86 0-26.08-.02-35.01-.07v-163.76h-39.29c-2.76 0-5-2.24-5-5v-42.87c0-2.76 2.24-5 5-5h39.29v-39.29c0-31.13 25.32-56.45 56.44-56.45h44.3c2.76 0 5 2.24 5 5v42.87c0 2.76-2.24 5-5 5h-27.15c-.78 0-1.54 0-2.29-.01-3.67-.03-8.24-.06-9.31 1-.34.34-.55 1.3-.55 2.59v39.29h47.87c1.66 0 3.21.82 4.14 2.2.93 1.37 1.12 3.12.5 4.66z" fill="#fff"/></g></svg>