<svg id="Layer_1" enable-background="new 0 0 512 512" height="512" viewBox="0 0 512 512" width="512" xmlns="http://www.w3.org/2000/svg"><g><g><g><g><path d="m441.454 53.5v405c0 29.5-23.974 53.5-53.438 53.5h-227.705c-29.465 0-53.438-24-53.438-53.5v-405c0-29.5 23.974-53.5 53.438-53.5h227.706c29.464 0 53.437 24 53.437 53.5z" fill="#56788b"/><path d="m441.454 53.5v405c0 29.5-23.974 53.5-53.438 53.5h-20.003c29.465 0 53.438-24 53.438-53.5v-405c0-29.5-23.974-53.5-53.438-53.5h20.003c29.465 0 53.438 24 53.438 53.5z" fill="#415e6f"/><path d="m411.49 52.26v407.48c0 13.1-10.642 23.76-23.734 23.76h-227.185c-13.092 0-23.734-10.66-23.734-23.76v-407.48c0-13.1 10.642-23.76 23.734-23.76h23.714c3.251 0 6.141 2.1 7.141 5.2l5.871 18.23c1.46 4.53 5.621 7.57 10.372 7.57h132.991c4.741 0 8.911-3.04 10.372-7.57l5.871-18.23c1-3.1 3.881-5.2 7.141-5.2h23.714c13.09 0 23.732 10.66 23.732 23.76z" fill="#d9f0f4"/><path d="m411.49 52.26v407.48c0 13.1-10.642 23.76-23.734 23.76h-20.003c13.092 0 23.734-10.66 23.734-23.76v-407.48c0-13.1-10.642-23.76-23.734-23.76h20.003c13.092 0 23.734 10.66 23.734 23.76z" fill="#bae1e5"/><path d="m314.784 21.985h-81.244c-4.143 0-7.501 3.358-7.501 7.5s3.358 7.5 7.501 7.5h81.244c4.143 0 7.501-3.358 7.501-7.5s-3.358-7.5-7.501-7.5z" fill="#415e6f"/><path d="m314.784 434.722h-81.244c-4.143 0-7.501 3.358-7.501 7.5s3.358 7.5 7.501 7.5h81.244c4.143 0 7.501-3.358 7.501-7.5s-3.358-7.5-7.501-7.5z" fill="#56788b"/><path d="m190.025 120.7v75.62c0 12.64-10.282 22.93-22.914 22.93h-97.275l-39.546 30.08c-1.33 1.02-2.931 1.53-4.541 1.53-1.14 0-2.28-.25-3.33-.78-2.55-1.26-4.171-3.87-4.171-6.72v-122.66c0-12.64 10.282-22.93 22.914-22.93h125.95c12.632 0 22.913 10.29 22.913 22.93z" fill="#ff6b81"/><path d="m190.025 120.7v75.62c0 12.64-10.282 22.93-22.914 22.93h-20.003c12.632 0 22.914-10.29 22.914-22.93v-75.62c0-12.64-10.282-22.93-22.914-22.93h20.003c12.633 0 22.914 10.29 22.914 22.93z" fill="#ed2061"/><g fill="#fff"><path d="m144.083 133.444h-79.893c-4.143 0-7.501 3.358-7.501 7.5s3.358 7.5 7.501 7.5h79.894c4.143 0 7.501-3.358 7.501-7.5s-3.359-7.5-7.502-7.5z"/><path d="m134.097 167.444h-69.907c-4.143 0-7.501 3.358-7.501 7.5s3.358 7.5 7.501 7.5h69.907c4.143 0 7.501-3.358 7.501-7.5s-3.358-7.5-7.501-7.5z"/></g></g></g><g fill="#90abbd"><path d="m359.966 138.395h-32.183c-4.143 0-7.501 3.358-7.501 7.5s3.358 7.5 7.501 7.5h32.183c4.143 0 7.501-3.358 7.501-7.5s-3.358-7.5-7.501-7.5z"/><path d="m367.467 110.895c0-4.142-3.358-7.5-7.501-7.5h-52.178c-4.143 0-7.501 3.358-7.501 7.5s3.358 7.5 7.501 7.5h52.178c4.143 0 7.501-3.358 7.501-7.5z"/></g></g><path d="m493.752 290c0 64.07-52.13 116.2-116.2 116.2-3.37 0-6.7-.14-10-.43-59.41-5.09-106.2-55.07-106.2-115.77s46.79-110.68 106.2-115.77c3.3-.29 6.63-.43 10-.43 64.07 0 116.2 52.13 116.2 116.2z" fill="#fbdf63"/><path d="m493.752 290c0 64.07-52.13 116.2-116.2 116.2-3.37 0-6.7-.14-10-.43 59.41-5.09 106.2-55.07 106.2-115.77s-46.79-110.68-106.2-115.77c3.3-.29 6.63-.43 10-.43 64.07 0 116.2 52.13 116.2 116.2z" fill="#ffa402"/><path d="m425.751 282.5h-40.699v-60.699c0-4.143-3.358-7.5-7.5-7.5s-7.5 3.357-7.5 7.5v68.199c0 4.143 3.358 7.5 7.5 7.5h48.199c4.142 0 7.5-3.357 7.5-7.5s-3.358-7.5-7.5-7.5z" fill="#56788b"/><g fill="#ffa402"><path d="m377.553 349.304c-4.142 0-7.5 3.357-7.5 7.5v17.554c0 4.143 3.358 7.5 7.5 7.5s7.5-3.357 7.5-7.5v-17.554c0-4.143-3.358-7.5-7.5-7.5z"/><path d="m335.872 248.676c2.929-2.929 2.929-7.678 0-10.607l-12.412-12.412c-2.929-2.929-7.677-2.929-10.607 0-2.929 2.929-2.929 7.678 0 10.607l12.412 12.412c2.929 2.929 7.678 2.93 10.607 0z"/><path d="m311.107 282.858-17.554.001c-4.142 0-7.5 3.358-7.5 7.5.001 2.071.84 3.946 2.197 5.303s3.232 2.197 5.304 2.197l17.554-.001c4.142 0 7.5-3.358 7.5-7.5-.002-4.143-3.358-7.5-7.501-7.5z"/><path d="m417.037 337.342c0 1.919.732 3.839 2.196 5.303l12.412 12.412c2.93 2.929 7.678 2.929 10.607 0 2.928-2.929 2.928-7.678 0-10.606l-12.412-12.412c-2.93-2.929-7.678-2.929-10.607 0-1.463 1.464-2.196 3.384-2.196 5.303z"/><path d="m442.253 236.265c2.928-2.929 2.928-7.678 0-10.606-2.93-2.929-7.678-2.929-10.607 0l-12.412 12.412c-1.464 1.464-2.196 3.384-2.196 5.303s.732 3.839 2.196 5.303c2.93 2.929 7.678 2.929 10.607 0z"/><path d="m335.872 342.646c2.93-2.929 2.929-7.678.001-10.607-2.929-2.929-7.678-2.929-10.606 0l-12.413 12.412c-1.465 1.465-2.197 3.384-2.197 5.304 0 1.919.732 3.839 2.196 5.303 2.929 2.929 7.678 2.929 10.606 0z"/></g></g></svg>