<svg id="Layer_1" enable-background="new 0 0 512 512" height="512" viewBox="0 0 512 512" width="512" xmlns="http://www.w3.org/2000/svg"><g><g><path d="m423.14 53.5v405c0 29.5-23.97 53.5-53.43 53.5h-227.67c-29.46 0-53.43-24-53.43-53.5v-405c0-29.5 23.97-53.5 53.43-53.5h227.67c29.46 0 53.43 24 53.43 53.5z" fill="#56788b"/><path d="m423.14 53.5v405c0 29.5-23.97 53.5-53.43 53.5h-20c29.46 0 53.43-24 53.43-53.5v-405c0-29.5-23.97-53.5-53.43-53.5h20c29.46 0 53.43 24 53.43 53.5z" fill="#415e6f"/><path d="m393.18 52.26v407.48c0 13.1-10.64 23.76-23.73 23.76h-227.15c-13.09 0-23.73-10.66-23.73-23.76v-407.48c0-13.1 10.64-23.76 23.73-23.76h23.71c3.25 0 6.14 2.1 7.14 5.2l5.87 18.23c1.46 4.53 5.62 7.57 10.37 7.57h132.97c4.74 0 8.91-3.04 10.37-7.57l5.87-18.23c1-3.1 3.88-5.2 7.14-5.2h23.71c13.09 0 23.73 10.66 23.73 23.76z" fill="#d9f0f4"/><path d="m393.18 52.26v407.48c0 13.1-10.64 23.76-23.73 23.76h-20c13.09 0 23.73-10.66 23.73-23.76v-407.48c0-13.1-10.64-23.76-23.73-23.76h20c13.09 0 23.73 10.66 23.73 23.76z" fill="#bae1e5"/><path d="m296.489 21.985h-81.231c-4.142 0-7.5 3.358-7.5 7.5s3.358 7.5 7.5 7.5h81.231c4.142 0 7.5-3.358 7.5-7.5s-3.358-7.5-7.5-7.5z" fill="#415e6f"/><path d="m296.489 434.722h-81.231c-4.142 0-7.5 3.358-7.5 7.5s3.358 7.5 7.5 7.5h81.231c4.142 0 7.5-3.358 7.5-7.5s-3.358-7.5-7.5-7.5z" fill="#56788b"/><g><g fill="#56788b"><path d="m215.943 223.337h-21.376c-4.142 0-7.5 3.358-7.5 7.5s3.358 7.5 7.5 7.5h21.376c4.142 0 7.5-3.358 7.5-7.5s-3.358-7.5-7.5-7.5z"/><path d="m234.493 248.03c-4.142 0-7.5 3.358-7.5 7.5v36.133c0 4.142 3.358 7.5 7.5 7.5s7.5-3.358 7.5-7.5v-36.133c0-4.142-3.358-7.5-7.5-7.5z"/></g><path d="m225.045 199.848c-9.465 1.274-16.602 9.443-16.602 19.001v23.975c0 9.558 7.137 17.727 16.602 19.001l82.657 11.708v-84.686z" fill="#4dd4f7"/><path d="m316.68 195.837v70c0 8.284-6.706 15-14.978 15-8.272 0-14.978-6.716-14.978-15v-70c0-8.284 6.706-15 14.978-15 8.272 0 14.978 6.716 14.978 15z" fill="#56788b"/></g><path d="m171.75 120.7v75.62c0 12.64-10.28 22.93-22.91 22.93h-97.26l-39.54 30.08c-1.33 1.02-2.93 1.53-4.54 1.53-1.14 0-2.28-.25-3.33-.78-2.55-1.26-4.17-3.87-4.17-6.72v-122.66c0-12.64 10.28-22.93 22.91-22.93h125.93c12.63 0 22.91 10.29 22.91 22.93z" fill="#ff6b81"/><path d="m171.75 120.7v75.62c0 12.64-10.28 22.93-22.91 22.93h-20c12.63 0 22.91-10.29 22.91-22.93v-75.62c0-12.64-10.28-22.93-22.91-22.93h20c12.63 0 22.91 10.29 22.91 22.93z" fill="#ed2061"/><g fill="#fff"><path d="m125.815 133.444h-79.881c-4.142 0-7.5 3.358-7.5 7.5s3.358 7.5 7.5 7.5h79.881c4.142 0 7.5-3.358 7.5-7.5s-3.357-7.5-7.5-7.5z"/><path d="m115.831 167.444h-69.897c-4.142 0-7.5 3.358-7.5 7.5s3.358 7.5 7.5 7.5h69.896c4.142 0 7.5-3.358 7.5-7.5s-3.357-7.5-7.499-7.5z"/></g><g fill="#90abbd"><path d="m170.719 369.4h32.143c4.142 0 7.5-3.358 7.5-7.5s-3.358-7.5-7.5-7.5h-32.143c-4.142 0-7.5 3.358-7.5 7.5s3.358 7.5 7.5 7.5z"/><path d="m222.833 389.4h-52.113c-4.142 0-7.5 3.358-7.5 7.5s3.358 7.5 7.5 7.5h52.113c4.142 0 7.5-3.358 7.5-7.5s-3.358-7.5-7.5-7.5z"/><path d="m340.743 139.03h-32.143c-4.142 0-7.5 3.358-7.5 7.5s3.358 7.5 7.5 7.5h32.143c4.142 0 7.5-3.358 7.5-7.5s-3.358-7.5-7.5-7.5z"/><path d="m348.243 111.53c0-4.142-3.358-7.5-7.5-7.5h-52.113c-4.142 0-7.5 3.358-7.5 7.5s3.358 7.5 7.5 7.5h52.113c4.142 0 7.5-3.358 7.5-7.5z"/></g></g><g><path d="m436.76 445.427c-8.811 8.811-23.207 8.811-32.018 0l-13.994-14.008-93.571-93.614c-7.573-7.587-8.11-19.453-1.188-26.375 6.923-6.923 18.774-6.385 26.354 1.195l38.799 38.827c-7.573-7.587-8.111-19.452-1.188-26.375s18.774-6.385 26.354 1.195c-7.58-7.58-8.118-19.445-1.195-26.368 6.916-6.916 18.767-6.392 26.34 1.181-3.776-3.79-5.798-8.641-6.01-13.421-.226-4.78 1.379-9.482 4.837-12.94 6.915-6.915 18.774-6.385 26.354 1.195l54.638 54.666 14.121 14.135c8.811 8.811 8.811 23.221 0 32.032z" fill="#fdd9b4"/><path d="m436.76 445.427c-8.811 8.811-23.207 8.811-32.018 0l-13.994-14.008c8.818 8.676 23.108 8.627 31.869-.134l68.632-68.674c8.811-8.811 8.811-23.221 0-32.032l.021.007 14.121 14.135c8.811 8.811 8.811 23.221 0 32.032z" fill="#fab684"/></g></g></svg>