<svg id="Layer_1" enable-background="new 0 0 512 512" height="512" viewBox="0 0 512 512" width="512" xmlns="http://www.w3.org/2000/svg"><g><g fill="#fab684"><path d="m290.439 228.677h27.337c12.616 0 22.844-10.228 22.844-22.846 0-12.617-10.228-22.846-22.844-22.846h-19.448z"/><path d="m106.327 228.677h-27.337c-12.616 0-22.844-10.228-22.844-22.846 0-12.617 10.228-22.846 22.844-22.846h19.448z"/></g><g><path d="m263.332 340.486c-1.97-.34-3.93-.63-5.87-.88h-115.72c-43.5 5.569-96.43 32.906-97.73 167.181-.03 2.8 2.24 5.099 5.04 5.099h301.1c2.8 0 5.07-2.3 5.04-5.099-1.24-128.286-49.61-158.962-91.86-166.301z" fill="#4dd4f7"/><path d="m355.192 506.786c.03 2.8-2.24 5.099-5.04 5.099h-20c2.8 0 5.07-2.3 5.04-5.099-1.05-108.287-35.68-150.923-71.86-166.301 42.25 7.34 90.62 38.016 91.86 166.301z" fill="#00c2f3"/><path d="m257.462 339.606c-1.73 30.416-26.97 54.554-57.86 54.554s-56.13-24.137-57.86-54.554c10.92-1.39 21.24-1.42 30-1.42h55.72c8.76 0 19.08.03 30 1.42z" fill="#d9f0f4"/><path d="m227.461 306.473c-2.331 6.318-3.534 22.525 0 31.705 0 15.388-12.473 27.863-27.859 27.863s-27.859-12.475-27.859-27.863c3.534-9.18 2.331-25.387 0-31.705z" fill="#fab684"/><g><path d="m122.834 470.871c-1.376-.044-4.147.322-6.818 2.947-2.942 2.889-6.854 9.202-6.854 30.569 0 4.142 3.357 7.499 7.5 7.499s7.5-3.358 7.5-7.499c0-13.046 1.568-17.976 2.247-19.499 2.223-1.267 3.74-3.641 3.79-6.384.073-4.142-3.224-7.559-7.365-7.633z" fill="#00c2f3"/></g><path d="m244.318 305.66c-.01 0-.02.01-.03.01-21.97 6.09-41.59 5.57-44.69 5.57-8.34 0-136.35 3.8-107.87-128l107.87-70.23 91.42 59.18 16.36 10.59c18.16 83.17-25.82 112.54-63.06 122.88z" fill="#fdd9b4"/><path d="m244.318 305.66c29.82-13.42 61.01-45.61 46.7-122.88v-10.59l16.36 10.59c18.16 83.17-25.82 112.54-63.06 122.88z" fill="#f9c19b"/></g><path d="m348.738 129.79c0 36.12-29.38 65.5-65.49 65.5-3.38 0-6.72-.26-9.99-.77-18.97-2.92-35.78-14.08-45.84-30.47-9.84 5.7-20.94 8.68-32.54 8.68-11.26 0-22.07-2.82-31.71-8.21-10.76 18.37-30.4 29.83-52.18 29.83-33.37 0-60.52-27.16-60.52-60.54 0-20.26 9.86-38.7 26.21-49.9-3.04-5.61-4.66-11.93-4.66-18.42 0-21.33 17.35-38.69 38.68-38.69 2.62 0 5.2.26 7.72.77 7.59-16.55 24.3-27.57 42.96-27.57 12.37 0 24 4.78 32.7 13.14 7.24-8.21 17.78-13.14 29.03-13.14 11.89 0 22.87 5.37 30.12 14.39 3.36-1.63 6.9-2.85 10.55-3.63 3.26-.7 6.6-1.06 10.01-1.06 26.04 0 47.23 21.19 47.23 47.24 0 5.91-1.11 11.74-3.23 17.19 19.01 11.85 30.95 32.95 30.95 55.66z" fill="#f79e60"/><path d="m348.738 129.79c0 36.12-29.38 65.5-65.49 65.5-3.38 0-6.72-.26-9.99-.77 31.38-4.83 55.48-32.01 55.48-64.73 0-22.71-11.94-43.81-30.95-55.66 2.12-5.45 3.23-11.28 3.23-17.19 0-22.62-15.98-41.58-37.24-46.18 3.26-.7 6.6-1.06 10.01-1.06 26.04 0 47.23 21.19 47.23 47.24 0 5.91-1.11 11.74-3.23 17.19 19.01 11.85 30.95 32.95 30.95 55.66z" fill="#d77d41"/><g fill="#fab684"><path d="m224.377 252.407c-3.48-2.246-8.122-1.246-10.369 2.234-3.177 4.923-8.563 7.861-14.406 7.861s-11.229-2.938-14.406-7.861c-2.248-3.48-6.889-4.481-10.369-2.233-3.48 2.246-4.48 6.889-2.233 10.368 5.953 9.222 16.05 14.727 27.009 14.727 10.96 0 21.057-5.505 27.009-14.727 2.246-3.48 1.245-8.122-2.235-10.369z"/><path d="m186.122 228.057c3.48 2.245 8.122 1.246 10.369-2.234.732-1.134 1.97-1.811 3.312-1.811s2.58.677 3.312 1.811c1.435 2.223 3.846 3.434 6.308 3.434 1.393 0 2.803-.388 4.061-1.199 3.48-2.247 4.48-6.889 2.234-10.369-3.506-5.433-9.456-8.676-15.915-8.676s-12.408 3.243-15.914 8.676c-2.248 3.479-1.247 8.121 2.233 10.368z"/></g><path d="m467.018 508.19c-1.33 2.35-3.83 3.81-6.53 3.81h-223.26c-2.7 0-5.2-1.46-6.53-3.81s-1.29-5.24.1-7.55l111.63-185.66c1.36-2.25 3.8-3.63 6.43-3.63s5.07 1.38 6.43 3.63l111.63 185.66c1.39 2.31 1.43 5.2.1 7.55z" fill="#fbdf63"/><g fill="#56788b"><path d="m356.359 388.858c0-4.143-3.358-7.5-7.5-7.5s-7.5 3.357-7.5 7.5v53.108c0 4.143 3.358 7.5 7.5 7.5s7.5-3.357 7.5-7.5z"/><circle cx="348.859" cy="471.968" r="7.5"/></g><path d="m467.018 508.19c-1.33 2.35-3.83 3.81-6.53 3.81h-13.49l-.73-.11-97.41-200.54c2.63 0 5.07 1.38 6.43 3.63l111.63 185.66c1.39 2.31 1.43 5.2.1 7.55z" fill="#ffa402"/></g></svg>