<svg id="Layer_1" enable-background="new 0 0 512 512" height="512" viewBox="0 0 512 512" width="512" xmlns="http://www.w3.org/2000/svg"><g><path d="m482.111 96.77v304.299c0 4.14-3.351 7.5-7.502 7.5h-450.883c-13.074 0-23.726-10.661-23.726-23.76v-288.039c0-13.1 10.652-23.76 23.726-23.76h434.66c13.082 0 23.725 10.66 23.725 23.76z" fill="#ff6b81"/><g><path d="m53.752 73.01v335.559h-30.026c-13.074 0-23.726-10.661-23.726-23.76v-288.039c0-13.1 10.652-23.76 23.726-23.76z" fill="#56788b"/><path d="m482.111 96.77v304.299c0 4.14-3.351 7.5-7.502 7.5h-46.241v-335.559h30.017c13.083 0 23.726 10.66 23.726 23.76z" fill="#56788b"/><path d="m482.111 96.77v304.299c0 4.14-3.351 7.5-7.502 7.5h-20.005c4.151 0 7.502-3.36 7.502-7.5v-304.299c0-13.1-10.642-23.76-23.725-23.76h20.005c13.082 0 23.725 10.66 23.725 23.76z" fill="#415e6f"/></g><path d="m288.441 265.747-72.878-43.813c-1.768-1.063-3.97-1.091-5.761-.077-1.795 1.015-2.904 2.917-2.904 4.977v87.625c0 2.06 1.109 3.962 2.904 4.977.873.494 1.844.74 2.815.74 1.021 0 2.041-.274 2.947-.817l72.878-43.813c1.72-1.034 2.772-2.893 2.772-4.9s-1.053-3.865-2.773-4.899z" fill="#fff"/><g><g><path d="m512 416.71c0 52.54-42.78 95.29-95.363 95.29-3.381 0-6.722-.18-10.002-.52-47.901-5.02-85.36-45.61-85.36-94.77s37.459-89.75 85.36-94.77c3.281-.34 6.622-.52 10.002-.52 52.583 0 95.363 42.75 95.363 95.29z" fill="#4dd4f7"/><path d="m512 416.71c0 52.54-42.78 95.29-95.363 95.29-3.381 0-6.722-.18-10.002-.52 47.901-5.02 85.36-45.61 85.36-94.77s-37.459-89.75-85.36-94.77c3.281-.34 6.622-.52 10.002-.52 52.583 0 95.363 42.75 95.363 95.29z" fill="#00c2f3"/></g><path d="m441.228 444.866c-6.804 5.949-15.537 9.226-24.589 9.226-20.616 0-37.389-16.769-37.389-37.38s16.773-37.38 37.389-37.38c9.049 0 17.784 3.274 24.593 9.22 3.122 2.725 7.86 2.403 10.586-.716 2.725-3.12 2.404-7.858-.716-10.583-9.544-8.332-21.783-12.921-34.462-12.921-28.89 0-52.392 23.497-52.392 52.38s23.503 52.38 52.392 52.38c12.686 0 24.926-4.594 34.466-12.935 3.119-2.727 3.435-7.465.708-10.583-2.726-3.117-7.466-3.436-10.586-.708z" fill="#fff"/></g><g><path d="m304.355 453.312h-296.703c-4.144 0-7.502 3.357-7.502 7.5s3.358 7.5 7.502 7.5h296.703c4.144 0 7.502-3.357 7.502-7.5-.001-4.142-3.359-7.5-7.502-7.5z" fill="#90abbd"/></g><g><path d="m285.391 24.93v95.55c0 13.754-11.182 24.93-24.945 24.93h-52.583l-16.054 23.111c-1.4 2.019-3.701 3.229-6.161 3.229s-4.761-1.21-6.161-3.229l-16.044-23.111h-52.591c-13.753 0-24.945-11.175-24.945-24.93v-95.55c0-13.745 11.193-24.93 24.946-24.93h149.593c13.763 0 24.945 11.185 24.945 24.93z" fill="#fbdf63"/><path d="m217.936 48.01c-.001 0-.001-.001 0 0-8.739-8.733-22.966-8.725-31.713.018l-.573.573-.573-.573c-4.236-4.234-9.867-6.568-15.856-6.573h-.017c-5.985 0-11.61 2.328-15.838 6.555-4.234 4.231-6.564 9.859-6.56 15.845.005 5.985 2.34 11.612 6.578 15.846l28.731 28.712c.976.976 2.256 1.464 3.536 1.464s2.56-.488 3.536-1.464l28.731-28.713c8.746-8.741 8.755-22.957.018-31.69z" fill="#ff6b81"/><path d="m285.391 24.93v95.55c0 13.754-11.182 24.93-24.945 24.93h-20.004c13.763 0 24.945-11.175 24.945-24.93v-95.55c0-13.744-11.182-24.93-24.945-24.93h20.004c13.763 0 24.945 11.185 24.945 24.93z" fill="#ffa402"/></g></g><path d="m107.838 460.817c0 15.86-12.93 28.77-28.83 28.77-3.52 0-6.89-.63-10-1.79-10.98-4.06-18.83-14.63-18.83-26.98 0-12.36 7.85-22.93 18.83-26.99 3.11-1.16 6.48-1.79 10-1.79 15.9 0 28.83 12.91 28.83 28.78z" fill="#ff6b81"/><path d="m107.838 460.817c0 15.86-12.93 28.77-28.83 28.77-3.52 0-6.89-.63-10-1.79 10.98-4.06 18.83-14.63 18.83-26.98 0-12.36-7.85-22.93-18.83-26.99 3.11-1.16 6.48-1.79 10-1.79 15.9 0 28.83 12.91 28.83 28.78z" fill="#ed2061"/></svg>