<svg id="Layer_1" enable-background="new 0 0 512 512" height="512" viewBox="0 0 512 512" width="512" xmlns="http://www.w3.org/2000/svg"><g><g><g fill="#d9f0f4"><path d="m178.835 48.336c-26.612-7.164-47.146-.136-48.006.167-3.896 1.369-5.937 5.626-4.583 9.527s5.615 5.972 9.528 4.634c.169-.057 17.246-5.743 39.162.156.652.176 1.309.26 1.954.26 3.308 0 6.336-2.206 7.237-5.553 1.078-3.999-1.292-8.114-5.292-9.191z"/><path d="m376.135 62.82c.652.176 1.309.26 1.954.26 3.308 0 6.336-2.206 7.237-5.553 1.077-3.999-1.293-8.114-5.293-9.191-26.613-7.164-47.146-.136-48.006.167-3.896 1.369-5.937 5.626-4.583 9.527s5.616 5.972 9.528 4.634c.172-.057 17.246-5.743 39.163.156z"/><path d="m157.757 147.446c-19.57-11.279-27.644-27.279-27.803-27.599-1.799-3.717-6.267-5.278-9.994-3.494-3.734 1.792-5.31 6.271-3.519 10.007.396.823 9.945 20.318 33.825 34.082 1.18.68 2.468 1.003 3.738 1.003 2.594 0 5.116-1.347 6.505-3.756 2.069-3.588.837-8.174-2.752-10.243z"/><path d="m382.426 119.845c-.079.161-8.136 16.266-27.804 27.602-3.589 2.068-4.821 6.654-2.753 10.243 1.389 2.409 3.911 3.756 6.505 3.756 1.271 0 2.559-.323 3.738-1.003 23.88-13.764 33.43-33.259 33.825-34.082 1.786-3.724.219-8.177-3.497-9.979-3.718-1.8-8.197-.245-10.014 3.463z"/><path d="m150.267 350.618c-23.88 13.764-33.43 33.259-33.825 34.082-1.786 3.724-.219 8.177 3.497 9.979 1.051.509 2.162.75 3.257.75 2.779 0 5.454-1.553 6.758-4.213.079-.161 8.136-16.266 27.804-27.602 3.589-2.068 4.821-6.654 2.753-10.243-2.07-3.59-6.657-4.821-10.244-2.753z"/><path d="m362.112 350.618c-3.589-2.068-8.174-.837-10.243 2.753-2.068 3.589-.836 8.175 2.753 10.243 19.57 11.279 27.644 27.279 27.803 27.599 1.294 2.673 3.969 4.233 6.755 4.233 1.088 0 2.192-.238 3.239-.739 3.734-1.792 5.31-6.271 3.519-10.007-.396-.823-9.946-20.318-33.826-34.082z"/><path d="m59.091 327.764c-4.001-1.073-8.114 1.296-9.19 5.296-7.159 26.626-.136 47.167.167 48.028 1.084 3.087 3.98 5.018 7.076 5.018.824 0 1.663-.137 2.484-.426 3.908-1.372 5.965-5.652 4.592-9.561-.059-.168-5.8-16.973.167-39.165 1.075-4-1.296-8.114-5.296-9.19z"/><path d="m59.091 126.436c-4.001-1.073-8.114 1.296-9.19 5.296-7.159 26.626-.136 47.167.167 48.028 1.084 3.087 3.98 5.018 7.076 5.018.824 0 1.663-.137 2.484-.426 3.908-1.372 5.965-5.652 4.592-9.561-.059-.168-5.8-16.973.167-39.165 1.075-4-1.296-8.114-5.296-9.19z"/><path d="m454.626 327.764c-4 1.076-6.371 5.19-5.296 9.19 5.877 21.856.255 38.901.157 39.191-1.354 3.901.702 8.165 4.602 9.534.821.289 1.66.426 2.484.426 3.096 0 5.993-1.931 7.076-5.018.303-.861 7.326-21.402.167-48.028-1.075-3.999-5.189-6.368-9.19-5.295z"/><path d="m454.089 184.352c.821.289 1.66.426 2.484.426 3.096 0 5.993-1.931 7.076-5.018.303-.861 7.326-21.402.167-48.028-1.075-3.999-5.189-6.368-9.19-5.296-4 1.076-6.371 5.19-5.296 9.19 5.877 21.856.255 38.901.157 39.191-1.353 3.902.702 8.165 4.602 9.535z"/></g><path d="m317.68 174.46c-16.42-16.43-38.24-25.48-61.46-25.48h-.02c-.01 0-.01 0-.02 0-3.36 0-6.68.19-9.95.57-43.26 4.97-76.97 41.84-76.97 86.43 0 32.04 14.43 64.42 41.75 93.64 18.95 20.28 37.73 32.37 40.88 34.33 1.23.86 2.72 1.35 4.3 1.35h.02c1.58 0 3.06-.48 4.28-1.34 3.09-1.92 21.91-14.01 40.91-34.34 27.31-29.22 41.74-61.6 41.74-93.64.01-23.24-9.04-45.08-25.46-61.52zm-61.28 106.95c-25.11 0-45.53-20.43-45.53-45.55 0-25.13 20.42-45.56 45.53-45.56s45.53 20.43 45.53 45.56c0 25.12-20.42 45.55-45.53 45.55z" fill="#ff6b81"/><g><path d="m343.14 235.98c0 32.04-14.43 64.42-41.74 93.64-19 20.33-37.82 32.42-40.91 34.34 54.7-60.15 62.65-95.94 62.65-127.98.01-23.24-9.04-45.08-25.46-61.52-14.04-14.05-32.02-22.7-51.45-24.91 3.27-.38 6.59-.57 9.95-.57h.02.02c23.22 0 45.04 9.05 61.46 25.48 16.42 16.44 25.47 38.28 25.46 61.52z" fill="#ed2061"/></g></g><g><g><path d="m512 55.529c0 17.09-7.76 32.389-19.95 42.589-9.65 8.08-22.08 12.94-35.63 12.94-3.42 0-6.77-.31-10.02-.9-9.63-1.76-18.4-6-25.61-12.04-12.19-10.2-19.95-25.5-19.95-42.589 0-27.209 19.68-49.909 45.58-54.629 3.24-.59 6.59-.9 10-.9 30.64 0 55.58 24.91 55.58 55.529z" fill="#d9f0f4"/><path d="m512 55.529c0 17.09-7.76 32.389-19.95 42.589-9.65 8.08-22.08 12.94-35.63 12.94-3.42 0-6.77-.31-10.02-.9 25.91-4.7 45.55-27.37 45.55-54.629 0-27.25-19.63-49.919-45.53-54.629 3.24-.59 6.59-.9 10-.9 30.64 0 55.58 24.91 55.58 55.529z" fill="#bae1e5"/><path d="m492.05 94.488v3.63c-9.65 8.08-22.08 12.94-35.63 12.94-3.42 0-6.77-.31-10.02-.9-9.63-1.76-18.4-6-25.61-12.04v-3.63c0-19.69 15.65-35.119 35.63-35.119 13.55 0 25.12 7.1 31.15 17.82 2.86 5.08 4.48 10.97 4.48 17.299z" fill="#09eaa3"/><path d="m492.05 94.488v3.63c-9.65 8.08-22.08 12.94-35.63 12.94-3.42 0-6.77-.31-10.02-.9 18.61-3.37 33.98-16.02 41.17-32.969 2.86 5.08 4.48 10.97 4.48 17.299z" fill="#14bb87"/><ellipse cx="456.418" cy="51.874" fill="#fdd9b4" rx="22.5" ry="22.479"/></g><g><path d="m311.981 456.421c0 17.09-7.76 32.389-19.95 42.589-9.65 8.08-22.08 12.94-35.63 12.94-3.42 0-6.77-.31-10.02-.9-9.63-1.76-18.4-6-25.61-12.04-12.19-10.2-19.95-25.5-19.95-42.589 0-27.209 19.68-49.909 45.58-54.629 3.24-.59 6.59-.9 10-.9 30.64 0 55.58 24.91 55.58 55.529z" fill="#d9f0f4"/><path d="m311.981 456.421c0 17.09-7.76 32.389-19.95 42.589-9.65 8.08-22.08 12.94-35.63 12.94-3.42 0-6.77-.31-10.02-.9 25.91-4.7 45.55-27.37 45.55-54.629 0-27.25-19.63-49.919-45.53-54.629 3.24-.59 6.59-.9 10-.9 30.64 0 55.58 24.91 55.58 55.529z" fill="#bae1e5"/><path d="m292.031 495.381v3.63c-9.65 8.08-22.08 12.94-35.63 12.94-3.42 0-6.77-.31-10.02-.9-9.63-1.76-18.4-6-25.61-12.04v-3.63c0-19.69 15.65-35.119 35.63-35.119 13.55 0 25.12 7.1 31.15 17.82 2.86 5.079 4.48 10.969 4.48 17.299z" fill="#09eaa3"/><path d="m292.031 495.381v3.63c-9.65 8.08-22.08 12.94-35.63 12.94-3.42 0-6.77-.31-10.02-.9 18.61-3.37 33.98-16.02 41.17-32.969 2.86 5.079 4.48 10.969 4.48 17.299z" fill="#14bb87"/><ellipse cx="256.399" cy="452.766" fill="#fdd9b4" rx="22.5" ry="22.479"/></g><g><path d="m111.16 55.533c0 17.09-7.76 32.389-19.95 42.589-9.65 8.08-22.08 12.94-35.63 12.94-3.42 0-6.77-.31-10.02-.9-9.63-1.76-18.4-6-25.61-12.04-12.19-10.2-19.95-25.499-19.95-42.589 0-27.21 19.68-49.909 45.58-54.629 3.24-.59 6.59-.9 10-.9 30.64 0 55.58 24.91 55.58 55.529z" fill="#d9f0f4"/><path d="m111.16 55.533c0 17.09-7.76 32.389-19.95 42.589-9.65 8.08-22.08 12.94-35.63 12.94-3.42 0-6.77-.31-10.02-.9 25.91-4.7 45.55-27.37 45.55-54.629 0-27.25-19.63-49.919-45.53-54.629 3.24-.59 6.59-.9 10-.9 30.64 0 55.58 24.91 55.58 55.529z" fill="#bae1e5"/><path d="m91.21 94.492v3.63c-9.65 8.08-22.08 12.94-35.63 12.94-3.42 0-6.77-.31-10.02-.9-9.63-1.76-18.4-6-25.61-12.04v-3.63c0-19.69 15.65-35.119 35.63-35.119 13.55 0 25.12 7.1 31.15 17.82 2.86 5.08 4.48 10.969 4.48 17.299z" fill="#ff6b81"/><path d="m91.21 94.492v3.63c-9.65 8.08-22.08 12.94-35.63 12.94-3.42 0-6.77-.31-10.02-.9 18.61-3.37 33.98-16.02 41.17-32.969 2.86 5.08 4.48 10.969 4.48 17.299z" fill="#ed2061"/><ellipse cx="55.578" cy="51.878" fill="#fdd9b4" rx="22.5" ry="22.479"/></g><g><path d="m311.58 55.579c0 17.09-7.76 32.389-19.95 42.589-9.65 8.08-22.08 12.94-35.63 12.94-3.42 0-6.77-.31-10.02-.9-9.63-1.76-18.4-6-25.61-12.04-12.19-10.2-19.95-25.5-19.95-42.589 0-27.209 19.68-49.909 45.58-54.629 3.24-.59 6.59-.9 10-.9 30.64-.001 55.58 24.909 55.58 55.529z" fill="#d9f0f4"/><path d="m311.58 55.579c0 17.09-7.76 32.389-19.95 42.589-9.65 8.08-22.08 12.94-35.63 12.94-3.42 0-6.77-.31-10.02-.9 25.91-4.7 45.55-27.37 45.55-54.629 0-27.25-19.63-49.919-45.53-54.629 3.24-.59 6.59-.9 10-.9 30.64-.001 55.58 24.909 55.58 55.529z" fill="#bae1e5"/><path d="m291.63 94.538v3.63c-9.65 8.08-22.08 12.94-35.63 12.94-3.42 0-6.77-.31-10.02-.9-9.63-1.76-18.4-6-25.61-12.04v-3.63c0-19.69 15.65-35.119 35.63-35.119 13.55 0 25.12 7.1 31.15 17.82 2.86 5.079 4.48 10.969 4.48 17.299z" fill="#4dd4f7"/><path d="m291.63 94.538v3.63c-9.65 8.08-22.08 12.94-35.63 12.94-3.42 0-6.77-.31-10.02-.9 18.61-3.37 33.98-16.02 41.17-32.969 2.86 5.079 4.48 10.969 4.48 17.299z" fill="#00c2f3"/><ellipse cx="255.998" cy="51.923" fill="#fdd9b4" rx="22.5" ry="22.479"/></g><g><path d="m512 456.467c0 17.09-7.76 32.389-19.95 42.589-9.65 8.08-22.08 12.94-35.63 12.94-3.42 0-6.77-.31-10.02-.9-9.63-1.76-18.4-6-25.61-12.04-12.19-10.2-19.95-25.5-19.95-42.589 0-27.21 19.68-49.909 45.58-54.629 3.24-.59 6.59-.9 10-.9 30.64 0 55.58 24.91 55.58 55.529z" fill="#d9f0f4"/><path d="m512 456.467c0 17.09-7.76 32.389-19.95 42.589-9.65 8.08-22.08 12.94-35.63 12.94-3.42 0-6.77-.31-10.02-.9 25.91-4.7 45.55-27.37 45.55-54.629 0-27.25-19.63-49.919-45.53-54.629 3.24-.59 6.59-.9 10-.9 30.64 0 55.58 24.91 55.58 55.529z" fill="#bae1e5"/><path d="m492.05 495.426v3.63c-9.65 8.08-22.08 12.94-35.63 12.94-3.42 0-6.77-.31-10.02-.9-9.63-1.76-18.4-6-25.61-12.04v-3.63c0-19.69 15.65-35.119 35.63-35.119 13.55 0 25.12 7.1 31.15 17.82 2.86 5.08 4.48 10.969 4.48 17.299z" fill="#9090fb"/><path d="m492.05 495.426v3.63c-9.65 8.08-22.08 12.94-35.63 12.94-3.42 0-6.77-.31-10.02-.9 18.61-3.37 33.98-16.02 41.17-32.969 2.86 5.08 4.48 10.969 4.48 17.299z" fill="#6c5fea"/><ellipse cx="456.418" cy="452.812" fill="#fdd9b4" rx="22.5" ry="22.479"/></g><g><path d="m111.248 256c0 17.09-7.76 32.389-19.95 42.589-9.65 8.08-22.08 12.94-35.63 12.94-3.42 0-6.77-.31-10.02-.9-9.63-1.76-18.4-6-25.61-12.04-12.19-10.2-19.95-25.5-19.95-42.589 0-27.21 19.68-49.909 45.58-54.629 3.24-.59 6.59-.9 10-.9 30.64 0 55.58 24.91 55.58 55.529z" fill="#d9f0f4"/><path d="m111.248 256c0 17.09-7.76 32.389-19.95 42.589-9.65 8.08-22.08 12.94-35.63 12.94-3.42 0-6.77-.31-10.02-.9 25.91-4.7 45.55-27.37 45.55-54.629 0-27.25-19.63-49.919-45.53-54.629 3.24-.59 6.59-.9 10-.9 30.64 0 55.58 24.91 55.58 55.529z" fill="#bae1e5"/><path d="m91.298 294.959v3.63c-9.65 8.08-22.08 12.94-35.63 12.94-3.42 0-6.77-.31-10.02-.9-9.63-1.76-18.4-6-25.61-12.04v-3.63c0-19.69 15.65-35.119 35.63-35.119 13.55 0 25.12 7.1 31.15 17.82 2.86 5.08 4.48 10.969 4.48 17.299z" fill="#9090fb"/><path d="m91.298 294.959v3.63c-9.65 8.08-22.08 12.94-35.63 12.94-3.42 0-6.77-.31-10.02-.9 18.61-3.37 33.98-16.02 41.17-32.969 2.86 5.08 4.48 10.969 4.48 17.299z" fill="#6c5fea"/><ellipse cx="55.666" cy="252.345" fill="#fdd9b4" rx="22.5" ry="22.479"/></g><g><path d="m111.16 456.471c0 17.09-7.76 32.389-19.95 42.589-9.65 8.08-22.08 12.94-35.63 12.94-3.42 0-6.77-.31-10.02-.9-9.63-1.76-18.4-6-25.61-12.04-12.19-10.2-19.95-25.499-19.95-42.589 0-27.21 19.68-49.909 45.58-54.629 3.24-.59 6.59-.9 10-.9 30.64 0 55.58 24.909 55.58 55.529z" fill="#d9f0f4"/><path d="m111.16 456.471c0 17.09-7.76 32.389-19.95 42.589-9.65 8.08-22.08 12.94-35.63 12.94-3.42 0-6.77-.31-10.02-.9 25.91-4.7 45.55-27.37 45.55-54.629 0-27.25-19.63-49.919-45.53-54.629 3.24-.59 6.59-.9 10-.9 30.64 0 55.58 24.909 55.58 55.529z" fill="#bae1e5"/><path d="m91.21 495.43v3.63c-9.65 8.08-22.08 12.94-35.63 12.94-3.42 0-6.77-.31-10.02-.9-9.63-1.76-18.4-6-25.61-12.04v-3.63c0-19.69 15.65-35.119 35.63-35.119 13.55 0 25.12 7.1 31.15 17.82 2.86 5.079 4.48 10.969 4.48 17.299z" fill="#56788b"/><path d="m91.21 495.43v3.63c-9.65 8.08-22.08 12.94-35.63 12.94-3.42 0-6.77-.31-10.02-.9 18.61-3.37 33.98-16.02 41.17-32.969 2.86 5.079 4.48 10.969 4.48 17.299z" fill="#415e6f"/><ellipse cx="55.578" cy="452.816" fill="#fdd9b4" rx="22.5" ry="22.479"/></g><g><path d="m511.998 256c0 17.09-7.76 32.389-19.95 42.589-9.65 8.08-22.08 12.94-35.63 12.94-3.42 0-6.77-.31-10.02-.9-9.63-1.76-18.4-6-25.61-12.04-12.19-10.2-19.95-25.5-19.95-42.589 0-27.21 19.68-49.909 45.58-54.629 3.24-.59 6.59-.9 10-.9 30.64 0 55.58 24.91 55.58 55.529z" fill="#d9f0f4"/><path d="m511.998 256c0 17.09-7.76 32.389-19.95 42.589-9.65 8.08-22.08 12.94-35.63 12.94-3.42 0-6.77-.31-10.02-.9 25.91-4.7 45.55-27.37 45.55-54.629 0-27.25-19.63-49.919-45.53-54.629 3.24-.59 6.59-.9 10-.9 30.64 0 55.58 24.91 55.58 55.529z" fill="#bae1e5"/><path d="m492.048 294.959v3.63c-9.65 8.08-22.08 12.94-35.63 12.94-3.42 0-6.77-.31-10.02-.9-9.63-1.76-18.4-6-25.61-12.04v-3.63c0-19.69 15.65-35.119 35.63-35.119 13.55 0 25.12 7.1 31.15 17.82 2.86 5.08 4.48 10.969 4.48 17.299z" fill="#56788b"/><path d="m492.048 294.959v3.63c-9.65 8.08-22.08 12.94-35.63 12.94-3.42 0-6.77-.31-10.02-.9 18.61-3.37 33.98-16.02 41.17-32.969 2.86 5.08 4.48 10.969 4.48 17.299z" fill="#415e6f"/><ellipse cx="456.417" cy="252.345" fill="#fdd9b4" rx="22.5" ry="22.479"/></g></g></g></svg>