<svg id="Layer_1" enable-background="new 0 0 512 512" height="512" viewBox="0 0 512 512" width="512" xmlns="http://www.w3.org/2000/svg"><g><g fill="#9fccce"><path d="m92.351 118.739c-7.751-6.41-17.863-9.005-27.743-7.112-15.823 3.025-27.308 16.914-27.308 33.024v24.757l67.248-13.362v-11.395c0-10.058-4.446-19.503-12.197-25.912z"/><path d="m447.393 111.627c-9.876-1.89-19.991.702-27.743 7.112-7.752 6.409-12.197 15.854-12.197 25.912v11.395l67.248 13.362v-24.757c-.001-16.11-11.485-29.999-27.308-33.024z"/></g><path d="m512 194.38v168.76c0 21.74-17.7 39.43-39.45 39.43h-433.1c-21.75 0-39.45-17.69-39.45-39.43v-168.76c0-18.27 12.42-34.03 30.19-38.32 39.99-9.65 80.97-16.79 121.91-21.23l6.27-29.97c2.23-10.69 11.79-18.45 22.72-18.45h149.82c10.93 0 20.48 7.76 22.72 18.45l6.27 29.97c37.27 4.04 74.57 10.32 111.12 18.7 3.61.82 7.2 1.67 10.79 2.53 17.77 4.29 30.19 20.05 30.19 38.32z" fill="#d9f0f4"/><path d="m512 194.38v168.76c0 21.74-17.7 39.43-39.45 39.43h-20c21.75 0 39.45-17.69 39.45-39.43v-174.76c0-14.91-8.28-28.16-20.98-34.85 3.61.82 7.2 1.67 10.79 2.53 17.77 4.29 30.19 20.05 30.19 38.32z" fill="#bae1e5"/><g><path d="m357.14 262.21c0 55.73-45.37 101.07-101.14 101.07-3.37 0-6.71-.17-10-.49-51.09-5.03-91.14-48.22-91.14-100.58 0-52.37 40.05-95.56 91.14-100.59 3.29-.32 6.63-.49 10-.49 55.77 0 101.14 45.34 101.14 101.08z" fill="#56788b"/><path d="m357.14 262.21c0 55.73-45.37 101.07-101.14 101.07-3.37 0-6.71-.17-10-.49 51.09-5.03 91.14-48.22 91.14-100.58 0-52.37-40.05-95.56-91.14-100.59 3.29-.32 6.63-.49 10-.49 55.77 0 101.14 45.34 101.14 101.08z" fill="#415e6f"/></g><g><path d="m322.93 262.21c0 36.88-30.02 66.88-66.93 66.88-3.4 0-6.74-.25-10-.75-32.18-4.83-56.93-32.65-56.93-66.13s24.75-61.31 56.93-66.14c3.26-.5 6.6-.75 10-.75 36.91 0 66.93 30.01 66.93 66.89z" fill="#4dd4f7"/><path d="m322.93 262.21c0 36.88-30.02 66.88-66.93 66.88-3.4 0-6.74-.25-10-.75 32.18-4.83 56.93-32.65 56.93-66.13s-24.75-61.31-56.93-66.14c3.26-.5 6.6-.75 10-.75 36.91 0 66.93 30.01 66.93 66.89z" fill="#00c2f3"/></g><path d="m311.229 117.599h-110.458c-4.142 0-7.5 3.357-7.5 7.5s3.358 7.5 7.5 7.5h110.459c4.143 0 7.5-3.357 7.5-7.5s-3.358-7.5-7.501-7.5z" fill="#90abbd"/><path d="m78.957 209.54h-78.957v140.865h78.957c12.691 0 23.016-10.325 23.016-23.016v-94.834c0-12.69-10.325-23.015-23.016-23.015z" fill="#9fccce"/><path d="m256.121 234.44c-15.311 0-27.767 12.456-27.767 27.766 0 15.311 12.456 27.767 27.767 27.767 15.31 0 27.766-12.456 27.766-27.767 0-15.31-12.456-27.766-27.766-27.766z" fill="#fff"/><g><path d="m430.006 273.629c-4.143 0-7.5 3.357-7.5 7.5v55.776c0 4.143 3.357 7.5 7.5 7.5s7.5-3.357 7.5-7.5v-55.776c0-4.143-3.358-7.5-7.5-7.5z" fill="#90abbd"/><circle cx="430.006" cy="231.307" fill="#9fccce" r="27.767"/></g><g fill="#90abbd"><path d="m468.764 444.664c0-4.143-3.358-7.5-7.5-7.5l-72.176.001c-4.143 0-7.5 3.358-7.5 7.5 0 4.143 3.358 7.5 7.5 7.5l72.176-.001c4.142 0 7.5-3.358 7.5-7.5z"/><path d="m461.264 472.164-32.125.001c-4.143 0-7.5 3.358-7.5 7.5 0 4.143 3.358 7.5 7.5 7.5l32.125-.001c4.143 0 7.5-3.358 7.5-7.5 0-4.143-3.359-7.5-7.5-7.5z"/><path d="m119.161 59.836h-68.425c-4.142 0-7.5 3.357-7.5 7.5s3.358 7.5 7.5 7.5h68.425c4.142 0 7.5-3.357 7.5-7.5s-3.358-7.5-7.5-7.5z"/><path d="m50.736 39.836h32.126c4.142 0 7.5-3.357 7.5-7.5s-3.358-7.5-7.5-7.5h-32.126c-4.142 0-7.5 3.357-7.5 7.5s3.358 7.5 7.5 7.5z"/></g><g><g><path d="m293.176 479.66c0 17.83-14.476 32.34-32.268 32.34h-228.567c-17.792 0-32.268-14.51-32.268-32.34s14.476-32.33 32.268-32.33h2.807l16.863-23.3c1.409-1.95 3.666-3.11 6.064-3.11 2.408 0 4.665 1.16 6.074 3.11l16.863 23.3h179.895c17.793.001 32.269 14.501 32.269 32.33z" fill="#09eaa3"/><path d="m293.176 479.66c0 17.83-14.476 32.34-32.268 32.34h-19.98c17.792 0 32.268-14.51 32.268-32.34s-14.476-32.33-32.268-32.33h19.98c17.792.001 32.268 14.501 32.268 32.33z" fill="#14bb87"/></g><g><path d="m511.928 32.34c0 17.83-14.476 32.33-32.268 32.33h-19.98l-16.863 23.3c-1.409 1.95-3.666 3.11-6.064 3.11-2.408 0-4.665-1.16-6.074-3.11l-16.853-23.3h-123.17c-17.792 0-32.268-14.5-32.268-32.33s14.476-32.34 32.268-32.34h189.004c17.792 0 32.268 14.51 32.268 32.34z" fill="#fbdf63"/><path d="m511.928 32.34c0 17.83-14.476 32.33-32.268 32.33h-19.98c17.792 0 32.268-14.5 32.268-32.33s-14.476-32.34-32.268-32.34h19.98c17.792 0 32.268 14.51 32.268 32.34z" fill="#ffa402"/></g></g></g></svg>