<svg id="Layer_1" enable-background="new 0 0 512 512" height="512" viewBox="0 0 512 512" width="512" xmlns="http://www.w3.org/2000/svg"><g><path d="m386.45 332.16v40.99c0 13.22-10.76 23.98-23.99 23.98h-338.47c-13.23 0-23.99-10.76-23.99-23.98v-172.31c0-13.23 10.76-23.98 23.99-23.98h103.64z" fill="#14bb87"/><path d="m386.45 332.16v24.25h-236.92c-24.25 0-43.98-19.73-43.98-43.98v-135.57h22.08z" fill="#0ea88a"/><path d="m512 140.12v172.31c0 13.22-10.76 23.98-23.98 23.98h-338.49c-13.22 0-23.98-10.76-23.98-23.98v-172.31c0-13.22 10.76-23.98 23.98-23.98h338.49c13.22 0 23.98 10.76 23.98 23.98z" fill="#14bb87"/><path d="m512 140.12v172.31c0 13.22-10.76 23.98-23.98 23.98h-20c13.24 0 23.98-10.74 23.98-23.98v-172.31c0-13.24-10.74-23.98-23.98-23.98h20c13.22 0 23.98 10.76 23.98 23.98z" fill="#0ea88a"/><path d="m475.352 182.932c-16.362 0-29.675-13.304-29.675-29.656 0-4.143-3.357-7.5-7.5-7.5h-237.803c-4.143 0-7.5 3.357-7.5 7.5 0 16.353-13.312 29.656-29.674 29.656-4.143 0-7.5 3.357-7.5 7.5v71.688c0 4.143 3.357 7.5 7.5 7.5 16.362 0 29.674 13.304 29.674 29.656 0 4.143 3.357 7.5 7.5 7.5h237.803c4.143 0 7.5-3.357 7.5-7.5 0-16.353 13.313-29.656 29.675-29.656 4.143 0 7.5-3.357 7.5-7.5v-71.688c0-4.143-3.358-7.5-7.5-7.5z" fill="#09eaa3"/><path d="m318.775 185.444c-22.523 0-40.848 18.316-40.848 40.831s18.324 40.832 40.848 40.832 40.848-18.317 40.848-40.832-18.324-40.831-40.848-40.831z" fill="#14bb87"/><g><g><g><path d="m293.186 479.66c0 17.83-14.48 32.34-32.277 32.34h-228.632c-17.797 0-32.277-14.51-32.277-32.34s14.48-32.33 32.277-32.33h2.808l16.868-23.3c1.409-1.95 3.667-3.11 6.066-3.11 2.408 0 4.667 1.16 6.076 3.11l16.868 23.3h179.946c17.797.001 32.277 14.501 32.277 32.33z" fill="#ff6b81"/><path d="m293.186 479.66c0 17.83-14.48 32.34-32.277 32.34h-19.986c17.797 0 32.277-14.51 32.277-32.34s-14.48-32.33-32.277-32.33h19.986c17.797.001 32.277 14.501 32.277 32.33z" fill="#ed2061"/></g><g><path d="m512 32.34c0 17.83-14.48 32.33-32.277 32.33h-19.986l-16.868 23.3c-1.409 1.95-3.667 3.11-6.066 3.11-2.408 0-4.667-1.16-6.076-3.11l-16.858-23.3h-103.203c-17.797 0-32.277-14.5-32.277-32.33s14.48-32.34 32.277-32.34h169.057c17.797 0 32.277 14.51 32.277 32.34z" fill="#fbdf63"/><path d="m512 32.34c0 17.83-14.48 32.33-32.277 32.33h-19.986c17.797 0 32.277-14.5 32.277-32.33s-14.48-32.34-32.277-32.34h19.986c17.797 0 32.277 14.51 32.277 32.34z" fill="#ffa402"/></g></g><g fill="#90abbd"><path d="m471.879 429.572c0-4.143-3.358-7.5-7.502-7.5h-112.196c-4.144 0-7.502 3.357-7.502 7.5s3.358 7.5 7.502 7.5h112.196c4.144 0 7.502-3.357 7.502-7.5z"/><path d="m464.377 457.072h-51.135c-4.144 0-7.502 3.357-7.502 7.5s3.358 7.5 7.502 7.5h51.135c4.144 0 7.502-3.357 7.502-7.5s-3.358-7.5-7.502-7.5z"/><path d="m146.754 74.86h-98.446c-4.144 0-7.502 3.357-7.502 7.5s3.358 7.5 7.502 7.5h98.445c4.144 0 7.502-3.357 7.502-7.5s-3.358-7.5-7.501-7.5z"/><path d="m48.308 54.86h52.135c4.144 0 7.502-3.357 7.502-7.5s-3.358-7.5-7.502-7.5h-52.135c-4.144 0-7.502 3.357-7.502 7.5s3.359 7.5 7.502 7.5z"/></g></g></g></svg>