<svg id="Layer_1" enable-background="new 0 0 512 512" height="512" viewBox="0 0 512 512" width="512" xmlns="http://www.w3.org/2000/svg"><g><g><path d="m423.14 53.5v405c0 29.5-23.97 53.5-53.43 53.5h-227.67c-29.46 0-53.43-24-53.43-53.5v-405c0-29.5 23.97-53.5 53.43-53.5h227.67c29.46 0 53.43 24 53.43 53.5z" fill="#56788b"/><path d="m423.14 53.5v405c0 29.5-23.97 53.5-53.43 53.5h-20c29.46 0 53.43-24 53.43-53.5v-405c0-29.5-23.97-53.5-53.43-53.5h20c29.46 0 53.43 24 53.43 53.5z" fill="#415e6f"/><path d="m393.18 52.26v407.48c0 13.1-10.64 23.76-23.73 23.76h-227.15c-13.09 0-23.73-10.66-23.73-23.76v-407.48c0-13.1 10.64-23.76 23.73-23.76h23.71c3.25 0 6.14 2.1 7.14 5.2l5.87 18.23c1.46 4.53 5.62 7.57 10.37 7.57h132.97c4.74 0 8.91-3.04 10.37-7.57l5.87-18.23c1-3.1 3.88-5.2 7.14-5.2h23.71c13.09 0 23.73 10.66 23.73 23.76z" fill="#d9f0f4"/><path d="m393.18 52.26v407.48c0 13.1-10.64 23.76-23.73 23.76h-20c13.09 0 23.73-10.66 23.73-23.76v-407.48c0-13.1-10.64-23.76-23.73-23.76h20c13.09 0 23.73 10.66 23.73 23.76z" fill="#bae1e5"/><path d="m296.489 21.985h-81.231c-4.142 0-7.5 3.358-7.5 7.5s3.358 7.5 7.5 7.5h81.231c4.142 0 7.5-3.358 7.5-7.5s-3.358-7.5-7.5-7.5z" fill="#415e6f"/><path d="m296.489 434.722h-81.231c-4.142 0-7.5 3.358-7.5 7.5s3.358 7.5 7.5 7.5h81.231c4.142 0 7.5-3.358 7.5-7.5s-3.358-7.5-7.5-7.5z" fill="#56788b"/><path d="m171.75 120.7v75.62c0 12.64-10.28 22.93-22.91 22.93h-97.26l-39.54 30.08c-1.33 1.02-2.93 1.53-4.54 1.53-1.14 0-2.28-.25-3.33-.78-2.55-1.26-4.17-3.87-4.17-6.72v-122.66c0-12.64 10.28-22.93 22.91-22.93h125.93c12.63 0 22.91 10.29 22.91 22.93z" fill="#4dd4f7"/><path d="m171.75 120.7v75.62c0 12.64-10.28 22.93-22.91 22.93h-20c12.63 0 22.91-10.29 22.91-22.93v-75.62c0-12.64-10.28-22.93-22.91-22.93h20c12.63 0 22.91 10.29 22.91 22.93z" fill="#00c2f3"/><g fill="#fff"><path d="m125.815 133.444h-79.881c-4.142 0-7.5 3.358-7.5 7.5s3.358 7.5 7.5 7.5h79.881c4.142 0 7.5-3.358 7.5-7.5s-3.357-7.5-7.5-7.5z"/><path d="m115.831 167.444h-69.897c-4.142 0-7.5 3.358-7.5 7.5s3.358 7.5 7.5 7.5h69.896c4.142 0 7.5-3.358 7.5-7.5s-3.357-7.5-7.499-7.5z"/></g></g><path d="m512 146.21v216.85c0 12.57-10.23 22.8-22.8 22.8h-102.76l-28.3 35.66c-1.42 1.79-3.59 2.83-5.88 2.83-2.28 0-4.45-1.04-5.87-2.83l-28.3-35.66h-102.76c-12.57 0-22.8-10.23-22.8-22.8v-216.85c0-12.58 10.23-22.8 22.8-22.8h273.87c12.57 0 22.8 10.22 22.8 22.8z" fill="#ff6b81"/><path d="m398.567 226.166c-12.047-12.047-31.664-12.035-43.725.027l-2.578 2.578-2.578-2.578c-5.842-5.842-13.606-9.063-21.863-9.069h-.024c-8.25 0-16.005 3.211-21.836 9.042-5.838 5.837-9.049 13.601-9.043 21.86.006 8.257 3.228 16.022 9.07 21.865l42.739 42.74c.938.938 2.209 1.464 3.535 1.464s2.598-.527 3.535-1.464l42.74-42.74c12.064-12.063 12.076-31.678.028-43.725z" fill="#fff"/><g fill="#fbdf63"><path d="m245.737 307.386h32.143c4.143 0 7.5-3.358 7.5-7.5s-3.357-7.5-7.5-7.5h-32.143c-4.143 0-7.5 3.358-7.5 7.5s3.358 7.5 7.5 7.5z"/><path d="m297.851 327.386h-52.113c-4.143 0-7.5 3.358-7.5 7.5s3.357 7.5 7.5 7.5h52.113c4.143 0 7.5-3.358 7.5-7.5s-3.358-7.5-7.5-7.5z"/><path d="m458.793 202.374h-32.143c-4.143 0-7.5 3.358-7.5 7.5s3.357 7.5 7.5 7.5h32.143c4.143 0 7.5-3.358 7.5-7.5s-3.357-7.5-7.5-7.5z"/><path d="m466.293 174.874c0-4.142-3.357-7.5-7.5-7.5h-52.113c-4.143 0-7.5 3.358-7.5 7.5s3.357 7.5 7.5 7.5h52.113c4.143 0 7.5-3.358 7.5-7.5z"/></g><path d="m512 146.21v216.85c0 12.57-10.23 22.8-22.8 22.8h-20c12.57 0 22.8-10.23 22.8-22.8v-216.85c0-12.58-10.23-22.8-22.8-22.8h20c12.57 0 22.8 10.22 22.8 22.8z" fill="#ed2061"/></g></svg>