<svg id="Layer_1" enable-background="new 0 0 512 512" height="512" viewBox="0 0 512 512" width="512" xmlns="http://www.w3.org/2000/svg"><g><g><g><path d="m423.118 53.5v405c0 29.5-23.969 53.5-53.427 53.5h-227.658c-29.459 0-53.427-24-53.427-53.5v-405c-.001-29.5 23.968-53.5 53.427-53.5h227.658c29.458 0 53.427 24 53.427 53.5z" fill="#56788b"/><path d="m423.118 53.5v405c0 29.5-23.969 53.5-53.427 53.5h-19.999c29.458 0 53.427-24 53.427-53.5v-405c0-29.5-23.969-53.5-53.427-53.5h19.999c29.458 0 53.427 24 53.427 53.5z" fill="#415e6f"/><path d="m393.16 52.26v407.48c0 13.1-10.639 23.76-23.729 23.76h-227.138c-13.089 0-23.729-10.66-23.729-23.76v-407.48c0-13.1 10.639-23.76 23.729-23.76h23.709c3.25 0 6.14 2.1 7.14 5.2l5.87 18.23c1.46 4.53 5.62 7.57 10.369 7.57h132.963c4.74 0 8.91-3.04 10.37-7.57l5.87-18.23c1-3.1 3.88-5.2 7.14-5.2h23.709c13.087 0 23.727 10.66 23.727 23.76z" fill="#d9f0f4"/><path d="m393.16 52.26v407.48c0 13.1-10.639 23.76-23.729 23.76h-19.999c13.089 0 23.729-10.66 23.729-23.76v-407.48c0-13.1-10.639-23.76-23.729-23.76h19.999c13.089 0 23.729 10.66 23.729 23.76z" fill="#bae1e5"/><path d="m296.474 21.985h-81.227c-4.142 0-7.5 3.358-7.5 7.5s3.358 7.5 7.5 7.5h81.227c4.142 0 7.5-3.358 7.5-7.5s-3.358-7.5-7.5-7.5z" fill="#415e6f"/><path d="m296.474 434.722h-81.227c-4.142 0-7.5 3.358-7.5 7.5s3.358 7.5 7.5 7.5h81.227c4.142 0 7.5-3.358 7.5-7.5s-3.358-7.5-7.5-7.5z" fill="#56788b"/><path d="m171.741 120.7v75.62c0 12.64-10.279 22.93-22.909 22.93h-97.255l-39.538 30.08c-1.33 1.02-2.93 1.53-4.54 1.53-1.14 0-2.28-.25-3.33-.78-2.549-1.26-4.169-3.87-4.169-6.72v-122.66c0-12.64 10.28-22.93 22.909-22.93h125.924c12.629 0 22.908 10.29 22.908 22.93z" fill="#4dd4f7"/><path d="m171.741 120.7v75.62c0 12.64-10.279 22.93-22.909 22.93h-19.999c12.629 0 22.909-10.29 22.909-22.93v-75.62c0-12.64-10.279-22.93-22.909-22.93h19.999c12.63 0 22.909 10.29 22.909 22.93z" fill="#00c2f3"/><g fill="#fff"><path d="m125.809 133.444h-79.877c-4.142 0-7.5 3.358-7.5 7.5s3.358 7.5 7.5 7.5h79.877c4.142 0 7.5-3.358 7.5-7.5s-3.358-7.5-7.5-7.5z"/><path d="m115.825 167.444h-69.893c-4.142 0-7.5 3.358-7.5 7.5s3.358 7.5 7.5 7.5h69.893c4.142 0 7.5-3.358 7.5-7.5s-3.359-7.5-7.5-7.5z"/></g></g></g><g><path d="m455.597 183.28c-4.65-4.652-10.834-7.214-17.411-7.214s-12.761 2.562-17.411 7.214l-11.323 11.327c-2.929 2.929-2.929 7.676 0 10.605l24.216 24.224c1.406 1.407 3.314 2.197 5.303 2.197s3.897-.791 5.303-2.197l11.323-11.327c9.6-9.602 9.6-25.226 0-34.829z" fill="#ff6b81"/><path d="m333.092 344.881-39.037-39.051c-1.406-1.407-3.314-2.198-5.303-2.198s-3.897.791-5.303 2.198c-13.686 13.69-13.686 35.966 0 49.656 6.63 6.633 15.445 10.286 24.822 10.286 9.376 0 18.192-3.653 24.822-10.286 2.928-2.93 2.928-7.677-.001-10.605z" fill="#ff6b81"/><path d="m372.862 393.523c-1.421.332-2.842.495-4.256.495-4.836 0-9.51-1.902-13.031-5.423l-14.141-14.142-91.071-91.118c-4.561-4.561-6.406-11.031-4.935-17.31 1.471-6.265 5.982-11.243 12.091-13.308l33.876-11.476 36.053-36.07c14.191-14.192 33.063-22.019 53.129-22.019 16.694.007 32.568 5.417 45.585 15.408 2.637 2.015 5.155 4.221 7.544 6.611 14.198 14.199 22.018 33.078 22.011 53.153.007 20.089-7.813 38.969-22.004 53.16l-36.061 36.062-11.454 33.885c-.007.007-.007.007-.007.007-2.072 6.103-7.057 10.621-13.329 12.085z" fill="#fbdf63"/><path d="m386.191 381.438c-2.072 6.102-7.057 10.621-13.328 12.084-1.421.332-2.842.495-4.256.495-4.836 0-9.51-1.902-13.031-5.423l-14.007-14.008c3.507 3.437 8.117 5.289 12.897 5.289 1.414 0 2.835-.163 4.256-.495 6.272-1.464 11.257-5.982 13.328-12.084 0 0 0 0 .007-.007l11.455-33.885 36.061-36.062c14.191-14.192 22.011-33.071 22.004-53.16.007-16.709-5.409-32.59-15.414-45.622 2.637 2.015 5.155 4.221 7.544 6.611 14.198 14.199 22.018 33.078 22.011 53.153.007 20.089-7.813 38.969-22.004 53.16l-36.061 36.062-11.454 33.885c-.008.007-.008.007-.008.007z" fill="#ffa402"/></g><g fill="#ff6b81"><path d="m313.255 158.372c-12.404 0-22.494 10.093-22.494 22.5 0 4.142 3.357 7.5 7.5 7.5s7.5-3.358 7.5-7.5c0-4.136 3.362-7.5 7.495-7.5 4.142 0 7.5-3.358 7.5-7.5s-3.358-7.5-7.501-7.5z"/><path d="m313.255 126.764c-29.826 0-54.091 24.273-54.091 54.108 0 4.142 3.357 7.5 7.5 7.5s7.5-3.358 7.5-7.5c0-21.564 17.536-39.108 39.092-39.108 4.142 0 7.5-3.358 7.5-7.5s-3.358-7.5-7.501-7.5z"/><path d="m457.909 348.078c12.404 0 22.494-10.093 22.494-22.5 0-4.142-3.357-7.5-7.5-7.5s-7.5 3.358-7.5 7.5c0 4.136-3.362 7.5-7.495 7.5-4.142 0-7.5 3.358-7.5 7.5s3.359 7.5 7.501 7.5z"/><path d="m504.5 318.078c-4.142 0-7.5 3.358-7.5 7.5 0 21.564-17.536 39.108-39.092 39.108-4.142 0-7.5 3.358-7.5 7.5s3.357 7.5 7.5 7.5c29.826 0 54.091-24.273 54.091-54.108.001-4.142-3.356-7.5-7.499-7.5z"/></g><g fill="#90abbd"><path d="m170.704 369.4h32.143c4.142 0 7.5-3.358 7.5-7.5s-3.358-7.5-7.5-7.5h-32.143c-4.142 0-7.5 3.358-7.5 7.5s3.357 7.5 7.5 7.5z"/><path d="m222.817 389.4h-52.113c-4.142 0-7.5 3.358-7.5 7.5s3.358 7.5 7.5 7.5h52.113c4.142 0 7.5-3.358 7.5-7.5s-3.358-7.5-7.5-7.5z"/></g></g></svg>