<svg id="Layer_1" enable-background="new 0 0 512 512" height="512" viewBox="0 0 512 512" width="512" xmlns="http://www.w3.org/2000/svg"><g><path d="m481.88 53.54v404.92c0 29.52-23.95 53.54-53.39 53.54h-345.23c-29.44 0-53.38-24.02-53.38-53.54v-404.92c0-29.52 23.94-53.54 53.38-53.54h345.23c29.44 0 53.39 24.02 53.39 53.54z" fill="#4dd4f7"/><path d="m481.88 53.54v404.92c0 29.52-23.95 53.54-53.39 53.54h-20c29.44 0 53.39-24.02 53.39-53.54v-404.92c0-29.52-23.95-53.54-53.39-53.54h20c29.44 0 53.39 24.02 53.39 53.54z" fill="#00c2f3"/><path d="m451.95 83.32v376.38c0 13.11-10.63 23.77-23.71 23.77h-344.72c-13.08 0-23.72-10.66-23.72-23.77v-376.38c0-13.1 10.64-23.77 23.72-23.77h344.72c13.08 0 23.71 10.67 23.71 23.77z" fill="#d9f0f4"/><path d="m451.95 83.32v376.38c0 13.11-10.63 23.77-23.71 23.77h-20c13.08 0 23.71-10.66 23.71-23.77v-376.38c0-13.1-10.63-23.77-23.71-23.77h20c13.08 0 23.71 10.67 23.71 23.77z" fill="#bae1e5"/><path d="m334.582 284.015-78.705-20-78.705 20c-8.214 31.908-4.999 57.23 9.522 75.18 9.44 11.669 23.251 19.762 41.05 24.053 6.147 1.482 15.963 3.251 27.819 3.184v.001c11.619 0 22.391-1.725 28.446-3.185 17.799-4.291 31.61-12.384 41.05-24.053 14.522-17.951 17.737-43.272 9.523-75.18z" fill="#fdd9b4"/><path d="m336.029 220.458c1.038-3.261 1.573-6.682 1.573-10.141 0-18.414-14.978-33.394-33.388-33.394-4.406 0-8.697.851-12.691 2.495-5.179-5.558-12.474-8.812-20.329-8.812-7.187 0-13.973 2.8-19.049 7.56-5.885-4.836-13.317-7.56-21.175-7.56-12.501 0-23.764 6.996-29.471 17.686-1.17-.149-2.354-.224-3.549-.224-15.338 0-27.817 12.481-27.817 27.822 0 3.884.808 7.683 2.34 11.175-10.263 7.864-16.38 20.037-16.38 33.335 0 23.189 18.861 42.055 42.043 42.055 14.282 0 27.236-7.088 34.93-18.611 6.098 2.98 12.792 4.528 19.733 4.528 7.178 0 14.08-1.65 20.332-4.823 8.358 12.072 22.217 19.521 37.246 19.521 24.969 0 45.283-20.317 45.283-45.291.001-14.981-7.515-28.954-19.631-37.321z" fill="#f79e60"/><path d="m275.792 330.983c-3.479-2.244-8.122-1.245-10.368 2.236-2.106 3.265-5.675 5.214-9.546 5.214s-7.439-1.949-9.546-5.214c-2.246-3.481-6.889-4.481-10.368-2.236-3.48 2.246-4.482 6.888-2.236 10.368 4.881 7.566 13.162 12.083 22.15 12.083 8.989 0 17.27-4.517 22.151-12.083 2.245-3.48 1.243-8.122-2.237-10.368z" fill="#fab684"/><g fill="#00c2f3"><path d="m123.252 22.332h-30.639c-4.142 0-7.5 3.358-7.5 7.5s3.358 7.5 7.5 7.5h30.639c4.142 0 7.5-3.358 7.5-7.5s-3.358-7.5-7.5-7.5z"/><path d="m183.252 22.332h-30.639c-4.142 0-7.5 3.358-7.5 7.5s3.358 7.5 7.5 7.5h30.639c4.142 0 7.5-3.358 7.5-7.5s-3.358-7.5-7.5-7.5z"/></g><g fill="#90abbd"><path d="m112.302 403.542h32.143c4.142 0 7.5-3.358 7.5-7.5s-3.358-7.5-7.5-7.5h-32.143c-4.142 0-7.5 3.358-7.5 7.5s3.358 7.5 7.5 7.5z"/><path d="m164.415 423.574h-52.113c-4.142 0-7.5 3.358-7.5 7.5s3.358 7.5 7.5 7.5h52.113c4.142 0 7.5-3.358 7.5-7.5s-3.358-7.5-7.5-7.5z"/><path d="m399.396 139.539h-32.143c-4.142 0-7.5 3.358-7.5 7.5s3.358 7.5 7.5 7.5h32.143c4.142 0 7.5-3.358 7.5-7.5s-3.358-7.5-7.5-7.5z"/><path d="m406.896 112.007c0-4.142-3.358-7.5-7.5-7.5h-52.113c-4.142 0-7.5 3.358-7.5 7.5s3.358 7.5 7.5 7.5h52.113c4.142 0 7.5-3.358 7.5-7.5z"/></g><path d="m151.75 128.54v75.68c0 12.65-10.27 22.94-22.9 22.94h-77.26l-39.54 30.12c-1.33 1.01-2.93 1.53-4.55 1.53-1.13 0-2.27-.26-3.33-.78-2.55-1.27-4.17-3.87-4.17-6.72v-122.77c0-12.65 10.28-22.95 22.91-22.95h105.94c12.63 0 22.9 10.3 22.9 22.95z" fill="#ff6b81"/><g fill="#fff"><path d="m107.819 141.297h-62.881c-4.142 0-7.5 3.358-7.5 7.5s3.358 7.5 7.5 7.5h62.881c4.142 0 7.5-3.358 7.5-7.5s-3.357-7.5-7.5-7.5z"/><path d="m97.834 175.328h-52.896c-4.142 0-7.5 3.358-7.5 7.5s3.358 7.5 7.5 7.5h52.896c4.142 0 7.5-3.358 7.5-7.5s-3.358-7.5-7.5-7.5z"/></g><path d="m512 386.84c0 17.84-14.49 32.36-32.29 32.36h-60.48l-16.87 23.32c-1.41 1.95-3.67 3.11-6.08 3.11s-4.67-1.16-6.08-3.11l-16.87-23.32h-2.81c-17.81 0-32.3-14.52-32.3-32.36s14.49-32.36 32.3-32.36h109.19c17.8 0 32.29 14.52 32.29 32.36z" fill="#fbdf63"/><path d="m512 386.84c0 17.84-14.49 32.36-32.29 32.36h-20c17.8 0 32.29-14.52 32.29-32.36s-14.49-32.36-32.29-32.36h20c17.8 0 32.29 14.52 32.29 32.36z" fill="#ffa402"/><path d="m151.75 128.54v75.68c0 12.65-10.27 22.94-22.9 22.94h-20c12.63 0 22.9-10.29 22.9-22.94v-75.68c0-12.65-10.27-22.95-22.9-22.95h20c12.63 0 22.9 10.3 22.9 22.95z" fill="#ed2061"/></g></svg>