<svg id="Layer_1" enable-background="new 0 0 512 512" height="512" viewBox="0 0 512 512" width="512" xmlns="http://www.w3.org/2000/svg"><g><g><g><path d="m481.88 53.54v404.92c0 29.52-23.95 53.54-53.39 53.54h-345.23c-29.44 0-53.38-24.02-53.38-53.54v-404.92c0-29.52 23.94-53.54 53.38-53.54h345.23c29.44 0 53.39 24.02 53.39 53.54z" fill="#f79e60"/><path d="m481.88 53.54v404.92c0 29.52-23.95 53.54-53.39 53.54h-20c29.44 0 53.39-24.02 53.39-53.54v-404.92c0-29.52-23.95-53.54-53.39-53.54h20c29.44 0 53.39 24.02 53.39 53.54z" fill="#d77d41"/><path d="m451.95 83.32v376.38c0 13.11-10.63 23.77-23.71 23.77h-344.72c-13.08 0-23.72-10.66-23.72-23.77v-376.38c0-13.1 10.64-23.77 23.72-23.77h344.72c13.08 0 23.71 10.67 23.71 23.77z" fill="#d9f0f4"/><path d="m451.95 83.32v376.38c0 13.11-10.63 23.77-23.71 23.77h-20c13.08 0 23.71-10.66 23.71-23.77v-376.38c0-13.1-10.63-23.77-23.71-23.77h20c13.08 0 23.71 10.67 23.71 23.77z" fill="#bae1e5"/><g fill="#d77d41"><path d="m123.252 22.332h-30.639c-4.142 0-7.5 3.358-7.5 7.5s3.358 7.5 7.5 7.5h30.639c4.142 0 7.5-3.358 7.5-7.5s-3.358-7.5-7.5-7.5z"/><path d="m183.252 22.332h-30.639c-4.142 0-7.5 3.358-7.5 7.5s3.358 7.5 7.5 7.5h30.639c4.142 0 7.5-3.358 7.5-7.5s-3.358-7.5-7.5-7.5z"/></g><g fill="#90abbd"><path d="m112.302 403.542h32.143c4.142 0 7.5-3.358 7.5-7.5s-3.358-7.5-7.5-7.5h-32.143c-4.142 0-7.5 3.358-7.5 7.5s3.358 7.5 7.5 7.5z"/><path d="m164.415 423.574h-52.113c-4.142 0-7.5 3.358-7.5 7.5s3.358 7.5 7.5 7.5h52.113c4.142 0 7.5-3.358 7.5-7.5s-3.358-7.5-7.5-7.5z"/><path d="m399.396 139.539h-32.143c-4.142 0-7.5 3.358-7.5 7.5s3.358 7.5 7.5 7.5h32.143c4.142 0 7.5-3.358 7.5-7.5s-3.358-7.5-7.5-7.5z"/><path d="m406.896 112.007c0-4.142-3.358-7.5-7.5-7.5h-52.113c-4.142 0-7.5 3.358-7.5 7.5s3.358 7.5 7.5 7.5h52.113c4.142 0 7.5-3.358 7.5-7.5z"/></g><path d="m151.75 128.54v75.68c0 12.65-10.27 22.94-22.9 22.94h-77.26l-39.54 30.12c-1.33 1.01-2.93 1.53-4.55 1.53-1.13 0-2.27-.26-3.33-.78-2.55-1.27-4.17-3.87-4.17-6.72v-122.77c0-12.65 10.28-22.95 22.91-22.95h105.94c12.63 0 22.9 10.3 22.9 22.95z" fill="#fbdf63"/><g fill="#fff"><path d="m107.819 141.297h-62.881c-4.142 0-7.5 3.358-7.5 7.5s3.358 7.5 7.5 7.5h62.881c4.142 0 7.5-3.358 7.5-7.5s-3.357-7.5-7.5-7.5z"/><path d="m97.834 175.328h-52.896c-4.142 0-7.5 3.358-7.5 7.5s3.358 7.5 7.5 7.5h52.896c4.142 0 7.5-3.358 7.5-7.5s-3.358-7.5-7.5-7.5z"/></g><path d="m512 386.84c0 17.84-14.49 32.36-32.29 32.36h-60.48l-16.87 23.32c-1.41 1.95-3.67 3.11-6.08 3.11s-4.67-1.16-6.08-3.11l-16.87-23.32h-2.81c-17.81 0-32.3-14.52-32.3-32.36s14.49-32.36 32.3-32.36h109.19c17.8 0 32.29 14.52 32.29 32.36z" fill="#4dd4f7"/><path d="m512 386.84c0 17.84-14.49 32.36-32.29 32.36h-20c17.8 0 32.29-14.52 32.29-32.36s-14.49-32.36-32.29-32.36h20c17.8 0 32.29 14.52 32.29 32.36z" fill="#00c2f3"/><path d="m151.75 128.54v75.68c0 12.65-10.27 22.94-22.9 22.94h-20c12.63 0 22.9-10.29 22.9-22.94v-75.68c0-12.65-10.27-22.95-22.9-22.95h20c12.63 0 22.9 10.3 22.9 22.95z" fill="#ffa402"/></g></g><path d="m300.353 171.786c-4.313-17.809-22.447-30.247-44.1-30.247s-39.787 12.438-44.1 30.247c-3.451 14.253 3.164 27.614 17.265 34.868 1.062.546 2.238.831 3.431.831h46.807c1.193 0 2.37-.285 3.431-.831 14.101-7.255 20.717-20.615 17.266-34.868z" fill="#fff"/><path d="m331.275 280.977-70.911-50.734c-2.61-1.868-6.119-1.867-8.728 0l-70.912 50.734c-1.968 1.408-3.136 3.68-3.136 6.1 0 41.924 9.88 72.913 29.367 92.106 18.696 18.416 40.389 20.104 48.856 19.977v.006c8.984 0 31.121-2.144 49.232-19.983 19.486-19.193 29.367-50.182 29.367-92.106.001-2.42-1.167-4.692-3.135-6.1z" fill="#fdd9b4"/><path d="m324.622 212.152c-21.032-22.433-52.103-21.44-65.365-21.014-1.293.041-2.391.078-3.257.078s-1.964-.037-3.256-.078c-13.268-.428-44.334-1.419-65.366 21.014-15.683 16.728-21.94 42.734-18.596 77.296.198 2.042 1.223 3.914 2.837 5.18 1.615 1.267 3.677 1.815 5.708 1.52.85-.124 21.058-3.123 41.589-11.358 13.323-5.344 28.322-13.636 37.084-25.82 8.763 12.184 23.762 20.476 37.084 25.82 20.531 8.235 40.739 11.234 41.59 11.358.359.052.72.078 1.079.078 1.668 0 3.3-.556 4.628-1.598 1.614-1.266 2.64-3.138 2.837-5.18 3.344-34.562-2.912-60.568-18.596-77.296z" fill="#fff"/><g fill="#d9f0f4"><ellipse cx="226.397" cy="324.774" rx="25.355" ry="17.303"/><ellipse cx="286.108" cy="324.774" rx="25.355" ry="17.303"/></g><g><path d="m333.843 317.274h-16.351c-4.118-10.133-16.437-17.303-31.383-17.303-13.407 0-24.699 5.769-29.855 14.271-5.156-8.501-16.449-14.271-29.855-14.271-14.947 0-27.265 7.171-31.383 17.303h-16.857c-4.142 0-7.5 3.358-7.5 7.5s3.358 7.5 7.5 7.5h16.857c4.118 10.133 16.437 17.303 31.383 17.303 13.407 0 24.699-5.769 29.855-14.271 5.156 8.501 16.449 14.271 29.855 14.271 14.947 0 27.265-7.171 31.383-17.303h16.351c4.143 0 7.5-3.358 7.5-7.5s-3.358-7.5-7.5-7.5zm-107.446 17.303c-10.219 0-17.855-5.176-17.855-9.803s7.636-9.803 17.855-9.803 17.855 5.176 17.855 9.803-7.635 9.803-17.855 9.803zm59.711 0c-10.22 0-17.855-5.176-17.855-9.803s7.636-9.803 17.855-9.803 17.855 5.176 17.855 9.803-7.635 9.803-17.855 9.803z" fill="#56788b"/></g></g></svg>