<svg id="Layer_1" enable-background="new 0 0 512 512" height="512" viewBox="0 0 512 512" width="512" xmlns="http://www.w3.org/2000/svg"><g><path d="m511.996 266.262c0 3.389-.13 82.056-10.48 121.4-6.44 23.9-25.25 42.702-49.11 49.12-4.31 1.13-9.94 2.139-16.56 3.049h-.03c-54.05 7.347-174.129 7.447-179.819 7.447-6.37 0-156.609-.13-196.419-10.905-23.84-6.417-42.66-25.22-49.08-49.08-10.378-38.985-10.498-118.092-10.498-121.441 0-3.339.12-82.046 10.48-121.41 6.38-23.67 25.63-43.092 49.08-49.52 39.45-10.376 190.049-10.496 196.439-10.496 5.64 0 123.149.09 178.029 7.487 7.43 1 13.71 2.129 18.41 3.419 23.83 6.408 42.64 25.21 49.07 49.07 10.748 39.264 10.508 118.051 10.488 121.86z" fill="#d9f0f4"/><path d="m501.506 144.402c10.75 39.264 10.51 118.051 10.49 121.859 0 3.389-.13 82.056-10.48 121.4-6.44 23.9-25.25 42.702-49.11 49.12-4.31 1.13-9.94 2.139-16.56 3.049 22.12-7.747 39.31-26.889 45.46-49.689 10.56-40.144 10.69-120.41 10.69-123.869.02-3.888.26-84.275-10.7-124.338-6.31-23.4-24.29-42.762-47.27-50.019 7.43 1 13.71 2.129 18.41 3.419 23.831 6.406 42.641 25.208 49.07 49.068z" fill="#bae1e5"/><path d="m481.997 266.112v.14c0 21.581-1.7 84.065-9.47 113.683-3.68 13.544-14.34 24.2-27.81 27.858-4.26 1.11-10.3 2.099-17.65 2.979-43.97 5.258-134.739 6.517-171.069 6.517-42.33 0-158.729-1.779-188.619-9.876-13.56-3.649-24.25-14.314-27.89-27.828-7.769-29.188-9.489-91.992-9.489-113.733 0-21.571 1.7-84.055 9.47-113.673 3.67-13.504 14.59-24.58 27.85-28.288.05-.01.09-.02.14-.03 29.87-7.747 146.229-9.446 188.539-9.446 36.25 0 126.609 1.29 170.569 6.697 7.5.92 13.65 1.969 17.95 3.139 13.66 3.678 24.36 14.374 28.02 27.948l.02.09c8.048 29.388 9.539 92.092 9.439 113.823z" fill="#ff6b81"/><path d="m472.557 152.289c8.05 29.388 9.54 92.092 9.44 113.823v.14c0 21.581-1.7 84.065-9.47 113.683-3.68 13.544-14.34 24.2-27.81 27.858-4.26 1.11-10.3 2.099-17.65 2.979 10.72-5.088 18.91-14.714 22.1-26.409 8.06-30.777 9.83-95.68 9.83-118.091v-.15c.11-22.571-1.45-87.714-9.8-118.231l-.03-.09c-3.2-11.865-11.57-21.621-22.6-26.689 7.5.92 13.65 1.969 17.95 3.139 13.66 3.678 24.36 14.374 28.02 27.948z" fill="#ed2061"/><path d="m323.66 259.353-97.54-56.158c-2.32-1.336-5.18-1.334-7.496.006-2.319 1.34-3.747 3.813-3.747 6.49v112.317c0 2.677 1.428 5.151 3.747 6.49 1.161.671 2.457 1.006 3.753 1.006 1.292 0 2.585-.333 3.743-1.001l97.54-56.158c2.324-1.338 3.757-3.815 3.757-6.496s-1.433-5.158-3.757-6.496z" fill="#fff"/><path d="m448.997 24.93v95.55c0 13.754-11.18 24.93-24.94 24.93h-52.57l-16.05 23.111c-1.4 2.019-3.7 3.229-6.16 3.229s-4.76-1.21-6.16-3.229l-16.04-23.111h-52.58c-13.75 0-24.94-11.175-24.94-24.93v-95.55c0-13.744 11.19-24.93 24.94-24.93h149.559c13.761 0 24.941 11.185 24.941 24.93z" fill="#4dd4f7"/><path d="m381.557 48.01c-.001 0-.001-.001 0 0-8.737-8.733-22.961-8.725-31.706.018l-.573.573-.573-.573c-4.235-4.234-9.865-6.568-15.852-6.573h-.017c-5.983 0-11.607 2.328-15.835 6.555-4.233 4.231-6.562 9.859-6.559 15.845.005 5.985 2.34 11.612 6.576 15.846l28.724 28.712c.976.976 2.256 1.464 3.535 1.464s2.56-.488 3.535-1.464l28.724-28.713c8.747-8.741 8.756-22.957.021-31.69z" fill="#fff"/><path d="m280.488 420.488v68.592c0 12.635-10.29 22.92-22.92 22.92h-146.039c-12.64 0-22.92-10.286-22.92-22.92v-115.613c0-2.849 1.62-5.448 4.17-6.717s5.6-.97 7.87.75l39.58 30.078h117.339c12.63-.001 22.92 10.275 22.92 22.91z" fill="#fbdf63"/><g fill="#fff"><path d="m236.866 466.089h-99.943c-4.143 0-7.5 3.357-7.5 7.497s3.357 7.497 7.5 7.497h99.943c4.143 0 7.5-3.357 7.5-7.497s-3.357-7.497-7.5-7.497z"/><path d="m136.924 447.097h89.951c4.143 0 7.5-3.357 7.5-7.497s-3.357-7.497-7.5-7.497h-89.951c-4.143 0-7.5 3.357-7.5 7.497 0 4.141 3.357 7.497 7.5 7.497z"/></g><path d="m448.997 24.93v95.55c0 13.754-11.18 24.93-24.94 24.93h-20c13.76 0 24.94-11.175 24.94-24.93v-95.55c0-13.744-11.18-24.93-24.94-24.93h20c13.76 0 24.94 11.185 24.94 24.93z" fill="#00c2f3"/><path d="m280.488 420.488v68.592c0 12.635-10.29 22.92-22.92 22.92h-20c12.63 0 22.92-10.286 22.92-22.92v-68.592c0-12.635-10.29-22.91-22.92-22.91h20c12.63-.001 22.92 10.275 22.92 22.91z" fill="#ffa402"/></g></svg>