<svg id="Layer_1" enable-background="new 0 0 512 512" height="512" viewBox="0 0 512 512" width="512" xmlns="http://www.w3.org/2000/svg"><g><g><g fill="#ff6b81"><path d="m225.598 210.782c-6.129-.731-12.364-1.123-18.598-1.123h-1.105l-120.652 80.469 27.1 125.733 33.104-16.121c-7.129-10.945-11.346-23.898-11.547-37.855-.602-40.366 32.333-73.301 73.1-73.301 5.805 0 11.452.682 16.866 1.931 3.132.723 6.128-1.616 6.128-4.83v-69.955c0-2.525-1.89-4.649-4.396-4.948z"/><path d="m344.372 23.095h-6.737c6.025 30.224 22.994 56.532 46.692 74.405-14.725-19.475-32.918-43.533-35.007-69.88-.204-2.565-2.375-4.525-4.948-4.525z"/><path d="m477.219 146.001c-6.227-.254-12.289-.991-18.287-2.111l-143.507 15.865-16.177 87.009-19.174 189.191-190.859 21.22c3.012 3.615 6.226 7.129 9.74 10.543 28.92 28.517 67.277 44.282 108.145 44.282 7.732 0 15.463-.602 22.994-1.707 32.132-4.719 61.753-19.48 85.149-42.575 28.718-28.417 44.583-66.071 44.784-106.236l-1.506-178.633c13.656 10.543 28.617 19.379 44.784 26.107 23.439 9.884 48.201 15.267 73.625 15.902 2.794.07 5.098-2.183 5.098-4.978v-68.914c-.001-2.681-2.129-4.856-4.809-4.965z"/></g><g fill="#4dd4f7"><path d="m201.389 187.675c-6.094-.722-12.291-1.109-18.488-1.109-40.968 0-79.426 15.765-108.344 44.482-28.417 28.216-44.683 66.774-44.583 106.838 0 40.366 15.966 78.221 44.784 106.838 4.619 4.519 9.338 8.736 14.359 12.551l14.449-179.063 102.33-68.553v-16.915c-.001-2.586-1.938-4.765-4.507-5.069z"/><path d="m384.427 97.5c17.974 23.697 44.282 40.566 74.506 46.39v-16.618c0-2.678-2.123-4.859-4.798-4.961-26.081-.993-50.213-10.048-69.708-24.811z"/><path d="m330.356 0h-69.282c-2.746 0-4.973 2.226-4.973 4.973v213.222l-.1 119.49c0 31.931-20.986 59.042-50.106 68.581-8.435 2.812-17.572 4.117-27.111 3.514-12.15-.703-23.496-4.318-33.337-10.142l-7.782 47.141 154.268-15.27 45.702-408.416c-1.2-6.001-1.954-12.065-2.262-18.295-.132-2.682-2.33-4.798-5.017-4.798z"/></g><path d="m205.895 487.198c32.132-4.719 61.753-19.48 85.149-42.575 28.718-28.417 44.583-66.071 44.784-106.236l-.402-178.633c13.656 10.543 28.617 19.379 44.784 26.107 25.003 10.543 51.511 15.965 78.723 15.965v-57.936c-30.224-5.824-56.532-22.693-74.506-46.39-23.697-17.873-40.767-44.181-46.692-74.405h-52.505c-2.779 0-5.031 2.252-5.031 5.031v213.164l-.1 119.49c0 31.931-20.986 59.042-50.106 68.581-8.435 2.812-17.572 4.117-27.111 3.514-24.099-1.305-45.085-14.258-57.436-33.236-20.986-12.451-35.245-35.044-35.646-60.95-.602-40.366 32.333-73.301 73.1-73.301 5.736 0 11.319.666 16.675 1.887 3.231.737 6.319-1.667 6.319-4.982v-52.733c-40.566.301-78.622 16.066-107.24 44.482-28.417 28.216-44.683 66.774-44.583 106.738 0 35.546 12.351 69.284 35.144 96.295 26.71 20.584 59.343 31.73 93.684 31.73 7.733.1 15.465-.502 22.996-1.607z" fill="#56788b"/></g><g><path d="m228.54 22.93v99.37c0 12.65-10.28 22.93-22.91 22.93h-107.26l-39.54 30.09c-1.33 1.01-2.93 1.53-4.54 1.53-1.14 0-2.28-.26-3.33-.78-2.56-1.27-4.17-3.87-4.17-6.72v-146.42c0-12.64 10.27-22.93 22.9-22.93h135.94c12.63 0 22.91 10.29 22.91 22.93z" fill="#fbdf63"/><path d="m169.941 45.44c-4.229-4.229-9.852-6.558-15.835-6.558h-.017c-5.987.005-11.617 2.34-15.853 6.576l-.573.573-.573-.573c-8.746-8.746-22.969-8.754-31.706-.018-8.736 8.736-8.728 22.959.019 31.705l28.724 28.724c.977.976 2.256 1.464 3.536 1.464 1.279 0 2.559-.488 3.536-1.464l28.725-28.724c8.744-8.747 8.753-22.969.017-31.705z" fill="#ff6b81"/><path d="m228.54 22.93v99.37c0 12.65-10.28 22.93-22.91 22.93h-20c12.63 0 22.91-10.28 22.91-22.93v-99.37c0-12.64-10.28-22.93-22.91-22.93h20c12.63 0 22.91 10.29 22.91 22.93z" fill="#ffa402"/></g></g></svg>