<svg id="Layer_1" enable-background="new 0 0 512 512" height="512" viewBox="0 0 512 512" width="512" xmlns="http://www.w3.org/2000/svg"><g><path d="m510.739 106.02c-13.48 20.18-30.1 37.76-49.46 52.31.1 3.11.15 6.29.15 9.5 0 72.22-27.92 145.32-76.61 200.55-26.41 29.97-57.84 53.52-93.41 70-38.71 17.93-81.56 27.04-127.359 27.08h-.24c-56.94 0-112.389-16.25-160.359-46.99-2.94-1.89-4.19-5.55-3.01-8.84s4.47-5.34 7.94-4.92c7.65.9 15.54 1.35 23.45 1.35 38.23 0 74.62-10.62 106.299-30.9-38.15-7.89-69.86-35.72-82.06-73.78-.81-2.52-.22-5.28 1.53-7.26 1.76-1.98 4.43-2.89 7.03-2.39 3.96.76 7.95 1.27 11.94 1.52-34.1-18.87-56.61-55.27-56.61-95.86 0-.55 0-1.05.02-1.57.09-2.61 1.54-4.98 3.81-6.27 2.27-1.28 5.05-1.29 7.33-.02 5.59 3.11 11.5 5.64 17.59 7.55-17.8-19.85-27.93-45.75-27.93-73.12 0-19.31 5.13-38.33 14.82-55.02 1.24-2.13 3.44-3.52 5.9-3.71 2.45-.19 4.84.83 6.4 2.74 48.48 59.48 119.209 96.72 195.249 103.15-.68-4.97-1.02-10.03-1.02-15.13 0-60.35 49.11-109.45 109.469-109.45 6.81 0 13.56.64 20.17 1.89 21.31 4.02 41.18 14.31 56.76 29.65 20.6-4.5 40.23-12.24 58.43-23.02 2.68-1.59 6.06-1.36 8.5.58 2.43 1.94 3.41 5.19 2.47 8.15-4.93 15.38-13.17 29.35-24.04 41.04 9.44-2.59 18.65-5.87 27.56-9.83 3.06-1.36 6.64-.53 8.79 2.02s2.351 6.22.501 9z" fill="#4dd4f7"/><g><path d="m268.87 32.36c0 17.84-14.49 32.36-32.3 32.36h-20l-16.88 23.32c-1.41 1.95-3.67 3.1-6.08 3.1-2.4 0-4.66-1.15-6.07-3.1l-16.88-23.32h-73.28c-17.81 0-32.3-14.52-32.3-32.36s14.49-32.36 32.3-32.36h139.19c17.81 0 32.3 14.52 32.3 32.36z" fill="#ff6b81"/><path d="m511.999 479.64c0 17.84-14.49 32.36-32.3 32.36h-139.19c-17.81 0-32.29-14.52-32.29-32.36s14.48-32.36 32.29-32.36h73.29l16.87-23.32c1.41-1.95 3.67-3.1 6.08-3.1 2.4 0 4.67 1.15 6.08 3.1l16.87 23.32h20c17.81 0 32.3 14.52 32.3 32.36z" fill="#fbdf63"/></g><path d="m420.895 186.49c-4.118-.439-7.811 2.551-8.246 6.671-.055.521-5.863 52.726-37.127 106.658-18.28 31.533-41.553 57.368-69.174 76.79-34.542 24.288-76.133 38.625-123.62 42.612-4.128.347-7.193 3.974-6.846 8.101.329 3.915 3.607 6.873 7.465 6.873.21 0 .422-.009.636-.027 50.174-4.213 94.246-19.451 130.993-45.289 29.41-20.679 54.147-48.112 73.524-81.537 32.853-56.671 38.829-110.348 39.067-112.605.434-4.12-2.553-7.812-6.672-8.247z" fill="#00c2f3"/><path d="m373.864 108.516c-3.479-2.246-8.121-1.246-10.368 2.235-2.107 3.265-5.676 5.214-9.547 5.214s-7.44-1.949-9.546-5.214c-2.246-3.481-6.888-4.481-10.369-2.236-3.48 2.246-4.481 6.888-2.236 10.369 4.881 7.565 13.162 12.082 22.151 12.082 8.988 0 17.268-4.517 22.15-12.082 2.247-3.48 1.246-8.122-2.235-10.368z" fill="#00c2f3"/><path d="m511.999 479.64c0 17.84-14.49 32.36-32.3 32.36h-20c17.81 0 32.3-14.52 32.3-32.36s-14.49-32.36-32.3-32.36h20c17.81 0 32.3 14.52 32.3 32.36z" fill="#ffa402"/><path d="m268.87 32.36c0 17.84-14.49 32.36-32.3 32.36h-20c17.81 0 32.3-14.52 32.3-32.36s-14.49-32.36-32.3-32.36h20c17.81 0 32.3 14.52 32.3 32.36z" fill="#ed2061"/><path d="m510.739 106.02c-13.48 20.18-30.1 37.76-49.46 52.31.1 3.11.15 6.29.15 9.5 0 72.22-27.92 145.32-76.61 200.55-26.41 29.97-57.84 53.52-93.41 70-38.71 17.93-81.56 27.04-127.359 27.08h-.24c-56.94 0-112.389-16.25-160.359-46.99-2.94-1.89-4.19-5.55-3.01-8.84 449.238 167.21 524.387-322.73 371.328-361.2 21.31 4.02 41.18 14.31 56.76 29.65 20.6-4.5 40.23-12.24 58.43-23.02 2.68-1.59 6.06-1.36 8.5.58 2.43 1.94 3.41 5.19 2.47 8.15-4.93 15.38-13.17 29.35-24.04 41.04 9.44-2.59 18.65-5.87 27.56-9.83 3.06-1.36 6.64-.53 8.79 2.02 2.149 2.55 2.35 6.22.5 9z" fill="#00c2f3"/></g></svg>