<svg id="Layer_1" enable-background="new 0 0 512 512" height="512" viewBox="0 0 512 512" width="512" xmlns="http://www.w3.org/2000/svg"><g><g><path d="m491.46 261.179h-470.92c-11.33 0-20.54 9.209-20.54 20.538v191.378c0 21.447 17.45 38.905 38.91 38.905h434.18c21.46 0 38.91-17.458 38.91-38.905v-191.378c0-11.329-9.21-20.538-20.54-20.538z" fill="#d9f0f4"/><g><path d="m491.46 261.179h-20c11.33 0 20.54 9.209 20.54 20.538v191.378c0 21.447-17.45 38.905-38.91 38.905h20c21.46 0 38.91-17.458 38.91-38.905v-191.378c0-11.329-9.21-20.538-20.54-20.538z" fill="#bae1e5"/></g><g><g fill="#90abbd"><path d="m77.192 298.207h-35.388c-2.761 0-5 2.238-5 4.999v35.384c0 2.761 2.239 4.999 5 4.999h35.388c2.761 0 5-2.238 5-4.999v-35.384c0-2.761-2.239-4.999-5-4.999z"/><path d="m238.306 343.589h35.388c2.761 0 5-2.238 5-4.999v-35.384c0-2.761-2.239-4.999-5-4.999h-35.388c-2.761 0-5 2.238-5 4.999v35.384c0 2.761 2.239 4.999 5 4.999z"/><path d="m172.435 343.589h35.388c2.761 0 5-2.238 5-4.999v-35.384c0-2.761-2.239-4.999-5-4.999h-35.388c-2.761 0-5 2.238-5 4.999v35.384c0 2.761 2.238 4.999 5 4.999z"/><path d="m107.189 343.589h35.388c2.761 0 5-2.238 5-4.999v-35.384c0-2.761-2.239-4.999-5-4.999h-35.388c-2.761 0-5 2.238-5 4.999v35.384c0 2.761 2.239 4.999 5 4.999z"/><path d="m303.694 343.589h35.388c2.761 0 5-2.238 5-4.999v-35.384c0-2.761-2.239-4.999-5-4.999h-35.388c-2.761 0-5 2.238-5 4.999v35.384c0 2.761 2.239 4.999 5 4.999z"/><path d="m41.489 409.057h35.388c2.761 0 5-2.239 5-4.999v-35.384c0-2.761-2.239-4.999-5-4.999h-35.388c-2.761 0-5 2.239-5 4.999v35.384c0 2.76 2.239 4.999 5 4.999z"/><path d="m237.992 409.057h35.388c2.761 0 5-2.239 5-4.999v-35.384c0-2.761-2.239-4.999-5-4.999h-35.388c-2.761 0-5 2.239-5 4.999v35.384c0 2.76 2.238 4.999 5 4.999z"/><path d="m172.121 409.057h35.388c2.761 0 5-2.239 5-4.999v-35.384c0-2.761-2.239-4.999-5-4.999h-35.388c-2.761 0-5 2.239-5 4.999v35.384c0 2.76 2.238 4.999 5 4.999z"/><path d="m106.875 409.057h35.388c2.761 0 5-2.239 5-4.999v-35.384c0-2.761-2.239-4.999-5-4.999h-35.388c-2.761 0-5 2.239-5 4.999v35.384c0 2.76 2.239 4.999 5 4.999z"/><path d="m77.006 429.141h-35.388c-2.761 0-5 2.239-5 4.999v35.384c0 2.761 2.239 4.999 5 4.999h35.388c2.761 0 5-2.238 5-4.999v-35.384c0-2.76-2.239-4.999-5-4.999z"/></g><path d="m409.47 451.837c0 12.509-10.18 22.687-22.7 22.687h-262.07c-12.52 0-22.7-10.179-22.7-22.687 0-12.519 10.18-22.697 22.7-22.697h262.07c12.52 0 22.7 10.179 22.7 22.697z" fill="#4dd4f7"/><path d="m303.38 409.057h35.388c2.761 0 5-2.239 5-4.999v-35.384c0-2.761-2.239-4.999-5-4.999h-35.388c-2.761 0-5 2.239-5 4.999v35.384c0 2.76 2.239 4.999 5 4.999z" fill="#90abbd"/><path d="m404.468 363.674h-35.388c-2.761 0-5 2.239-5 4.999v35.384c0 2.761 2.239 4.999 5 4.999h35.388c2.761 0 5-2.239 5-4.999v-35.384c0-2.761-2.239-4.999-5-4.999z" fill="#90abbd"/><path d="m474.71 368.677v100.848c0 2.76-2.24 4.999-5 4.999h-35.38c-2.77 0-5-2.24-5-4.999v-100.848c0-2.76 2.23-4.999 5-4.999h35.38c2.76-.001 5 2.239 5 4.999z" fill="#4dd4f7"/><path d="m474.71 303.205v35.386c0 2.76-2.24 4.999-5 4.999h-100.63c-2.76 0-5-2.24-5-4.999v-35.386c0-2.76 2.24-4.999 5-4.999h100.63c2.76-.001 5 2.239 5 4.999z" fill="#4dd4f7"/></g></g><path d="m511.87 231.433c0 8.219-3.33 15.648-8.71 21.038-5.38 5.379-12.82 8.709-21.03 8.709h-452.38c-16.43-.001-29.75-13.319-29.75-29.747 0-8.219 3.33-15.648 8.71-21.038 5.39-5.379 12.83-8.709 21.04-8.709h452.38c16.43 0 29.74 13.319 29.74 29.747z" fill="#90abbd"/><path d="m511.87 231.433c0 8.219-3.33 15.648-8.71 21.038-5.38 5.379-12.82 8.709-21.03 8.709h-20c8.21 0 15.65-3.33 21.03-8.709 5.38-5.389 8.71-12.818 8.71-21.038 0-16.428-13.31-29.747-29.74-29.747h20c16.43 0 29.74 13.319 29.74 29.747z" fill="#56788b"/><ellipse cx="29.714" cy="231.469" fill="#56788b" rx="29.714" ry="29.711"/><path d="m351.95 22.797v97.849c0 12.569-10.24 22.797-22.82 22.797h-211.88l-28.33 35.656c-1.43 1.79-3.59 2.83-5.88 2.83-2.28 0-4.44-1.04-5.87-2.83l-28.33-35.656h-25.88c-12.58 0-22.82-10.229-22.82-22.797v-97.849c0-12.568 10.24-22.797 22.82-22.797h306.17c12.58 0 22.82 10.229 22.82 22.797z" fill="#09eaa3"/><g fill="#fff"><path d="m62.962 63.44h226.991c4.143 0 7.5-3.358 7.5-7.499s-3.357-7.499-7.5-7.499h-226.991c-4.143 0-7.5 3.358-7.5 7.499s3.357 7.499 7.5 7.499z"/><path d="m289.953 83.438h-152.529c-4.143 0-7.5 3.358-7.5 7.499s3.357 7.499 7.5 7.499h152.529c4.143 0 7.5-3.358 7.5-7.499s-3.357-7.499-7.5-7.499z"/><path d="m101.019 83.438h-38.057c-4.143 0-7.5 3.358-7.5 7.499s3.357 7.499 7.5 7.499h38.057c4.143 0 7.5-3.358 7.5-7.499s-3.358-7.499-7.5-7.499z"/></g><g><path d="m462.125 201.686c0 17.838-14.49 32.356-32.3 32.356h-179.189c-17.81 0-32.29-14.518-32.29-32.356s14.48-32.356 32.29-32.356h113.29l16.87-23.317c1.41-1.95 3.67-3.1 6.08-3.1 2.4 0 4.67 1.15 6.08 3.1l16.87 23.317h20c17.809 0 32.299 14.518 32.299 32.356z" fill="#fbdf63"/><path d="m462.125 201.686c0 17.838-14.49 32.356-32.3 32.356h-20c17.81 0 32.3-14.518 32.3-32.356s-14.49-32.356-32.3-32.356h20c17.81 0 32.3 14.518 32.3 32.356z" fill="#ffa402"/></g><path d="m351.95 22.797v97.849c0 12.569-10.24 22.797-22.82 22.797h-20c12.58 0 22.82-10.229 22.82-22.797v-97.849c0-12.568-10.24-22.797-22.82-22.797h20c12.58 0 22.82 10.229 22.82 22.797z" fill="#14bb87"/></g></svg>