<svg id="Layer_1" enable-background="new 0 0 512 512" height="512" viewBox="0 0 512 512" width="512" xmlns="http://www.w3.org/2000/svg"><g><g><g><g><path d="m385.716 0h-338.83c-15.08 0-27.3 12.22-27.3 27.3v427.34l355-18.77 20-1.03v-425.98c0-4.89-3.97-8.86-8.87-8.86z" fill="#09eaa3"/><path d="m394.586 8.86v425.98l-20 1.03v-427.01c0-4.89-3.97-8.86-8.87-8.86h20c4.9 0 8.87 3.97 8.87 8.86z" fill="#14bb87"/><path d="m59.887 0v452.57l-40.3 2.07v-427.34c0-15.05 12.25-27.3 27.3-27.3z" fill="#56788b"/></g><g><path d="m379.044 434.84v39.6h-332.2c-10.94 0-19.8-8.86-19.8-19.8 0-10.93 8.86-19.8 19.8-19.8z" fill="#d9f0f4"/><path d="m350.734 434.84h28.31v39.6h-28.31z" fill="#bae1e5"/><path d="m387.044 466.94h-340.202c-6.781 0-12.298-5.517-12.298-12.298s5.517-12.298 12.298-12.298h340.202c4.143 0 7.5-3.358 7.5-7.5s-3.357-7.5-7.5-7.5h-340.202c-15.052 0-27.298 12.246-27.298 27.298s12.246 27.298 27.298 27.298h340.202c4.143 0 7.5-3.358 7.5-7.5s-3.358-7.5-7.5-7.5z" fill="#90abbd"/><path d="m331.964 442.34v62.16c0 2.63-1.38 5.07-3.63 6.42-1.19.72-2.53 1.08-3.87 1.08-1.21 0-2.41-.29-3.51-.87l-5.33-2.82-17.54-9.27-22.88 12.09c-2.32 1.23-5.12 1.15-7.37-.21-2.25-1.35-3.63-3.79-3.63-6.42v-62.16z" fill="#ff6b81"/><path d="m331.964 442.34v62.16c0 2.63-1.38 5.07-3.63 6.42-1.19.72-2.53 1.08-3.87 1.08-1.21 0-2.41-.29-3.51-.87l-5.33-2.82v-65.97z" fill="#ed2061"/></g></g></g><path d="m492.456 108.44v210.61c0 12.65-10.27 22.93-22.9 22.93h-87.26l-39.55 30.09c-1.33 1.01-2.93 1.53-4.54 1.53-1.13 0-2.27-.26-3.33-.78-2.55-1.27-4.17-3.87-4.17-6.72v-257.66c0-12.65 10.28-22.93 22.91-22.93h115.94c12.63 0 22.9 10.28 22.9 22.93z" fill="#fbdf63"/><g fill="#fff"><path d="m376.643 136.18h69.881c4.142 0 7.5-3.358 7.5-7.5s-3.358-7.5-7.5-7.5h-69.881c-4.142 0-7.5 3.358-7.5 7.5s3.358 7.5 7.5 7.5z"/><path d="m376.643 170.18h59.896c4.142 0 7.5-3.358 7.5-7.5s-3.358-7.5-7.5-7.5h-59.896c-4.142 0-7.5 3.358-7.5 7.5s3.358 7.5 7.5 7.5z"/><path d="m446.524 189.18h-69.881c-4.142 0-7.5 3.358-7.5 7.5s3.358 7.5 7.5 7.5h69.881c4.142 0 7.5-3.358 7.5-7.5s-3.358-7.5-7.5-7.5z"/><path d="m376.643 238.18h59.896c4.142 0 7.5-3.358 7.5-7.5s-3.358-7.5-7.5-7.5h-59.896c-4.142 0-7.5 3.358-7.5 7.5s3.358 7.5 7.5 7.5z"/><path d="m446.524 257.18h-69.881c-4.142 0-7.5 3.358-7.5 7.5s3.358 7.5 7.5 7.5h69.881c4.142 0 7.5-3.358 7.5-7.5s-3.358-7.5-7.5-7.5z"/><path d="m436.539 291.18h-59.896c-4.142 0-7.5 3.358-7.5 7.5s3.358 7.5 7.5 7.5h59.896c4.142 0 7.5-3.358 7.5-7.5s-3.358-7.5-7.5-7.5z"/></g><g fill="#fff"><path d="m255.746 318.014h-92.881c-4.142 0-7.5 3.358-7.5 7.5s3.358 7.5 7.5 7.5h92.881c4.142 0 7.5-3.358 7.5-7.5s-3.358-7.5-7.5-7.5z"/><path d="m235.76 352.045h-52.896c-4.142 0-7.5 3.358-7.5 7.5s3.358 7.5 7.5 7.5h52.896c4.142 0 7.5-3.358 7.5-7.5s-3.358-7.5-7.5-7.5z"/></g><g><path d="m284.98 165.282-76.012-38.333-75.943 41.666c-.28 2.486-6.525 61.276 23.13 94.462 12.954 14.497 30.605 21.847 52.464 21.847 21.587 0 39.125-7.322 52.124-21.763 30.577-33.966 24.51-95.285 24.237-97.879z" fill="#fdd9b4"/><path d="m302.438 158.599c-4.42 9.65-13.21 14.97-24.74 14.97-25.08 0-39.87-13.79-46.78-22.63-27.73 19.07-53.2 29.05-73.74 29.05-5.16 0-10.01-.63-14.51-1.9-12.49-3.54-21.79-11.99-26.89-24.44-9.8-23.93 3.11-56.18 30.03-75.01 14.9-10.42 32.1-15.25 49.74-13.99 19.33 1.39 38.16 9.9 56.02 25.3 14.22-2.59 28.21 2.81 38.92 15.2 13.57 15.69 18.7 38.671 11.95 53.45z" fill="#56788b"/><path d="m228.883 223.285c-3.48-2.246-8.122-1.246-10.368 2.235-2.107 3.265-5.676 5.214-9.547 5.214s-7.44-1.949-9.547-5.214c-2.246-3.481-6.889-4.481-10.368-2.235-3.48 2.246-4.481 6.888-2.235 10.368 4.882 7.565 13.162 12.082 22.15 12.082s17.269-4.517 22.15-12.082c2.247-3.48 1.246-8.122-2.235-10.368z" fill="#fab684"/><path d="m302.438 158.599c-4.42 9.65-13.21 14.97-24.74 14.97-25.08 0-39.87-13.79-46.78-22.63-26.45-45.56 20.65-60.99 20.65-60.99 14.22-2.59 28.21 2.81 38.92 15.2 13.57 15.69 18.7 38.671 11.95 53.45z" fill="#415e6f"/></g><path d="m492.456 108.44v210.61c0 12.65-10.27 22.93-22.9 22.93h-20c12.63 0 22.9-10.28 22.9-22.93v-210.61c0-12.65-10.27-22.93-22.9-22.93h20c12.63 0 22.9 10.28 22.9 22.93z" fill="#ffa402"/></g></svg>