<svg id="Layer_1" enable-background="new 0 0 512 512" height="512" viewBox="0 0 512 512" width="512" xmlns="http://www.w3.org/2000/svg"><g><g><g><path d="m315.908 504.51h-119.816l19.694-64.254h80.428z" fill="#90abbd"/><path d="m512 108.16v286.163c0 29.459-23.95 53.426-53.38 53.426h-405.24c-29.43 0-53.38-23.967-53.38-53.426v-286.163c0-29.459 23.95-53.426 53.38-53.426h405.24c29.43 0 53.38 23.967 53.38 53.426z" fill="#56788b"/><path d="m512 108.16v286.163c0 29.459-23.95 53.426-53.38 53.426h-20c29.43 0 53.38-23.967 53.38-53.426v-286.163c0-29.459-23.95-53.426-53.38-53.426h20c29.43 0 53.38 23.967 53.38 53.426z" fill="#415e6f"/><path d="m482.08 106.922v257.683c0 13.082-10.64 23.727-23.72 23.727h-404.72c-13.08 0-23.72-10.645-23.72-23.727v-257.683c0-13.082 10.64-23.727 23.72-23.727h404.72c13.08 0 23.72 10.645 23.72 23.727z" fill="#d9f0f4"/><path d="m482.08 106.922v257.683c0 13.082-10.64 23.727-23.72 23.727h-20c13.08 0 23.72-10.645 23.72-23.727v-257.683c0-13.082-10.64-23.727-23.72-23.727h20c13.08 0 23.72 10.645 23.72 23.727z" fill="#bae1e5"/><path d="m354.717 497.021h-197.434c-4.142 0-7.5 3.353-7.5 7.49s3.358 7.49 7.5 7.49h197.434c4.142 0 7.5-3.353 7.5-7.49s-3.358-7.49-7.5-7.49z" fill="#56788b"/><g fill="#415e6f"><path d="m94.694 411.077h-30.639c-4.142 0-7.5 3.353-7.5 7.49s3.358 7.49 7.5 7.49h30.639c4.142 0 7.5-3.353 7.5-7.49s-3.358-7.49-7.5-7.49z"/><path d="m154.694 411.077h-30.639c-4.142 0-7.5 3.353-7.5 7.49s3.358 7.49 7.5 7.49h30.639c4.142 0 7.5-3.353 7.5-7.49s-3.358-7.49-7.5-7.49z"/></g><path d="m419.86 380.842c0 17.805-14.49 32.285-32.3 32.285h-139.18c-17.81 0-32.3-14.48-32.3-32.285s14.49-32.295 32.3-32.295h2.81l16.87-23.268c1.42-1.947 3.67-3.096 6.08-3.096 2.4 0 4.66 1.149 6.07 3.096l16.88 23.268h90.47c17.81 0 32.3 14.49 32.3 32.295z" fill="#fbdf63"/><path d="m419.86 380.842c0 17.805-14.49 32.285-32.3 32.285h-20c17.81 0 32.3-14.48 32.3-32.285s-14.49-32.295-32.3-32.295h20c17.81 0 32.3 14.49 32.3 32.295z" fill="#ffa402"/></g></g><g><path d="m376.421 120.392c0 44.689-20.232 89.948-58.515 130.875-26.894 28.755-53.484 45.76-57.582 48.304-1.091.786-2.407 1.267-3.813 1.356-.157.01-.324.02-.481.02-1.474 0-2.869-.442-4.048-1.208-2.987-1.837-30.255-18.97-57.857-48.471-38.283-40.927-58.515-86.185-58.515-130.875-.001-66.361 53.975-120.354 120.341-120.393h.098c32.142.01 62.367 12.535 85.105 35.258 22.748 22.743 35.267 52.981 35.267 85.134z" fill="#ff6b81"/><path d="m376.421 120.392c0 44.689-20.232 89.948-58.515 130.875-26.894 28.755-53.484 45.76-57.582 48.304-1.091.786-2.407 1.267-3.813 1.356 1.11-.108 2.152-.589 3.026-1.356 3.331-2.544 25.037-19.55 46.989-48.304 31.238-40.927 47.756-86.185 47.756-130.875 0-32.154-10.229-62.392-28.791-85.134-18.551-22.723-43.206-35.248-69.442-35.258 32.142.01 62.367 12.535 85.105 35.258 22.748 22.743 35.267 52.981 35.267 85.134z" fill="#ed2061"/><ellipse cx="256.017" cy="120.032" fill="#fff" rx="58.677" ry="58.663"/></g><g fill="#90abbd"><path d="m110.017 298.331h-32.142c-4.142 0-7.5 3.358-7.5 7.5s3.358 7.5 7.5 7.5h32.143c4.142 0 7.5-3.358 7.5-7.5s-3.359-7.5-7.501-7.5z"/><path d="m70.375 340.831c0 4.142 3.358 7.5 7.5 7.5h52.113c4.142 0 7.5-3.358 7.5-7.5s-3.358-7.5-7.5-7.5h-52.113c-4.143 0-7.5 3.358-7.5 7.5z"/></g></g></svg>