<svg id="Layer_1" enable-background="new 0 0 512 512" height="512" viewBox="0 0 512 512" width="512" xmlns="http://www.w3.org/2000/svg"><g><path d="m458.139 188.38h-403.847c.15-4.17.34-8.34.58-13.28.85-19.45 3.8-34.78 9.56-49.68 5.2-13.8 13.56-26.66 24.16-37.11 10.51-10.74 23.04-18.91 37.26-24.29 14.74-5.73 30.07-8.68 49.64-9.54 21.18-.93 28.18-1.15 80.719-1.15 52.93 0 59.879.23 80.819 1.23 4.35.19 8.49.49 12.46.9 13.82 1.42 25.65 4.19 37.21 8.66 13.8 5.2 26.65 13.56 37.109 24.17 10.73 10.51 18.9 23.05 24.27 37.26 5.73 14.74 8.68 30.07 9.55 49.65v.01c.21 4.91.38 9.03.51 13.17z" fill="#9090fb"/><path d="m458.619 255.94c0 40.31-.13 53.82-.6 67.49h-403.767c-.48-13.67-.61-27.18-.61-67.49 0-40.44.13-54.05.65-67.56h403.846c.43 13.41.481 26.95.481 67.56z" fill="#ff6b81"/><path d="m458.018 323.43c-.15 4.15-.33 8.32-.54 13.25-.86 19.47-3.81 34.8-9.57 49.7-10.87 28.14-33.24 50.51-61.359 61.38-10.58 4.11-21.43 6.79-33.92 8.31-4.97.6-10.21 1.02-15.78 1.26-21.12.93-28.11 1.15-80.719 1.15-52.61 0-59.6-.22-80.719-1.15-19.48-.86-34.8-3.81-49.69-9.57-13.81-5.19-26.66-13.56-37.12-24.17-10.78-10.63-18.94-23.16-24.26-37.26-5.74-14.74-8.69-30.07-9.55-49.65-.22-4.93-.4-9.1-.54-13.25z" fill="#fbdf63"/><path d="m447.909 386.38c-10.87 28.14-33.24 50.51-61.359 61.38-10.58 4.11-21.43 6.79-33.92 8.31 4.24-1.18 8.37-2.55 12.45-4.14 28.69-11.09 51.52-33.92 62.609-62.63 5.88-15.21 8.89-30.85 9.77-50.72.21-5.03.39-9.28.55-13.52.02-.54.04-1.09.05-1.63h19.96c-.15 4.15-.33 8.32-.54 13.25-.86 19.47-3.81 34.8-9.57 49.7z" fill="#ffa402"/><ellipse cx="255.969" cy="255.904" fill="#fff" rx="104.85" ry="104.892"/><ellipse cx="255.969" cy="255.904" fill="#56788b" rx="74.85" ry="74.88" transform="matrix(1 -.004 .004 1 -1.034 1.039)"/><path d="m372.794 117.05c-15.163 0-27.5 12.34-27.5 27.508s12.337 27.508 27.5 27.508 27.499-12.34 27.499-27.508-12.336-27.508-27.499-27.508z" fill="#fff"/><g><path d="m512 420.488v68.592c0 12.635-10.29 22.92-22.92 22.92h-146.037c-12.64 0-22.92-10.286-22.92-22.92v-115.613c0-2.849 1.62-5.448 4.17-6.717s5.6-.97 7.87.75l39.579 30.078h117.338c12.63-.001 22.92 10.275 22.92 22.91z" fill="#d9f0f4"/><g fill="#fff"><path d="m468.379 466.089h-99.942c-4.142 0-7.5 3.357-7.5 7.497s3.357 7.497 7.5 7.497h99.942c4.143 0 7.5-3.357 7.5-7.497s-3.358-7.497-7.5-7.497z"/><path d="m368.437 447.097h89.95c4.142 0 7.5-3.357 7.5-7.497s-3.357-7.497-7.5-7.497h-89.95c-4.142 0-7.5 3.357-7.5 7.497 0 4.141 3.358 7.497 7.5 7.497z"/></g><path d="m512 420.488v68.592c0 12.635-10.29 22.92-22.92 22.92h-20c12.63 0 22.92-10.286 22.92-22.92v-68.592c0-12.635-10.29-22.91-22.92-22.91h20c12.63-.001 22.92 10.275 22.92 22.91z" fill="#bae1e5"/></g><path d="m199.437 24.93v95.55c0 13.754-11.18 24.93-24.94 24.93h-26.569l-16.05 23.111c-1.4 2.019-3.7 3.229-6.16 3.229s-4.76-1.21-6.16-3.229l-16.04-23.111h-78.578c-13.75 0-24.94-11.176-24.94-24.93v-95.55c0-13.745 11.19-24.93 24.94-24.93h149.558c13.759 0 24.939 11.185 24.939 24.93z" fill="#4dd4f7"/><path d="m131.997 48.01c-.001 0-.001-.001 0 0-8.737-8.733-22.961-8.725-31.706.018l-.572.572-.573-.573c-4.235-4.234-9.865-6.568-15.852-6.573h-.017c-5.983 0-11.607 2.328-15.835 6.555-4.233 4.231-6.562 9.859-6.558 15.845.005 5.985 2.34 11.612 6.576 15.846l28.724 28.712c.976.976 2.256 1.464 3.535 1.464s2.56-.488 3.535-1.464l28.724-28.713c8.746-8.74 8.754-22.956.019-31.689z" fill="#fff"/><path d="m199.437 24.93v95.55c0 13.754-11.18 24.93-24.94 24.93h-20c13.76 0 24.94-11.175 24.94-24.93v-95.55c0-13.744-11.18-24.93-24.94-24.93h20c13.76 0 24.94 11.185 24.94 24.93z" fill="#00c2f3"/><path d="m365.229 60.46c-5.14-1.99-10.34-3.65-15.74-5 13.82 1.42 25.65 4.19 37.21 8.66 13.8 5.2 26.65 13.56 37.109 24.17 10.73 10.51 18.9 23.05 24.27 37.26 5.73 14.74 8.68 30.07 9.55 49.65v.01c.21 4.91.38 9.03.51 13.17h-19.97c-.02-.38-.03-.75-.04-1.13-.13-4.22-.31-8.42-.52-13.43v-.01c-.89-19.98-3.9-35.63-9.75-50.67-5.48-14.5-13.81-27.3-24.76-38.02-10.669-10.83-23.789-19.36-37.869-24.66z" fill="#6c5fea"/><path d="m438.059 323.43c.44-13.43.56-27.7.56-67.24 0-40.29-.05-54.47-.45-67.81h19.97c.43 13.41.48 26.95.48 67.56 0 40.31-.13 53.82-.6 67.49z" fill="#ed2061"/></g></svg>