<svg id="Layer_1" enable-background="new 0 0 512 512" height="512" viewBox="0 0 512 512" width="512" xmlns="http://www.w3.org/2000/svg"><g><path d="m481.584 53.54v360.96c0 4.14-3.36 7.5-7.499 7.5h-390.822c-29.416 0-53.353-24.02-53.353-53.54v-314.92c-.001-29.52 23.936-53.54 53.353-53.54h344.967c29.417 0 53.354 24.02 53.354 53.54z" fill="#09eaa3"/><path d="m481.584 53.54v360.96c0 4.14-3.36 7.5-7.499 7.5h-19.998c4.139 0 7.499-3.36 7.499-7.5v-360.96c0-29.52-23.937-53.54-53.354-53.54h19.998c29.417 0 53.354 24.02 53.354 53.54z" fill="#14bb87"/><path d="m451.677 83.32v302.65c0 4.15-3.349 7.5-7.499 7.5h-360.665c-13.068 0-23.697-10.66-23.697-23.77v-286.38c0-13.1 10.629-23.77 23.697-23.77h344.467c13.069 0 23.697 10.67 23.697 23.77z" fill="#d9f0f4"/><path d="m451.677 83.32v302.65c0 4.15-3.349 7.5-7.499 7.5h-19.998c4.15 0 7.499-3.35 7.499-7.5v-302.65c0-13.1-10.629-23.77-23.697-23.77h19.998c13.069 0 23.697 10.67 23.697 23.77z" fill="#bae1e5"/><path d="m512 403.42c0 3.68-2.68 6.83-6.319 7.41l-17.038 2.71-8.699 21.03 10.149 13.98c2.16 2.98 1.84 7.09-.77 9.7l-30.946 31c-2.61 2.61-6.729 2.94-9.709.77l-13.978-10.14-20.997 8.71-2.7 17.06c-.57 3.65-3.71 6.33-7.399 6.33l-14.038.01-29.757.01c-3.69 0-6.829-2.68-7.409-6.32l-2.71-17.06-21.007-8.7-13.958 10.15c-2.99 2.17-7.109 1.85-9.719-.76l-30.966-30.98c-2.61-2.6-2.93-6.72-.77-9.7l10.139-13.99-8.709-21.02-17.048-2.7c-3.64-.58-6.329-3.72-6.329-7.4l-.02-43.83c0-3.68 2.68-6.83 6.319-7.41l17.048-2.71 8.689-21.03-10.139-13.98c-2.17-2.98-1.85-7.1.76-9.7l30.956-31c2.61-2.61 6.719-2.94 9.709-.77l13.968 10.14 20.997-8.71 2.7-17.07c.58-3.64 3.72-6.32 7.399-6.32l30.796-.01 12.998-.01c3.69 0 6.829 2.68 7.409 6.32l2.71 17.06 21.017 8.7 13.948-10.15c2.99-2.17 7.109-1.85 9.719.76l30.976 30.98c2.6 2.6 2.93 6.72.77 9.7l-10.139 13.99 8.709 21.02 17.048 2.7c3.64.58 6.319 3.72 6.319 7.4z" fill="#56788b"/><path d="m512 403.42c0 3.68-2.68 6.83-6.319 7.41l-17.038 2.71-8.699 21.03 10.149 13.98c2.16 2.98 1.84 7.09-.77 9.7l-30.946 31c-2.61 2.61-6.729 2.94-9.709.77l-13.978-10.14-20.997 8.71-2.7 17.06c-.57 3.65-3.71 6.33-7.399 6.33l-14.038.01 4.389-26.53c1.09-6.87 5.669-12.68 12.089-15.34l20.997-8.72c6.419-2.66 13.778-1.8 19.408 2.29l5.329 3.87 15.878-15.89-3.88-5.35c-4.09-5.62-4.959-12.97-2.3-19.39l8.699-21.03c2.65-6.43 8.459-11.02 15.328-12.11l6.509-1.04-.01-22.48-6.519-1.03c-6.869-1.09-12.678-5.67-15.338-12.1l-8.709-21.02c-2.66-6.42-1.8-13.76 2.28-19.39l3.88-5.35-15.878-15.89-5.319 3.87c-5.629 4.1-12.988 4.97-19.418 2.31l-21.007-8.71c-6.419-2.66-11.009-8.46-12.098-15.33l-3.37-26.51 12.998-.01c3.69 0 6.829 2.68 7.409 6.32l2.71 17.06 21.017 8.7 13.948-10.15c2.99-2.17 7.109-1.85 9.719.76l30.976 30.98c2.6 2.6 2.93 6.72.77 9.7l-10.139 13.99 8.709 21.02 17.048 2.7c3.64.58 6.319 3.72 6.319 7.4z" fill="#415e6f"/><g fill="#14bb87"><path d="m120.225 22.332h-30.615c-4.142 0-7.499 3.358-7.499 7.5s3.357 7.5 7.499 7.5h30.615c4.142 0 7.499-3.358 7.499-7.5s-3.357-7.5-7.499-7.5z"/><path d="m180.179 22.332h-30.615c-4.142 0-7.499 3.358-7.499 7.5s3.357 7.5 7.499 7.5h30.615c4.142 0 7.499-3.358 7.499-7.5s-3.356-7.5-7.499-7.5z"/></g><ellipse cx="381.208" cy="381.555" fill="#fff" rx="58.307" ry="58.314"/><g fill="#90abbd"><path d="m121.984 304.305h32.118c4.142 0 7.499-3.358 7.499-7.5s-3.357-7.5-7.499-7.5h-32.118c-4.142 0-7.499 3.358-7.499 7.5s3.356 7.5 7.499 7.5z"/><path d="m174.057 324.305h-52.074c-4.142 0-7.499 3.358-7.499 7.5s3.357 7.5 7.499 7.5h52.074c4.142 0 7.499-3.358 7.499-7.5s-3.357-7.5-7.499-7.5z"/><path d="m389.887 149.495h-32.118c-4.142 0-7.499 3.358-7.499 7.5s3.357 7.5 7.499 7.5h32.118c4.142 0 7.499-3.358 7.499-7.5s-3.357-7.5-7.499-7.5z"/><path d="m397.386 121.995c0-4.142-3.357-7.5-7.499-7.5h-52.074c-4.142 0-7.499 3.358-7.499 7.5s3.357 7.5 7.499 7.5h52.074c4.142 0 7.499-3.358 7.499-7.5z"/></g><g><path d="m171.756 127.409v75.62c0 12.64-10.28 22.93-22.911 22.93h-97.263l-39.541 30.08c-1.33 1.02-2.93 1.53-4.54 1.53-1.14 0-2.28-.25-3.33-.78-2.55-1.26-4.17-3.87-4.17-6.72v-122.66c0-12.64 10.28-22.93 22.911-22.93h125.934c12.629 0 22.91 10.29 22.91 22.93z" fill="#ff6b81"/><path d="m171.756 127.409v75.62c0 12.64-10.28 22.93-22.911 22.93h-20.001c12.63 0 22.911-10.29 22.911-22.93v-75.62c0-12.64-10.28-22.93-22.911-22.93h20.001c12.63 0 22.911 10.29 22.911 22.93z" fill="#ed2061"/><g fill="#fff"><path d="m125.82 140.153h-79.884c-4.142 0-7.5 3.358-7.5 7.5s3.358 7.5 7.5 7.5h79.884c4.142 0 7.5-3.358 7.5-7.5s-3.358-7.5-7.5-7.5z"/><path d="m115.834 174.153h-69.898c-4.142 0-7.5 3.358-7.5 7.5s3.358 7.5 7.5 7.5h69.899c4.142 0 7.5-3.358 7.5-7.5s-3.358-7.5-7.501-7.5z"/></g></g></g></svg>