<svg id="Layer_1" enable-background="new 0 0 512 512" height="512" viewBox="0 0 512 512" width="512" xmlns="http://www.w3.org/2000/svg"><g><g><path d="m308.211 0c2.77 0 5.016 2.246 5.016 5.016v51.254c0 15.37-12.49 27.87-27.85 27.87h-199.29c-15.36 0-27.86-12.5-27.86-27.87v-51.254c0-2.77 2.246-5.016 5.016-5.016z" fill="#d9f0f4"/><path d="m262.237 84.14h-176.15c-15.36 0-27.86-12.5-27.86-27.87v-56.09l.18-.18h119.75l12.68 12.69z" fill="#4dd4f7"/><path d="m308.211 0c2.77 0 5.016 2.246 5.016 5.016v51.254c0 15.37-12.49 27.87-27.85 27.87h-165.1l70.56-71.45 12.53-12.69z" fill="#56788b"/><path d="m308.211 0c2.77 0 5.016 2.246 5.016 5.016v51.254c0 15.37-12.49 27.87-27.85 27.87h-20c15.36 0 27.85-12.5 27.85-27.87v-56.27z" fill="#415e6f"/></g><g><path d="m313.227 131v229.42c0 15.37-12.49 27.87-27.85 27.87h-199.29c-15.36 0-27.86-12.5-27.86-27.87v-229.42c0-15.36 12.5-27.86 27.86-27.86h199.29c15.36 0 27.85 12.5 27.85 27.86z" fill="#d9f0f4"/><path d="m313.227 131v229.42c0 15.37-12.49 27.87-27.85 27.87h-20c15.36 0 27.85-12.5 27.85-27.87v-229.42c0-15.36-12.49-27.86-27.85-27.86h20c15.36 0 27.85 12.5 27.85 27.86z" fill="#bae1e5"/><path d="m313.227 131v38.67h-255v-38.67c0-15.36 12.5-27.86 27.86-27.86h199.29c15.36 0 27.85 12.5 27.85 27.86z" fill="#90abbd"/><g fill="#56788b"><path d="m125.924 128.905h-30.639c-4.142 0-7.5 3.358-7.5 7.5s3.358 7.5 7.5 7.5h30.639c4.142 0 7.5-3.358 7.5-7.5s-3.358-7.5-7.5-7.5z"/><path d="m185.924 128.905h-30.639c-4.142 0-7.5 3.358-7.5 7.5s3.358 7.5 7.5 7.5h30.639c4.142 0 7.5-3.358 7.5-7.5s-3.358-7.5-7.5-7.5z"/></g><path d="m262.237 388.29h-176.15c-15.36 0-27.86-12.5-27.86-27.87v-56.09l54.75-54.78c1.4-1.41 3.31-2.2 5.3-2.2s3.9.79 5.31 2.2l67.25 67.29z" fill="#09eaa3"/><path d="m313.227 291.1v69.32c0 15.37-12.49 27.87-27.85 27.87h-165.1l70.56-71.45 68.3-69.16c1.4-1.42 3.32-2.22 5.31-2.23 1.97 0 3.92.79 5.33 2.2z" fill="#56788b"/><path d="m293.227 271.1 20 20v69.32c0 15.37-12.49 27.87-27.85 27.87h-20c15.36 0 27.85-12.5 27.85-27.87z" fill="#415e6f"/><path d="m188.212 199.525c-15.164 0-27.5 12.341-27.5 27.511s12.336 27.512 27.5 27.512 27.5-12.342 27.5-27.512-12.337-27.511-27.5-27.511z" fill="#fbdf63"/><path d="m313.227 131v38.67h-20v-38.67c0-15.36-12.49-27.86-27.85-27.86h20c15.36 0 27.85 12.5 27.85 27.86z" fill="#56788b"/></g><g fill="#90abbd"><path d="m424.194 474.792-17.974 17.984v-94.111c0-4.142-3.358-7.5-7.5-7.5s-7.5 3.358-7.5 7.5v94.11l-17.973-17.983c-2.928-2.93-7.676-2.931-10.606-.003s-2.931 7.677-.003 10.606l19.878 19.889c4.328 4.331 10.083 6.716 16.205 6.716s11.876-2.385 16.205-6.716l19.878-19.889c2.928-2.93 2.927-7.678-.003-10.606-2.93-2.93-7.679-2.928-10.607.003z"/><path d="m373.247 37.208 17.973-17.983v124.127c0 4.142 3.358 7.5 7.5 7.5s7.5-3.358 7.5-7.5v-124.127l17.974 17.984c1.465 1.466 3.384 2.198 5.305 2.198 1.918 0 3.837-.732 5.302-2.195 2.93-2.928 2.931-7.677.003-10.606l-19.879-19.89c-4.328-4.331-10.083-6.716-16.204-6.716-6.122 0-11.877 2.385-16.205 6.716l-19.878 19.889c-2.928 2.93-2.927 7.678.003 10.606 2.929 2.928 7.678 2.927 10.606-.003z"/></g><g><path d="m378.533 362.718c-8.811 8.811-23.207 8.811-32.018 0l-13.994-14.008-93.571-93.614c-7.573-7.587-8.11-19.453-1.188-26.375 6.923-6.923 18.774-6.385 26.354 1.195l38.799 38.827c-7.573-7.587-8.111-19.452-1.188-26.375s18.774-6.385 26.354 1.195c-7.58-7.58-8.118-19.445-1.195-26.368 6.916-6.916 18.767-6.392 26.34 1.181-3.776-3.79-5.798-8.641-6.01-13.421-.226-4.78 1.379-9.482 4.837-12.94 6.915-6.915 18.774-6.385 26.354 1.195l54.638 54.666 14.121 14.135c8.811 8.811 8.811 23.221 0 32.032z" fill="#fdd9b4"/><path d="m378.533 362.718c-8.811 8.811-23.207 8.811-32.018 0l-13.994-14.008c8.818 8.676 23.108 8.627 31.869-.134l68.632-68.674c8.811-8.811 8.811-23.221 0-32.032l.021.007 14.121 14.135c8.811 8.811 8.811 23.221 0 32.032z" fill="#fab684"/></g><g><path d="m313.427 436.14v70.662c0 2.871-2.327 5.198-5.198 5.198h-244.604c-2.871 0-5.198-2.327-5.198-5.198v-70.652c0-15.387 12.473-27.86 27.86-27.86h199.29c15.381 0 27.85 12.469 27.85 27.85z" fill="#4dd4f7"/><path d="m313.427 436.14v70.662c0 2.871-2.327 5.198-5.198 5.198h-14.802v-75.85c0-15.36-12.49-27.86-27.85-27.86h20c15.381 0 27.85 12.469 27.85 27.85z" fill="#00c2f3"/><path d="m313.423 436.15v38.67h-255v-38.67c0-15.36 12.5-27.86 27.86-27.86h199.29c15.36 0 27.85 12.5 27.85 27.86z" fill="#90abbd"/><g fill="#56788b"><g><path d="m126.12 434.055h-30.639c-4.142 0-7.5 3.358-7.5 7.5s3.358 7.5 7.5 7.5h30.639c4.142 0 7.5-3.358 7.5-7.5s-3.358-7.5-7.5-7.5z"/><path d="m186.12 434.055h-30.639c-4.142 0-7.5 3.358-7.5 7.5s3.358 7.5 7.5 7.5h30.639c4.142 0 7.5-3.358 7.5-7.5s-3.358-7.5-7.5-7.5z"/></g><path d="m313.423 436.15v38.67h-20v-38.67c0-15.36-12.49-27.86-27.85-27.86h20c15.36 0 27.85 12.5 27.85 27.86z"/></g></g></g></svg>