<svg id="Layer_1" enable-background="new 0 0 512.007 512.007" height="512" viewBox="0 0 512.007 512.007" width="512" xmlns="http://www.w3.org/2000/svg"><g><path d="m346.054 158.82-66.45.35-192.58 1.03c-5.55-27.13-6.84-70.28 1.66-96.63 10.35-33.6 45.44-49.5 76.19-57 47.93-11.73 119.53-11.16 139.03 30.45 1.25 3.06 4.07 5.19 7.35 5.55 40.2 3.899 42.9 73.95 34.8 116.25z" fill="#f79e60"/><path d="m346.054 158.82-66.45.35v-54.67c-19.72-59.14 31.65-61.93 31.65-61.93 40.2 3.899 42.9 73.95 34.8 116.25z" fill="#d77d41"/><path d="m287.314 340.35c-3.7-.41-7.51-.76-11.43-1.06h-115.76c-150.65 11.37-140.69 110.13-139.91 167.26.04 3.02 2.51 5.45 5.54 5.45h384.5c3.03 0 5.5-2.43 5.54-5.45.76-55.64 10.23-150.78-128.48-166.2z" fill="#fbdf63"/><path d="m275.884 339.29c-1.57 30.6-26.88 54.92-57.88 54.92s-56.32-24.33-57.88-54.92c9.37-.71 19.36-1.08 30.02-1.08h55.72c10.66 0 20.65.37 30.02 1.08z" fill="#d9f0f4"/><path d="m415.794 506.55c-.04 3.02-2.51 5.45-5.54 5.45h-20c3.03 0 5.5-2.43 5.54-5.45.72-52.82 9.29-143.79-108.48-166.2 138.71 15.42 129.24 110.56 128.48 166.2z" fill="#ffa402"/><g fill="#fab684"><path d="m299.455 190.676h27.337c12.616 0 22.844-10.228 22.844-22.846 0-12.617-10.228-22.846-22.844-22.846h-19.448z"/><path d="m135.343 190.676h-27.337c-12.616 0-22.844-10.228-22.844-22.846 0-12.617 10.228-22.846 22.844-22.846h19.448z"/></g><path d="m245.864 306.499c-2.331 6.319-3.534 22.528 0 31.708 0 15.39-12.473 27.866-27.859 27.866s-27.859-12.476-27.859-27.866c3.534-9.181 2.331-25.39 0-31.708z" fill="#fab684"/><path d="m310.964 222.17c0 22.12-18.81 48.54-55.93 78.55-2.08 1.69-4.29 3.23-6.59 4.61-9.18 5.5-19.91 8.44-30.64 8.42-13.42.03-26.43-4.58-36.83-13.03-37.11-30.01-55.92-56.43-55.92-78.55 0-2.35.09-4.7.28-7.01.96-9.65.68-53.71.66-82.16v-.03c-.25-9.64 5.15-18.55 13.82-22.8 18.94-8.42 48.55-12.62 78.19-12.6 21.27-.01 42.52 2.14 59.83 6.48 6.81 1.7 13.02 3.74 18.37 6.12 8.66 4.25 14.06 13.16 13.81 22.8v.03c-.02 28.45-.29 72.51.66 82.16.19 2.31.29 4.66.29 7.01z" fill="#fdd9b4"/><path d="m310.964 222.17c0 22.12-18.81 48.54-55.93 78.55-2.08 1.69-4.29 3.23-6.59 4.61 28.24-25.35 42.52-47.89 42.52-67.16 0-2.35-.1-4.7-.29-7.01-.95-9.65-.68-69.71-.66-98.16v-7.03c.23-9.02-4.48-17.4-12.18-21.92 6.81 1.7 13.02 3.74 18.37 6.12 8.66 4.25 14.06 13.16 13.81 22.8v.03c-.02 28.45-.29 72.51.66 82.16.19 2.31.29 4.66.29 7.01z" fill="#f9c19b"/><g fill="#fab684"><path d="m242.581 260.084c-3.482 2.248-8.123 1.247-10.369-2.233-3.177-4.922-8.563-7.861-14.406-7.861s-11.229 2.939-14.407 7.861c-2.247 3.479-6.89 4.479-10.369 2.233-3.48-2.247-4.479-6.889-2.233-10.369 5.953-9.221 16.049-14.726 27.008-14.726s21.056 5.505 27.009 14.726c2.247 3.48 1.247 8.122-2.233 10.369z"/><path d="m204.325 211.841c3.479 2.245 8.122 1.247 10.369-2.233.731-1.134 1.97-1.811 3.312-1.811s2.581.677 3.312 1.811c1.435 2.222 3.846 3.433 6.308 3.433 1.394 0 2.803-.388 4.061-1.2 3.48-2.247 4.48-6.889 2.233-10.369-3.507-5.432-9.456-8.675-15.915-8.675-6.458 0-12.407 3.243-15.914 8.675-2.246 3.48-1.246 8.122 2.234 10.369z"/></g><path d="m492.194 360.87c0 52.54-42.77 95.29-95.34 95.29-3.38 0-6.72-.18-10-.52-47.89-5.02-85.34-45.61-85.34-94.77s37.45-89.75 85.34-94.77c3.28-.34 6.62-.52 10-.52 52.57 0 95.34 42.75 95.34 95.29z" fill="#ff6b81"/><path d="m492.194 360.87c0 52.54-42.77 95.29-95.34 95.29-3.38 0-6.72-.18-10-.52 47.89-5.02 85.34-45.61 85.34-94.77s-37.45-89.75-85.34-94.77c3.28-.34 6.62-.52 10-.52 52.57 0 95.34 42.75 95.34 95.29z" fill="#ed2061"/><path d="m425.525 378.934-18.064-18.064 18.064-18.064c2.929-2.929 2.929-7.678 0-10.607s-7.678-2.929-10.607 0l-18.064 18.064-18.064-18.064c-2.929-2.929-7.678-2.929-10.607 0s-2.929 7.678 0 10.607l18.064 18.064-18.064 18.064c-2.929 2.929-2.929 7.678 0 10.607s7.678 2.929 10.607 0l18.064-18.064 18.064 18.064c2.929 2.929 7.678 2.929 10.607 0 2.929-2.93 2.929-7.678 0-10.607z" fill="#fff"/><g fill="#ffa402"><path d="m106.038 470.974c-1.403-.041-4.147.323-6.818 2.946-2.943 2.89-6.855 9.205-6.855 30.586 0 4.143 3.358 7.5 7.5 7.5s7.5-3.357 7.5-7.5c0-13.057 1.569-17.991 2.248-19.515 2.222-1.268 3.739-3.64 3.788-6.383.075-4.141-3.221-7.559-7.363-7.634z"/><path d="m336.392 473.921c-2.671-2.624-5.419-2.976-6.818-2.946-4.142.075-7.438 3.493-7.363 7.634.049 2.744 1.566 5.116 3.788 6.383.68 1.524 2.248 6.458 2.248 19.515 0 4.143 3.358 7.5 7.5 7.5s7.5-3.357 7.5-7.5c0-21.382-3.912-27.696-6.855-30.586z"/></g></g></svg>