<svg id="Layer_1" enable-background="new 0 0 512 512" height="512" viewBox="0 0 512 512" width="512" xmlns="http://www.w3.org/2000/svg"><g><path d="m261.41 340.6c-1.97-.34-3.93-.63-5.87-.88h-115.72c-43.5 5.569-96.43 32.906-97.73 167.181-.03 2.8 2.24 5.099 5.04 5.099h301.1c2.8 0 5.07-2.3 5.04-5.099-1.24-128.286-49.61-158.962-91.86-166.301z" fill="#4dd4f7"/><path d="m353.27 506.901c.03 2.8-2.24 5.099-5.04 5.099h-20c2.8 0 5.07-2.3 5.04-5.099-1.05-108.287-35.68-150.923-71.86-166.301 42.25 7.339 90.62 38.015 91.86 166.301z" fill="#00c2f3"/><path d="m255.54 339.72c-1.73 30.416-26.97 54.554-57.86 54.554s-56.13-24.137-57.86-54.554c10.92-1.39 21.24-1.42 30-1.42h55.72c8.76 0 19.08.03 30 1.42z" fill="#d9f0f4"/><path d="m336.45 298.865h-277.75c-3.41 0-5.81-3.34-4.75-6.589 13.84-42.655 19.86-115.377 19.86-115.377h247.53s6.02 72.722 19.87 115.377c1.05 3.249-1.34 6.589-4.76 6.589z" fill="#56788b"/><path d="m336.45 298.865h-138.77v-121.966h123.66s6.02 72.722 19.87 115.377c1.05 3.249-1.34 6.589-4.76 6.589z" fill="#415e6f"/><path d="m71.839 151.477 14.935 16.199 161.934-18.346 3.807-112.181c-17.59-46.102-210.96-84.952-180.676 114.328z" fill="#56788b"/><path d="m318.665 148.727c50.32-81.426-89.183-187.623-86.547-48.972v65.182h72.102z" fill="#415e6f"/><g><g fill="#fab684"><path d="m279.129 190.778h27.337c12.616 0 22.844-10.227 22.844-22.843s-10.228-22.843-22.844-22.843h-19.448z"/><path d="m115.018 190.778h-27.338c-12.616 0-22.844-10.227-22.844-22.843s10.228-22.843 22.844-22.843h19.448z"/></g><path d="m225.539 306.587c-2.331 6.318-3.534 22.525 0 31.705 0 15.388-12.473 27.863-27.859 27.863s-27.859-12.475-27.859-27.863c3.534-9.18 2.331-25.387 0-31.705z" fill="#fab684"/><path d="m290.639 222.268c0 22.117-18.81 48.534-55.93 78.541-2.08 1.69-4.29 3.23-6.59 4.609-9.18 5.499-19.91 8.439-30.64 8.419-13.42.03-26.43-4.579-36.83-13.029-37.11-30.007-55.92-56.424-55.92-78.541 0-2.35.09-4.699.28-7.009.96-9.649.68-53.704.66-82.151v-.03c-.25-9.639 5.15-18.548 13.82-22.797 18.94-8.419 48.55-12.619 78.19-12.599 21.27-.01 42.52 2.14 59.83 6.479 6.81 1.7 13.02 3.74 18.37 6.119 8.66 4.25 14.06 13.158 13.81 22.797v.03c-.02 28.447-.29 72.502.66 82.151.19 2.311.29 4.661.29 7.011z" fill="#fdd9b4"/><path d="m290.639 222.268c0 22.117-18.81 48.534-55.93 78.541-2.08 1.69-4.29 3.23-6.59 4.609 28.24-25.347 42.52-47.884 42.52-67.152 0-2.35-.1-4.699-.29-7.009-.95-9.649-.68-69.702-.66-98.149v-7.029c.23-9.019-4.48-17.398-12.18-21.917 6.81 1.7 13.02 3.74 18.37 6.119 8.66 4.25 14.06 13.158 13.81 22.797v.03c-.02 28.447-.29 72.502.66 82.151.19 2.309.29 4.659.29 7.009z" fill="#f9c19b"/><g><path d="m183.999 211.94c3.479 2.245 8.122 1.247 10.369-2.233.731-1.134 1.97-1.81 3.312-1.81s2.581.677 3.312 1.81c1.435 2.222 3.846 3.433 6.308 3.433 1.394 0 2.803-.388 4.061-1.2 3.48-2.246 4.48-6.888 2.233-10.368-3.507-5.431-9.456-8.674-15.915-8.674-6.458 0-12.407 3.243-15.914 8.674-2.246 3.48-1.246 8.122 2.234 10.368z" fill="#fab684"/></g></g><path d="m218.188 238.143h-41.415c-4.143 0-7.5 3.358-7.5 7.499 0 4.142 3.357 7.499 7.5 7.499h41.415c4.143 0 7.5-3.358 7.5-7.499 0-4.142-3.357-7.499-7.5-7.499z" fill="#fab684"/><g><path d="m390.93 293.775c-25.641 0-46.5 20.857-46.5 46.495v49.504c0 4.142 3.357 7.499 7.5 7.499s7.5-3.358 7.5-7.499v-49.504c0-17.367 14.131-31.496 31.5-31.496s31.5 14.129 31.5 31.496v49.504c0 4.142 3.357 7.499 7.5 7.499s7.5-3.358 7.5-7.499v-49.504c0-25.638-20.86-46.495-46.5-46.495z" fill="#415e6f"/><path d="m469.91 405.532v83.21c0 12.829-10.43 23.257-23.26 23.257h-111.45c-12.82 0-23.26-10.429-23.26-23.257v-83.21c0-12.828 10.44-23.257 23.26-23.257h111.45c12.83 0 23.26 10.429 23.26 23.257z" fill="#90abbd"/><path d="m469.91 405.532v83.21c0 12.829-10.43 23.257-23.26 23.257h-20c12.85 0 23.26-10.409 23.26-23.257v-83.21c0-12.849-10.41-23.257-23.26-23.257h20c12.83 0 23.26 10.429 23.26 23.257z" fill="#56788b"/><path d="m390.93 423.32c-4.143 0-7.5 3.358-7.5 7.499v32.634c0 4.142 3.357 7.499 7.5 7.499s7.5-3.358 7.5-7.499v-32.634c0-4.141-3.358-7.499-7.5-7.499z" fill="#415e6f"/></g><g fill="#00c2f3"><path d="m120.912 470.985c-1.376-.044-4.147.322-6.818 2.947-2.942 2.889-6.854 9.202-6.854 30.569 0 4.142 3.357 7.499 7.5 7.499s7.5-3.358 7.5-7.499c0-13.046 1.568-17.976 2.247-19.499 2.223-1.267 3.74-3.641 3.79-6.384.074-4.141-3.223-7.559-7.365-7.633z"/><path d="m281.269 473.931c-2.67-2.622-5.438-2.979-6.818-2.946-4.142.074-7.438 3.492-7.364 7.633.05 2.774 1.601 5.169 3.864 6.426.563 1.37 2.172 6.452 2.172 19.458 0 4.142 3.357 7.499 7.5 7.499s7.5-3.358 7.5-7.499c-.001-21.369-3.912-27.682-6.854-30.571z"/></g></g></svg>