<svg id="Layer_1" enable-background="new 0 0 512 512" height="512" viewBox="0 0 512 512" width="512" xmlns="http://www.w3.org/2000/svg"><g><g><path d="m482.065 53.54v404.92c0 29.52-23.95 53.54-53.39 53.54h-345.23c-29.44 0-53.38-24.02-53.38-53.54v-404.92c0-29.52 23.94-53.54 53.38-53.54h345.23c29.44 0 53.39 24.02 53.39 53.54z" fill="#4dd4f7"/><path d="m482.065 53.54v404.92c0 29.52-23.95 53.54-53.39 53.54h-20c29.44 0 53.39-24.02 53.39-53.54v-404.92c0-29.52-23.95-53.54-53.39-53.54h20c29.44 0 53.39 24.02 53.39 53.54z" fill="#00c2f3"/><path d="m452.135 83.32v376.38c0 13.11-10.63 23.77-23.71 23.77h-344.72c-13.08 0-23.72-10.66-23.72-23.77v-376.38c0-13.1 10.64-23.77 23.72-23.77h344.72c13.08 0 23.71 10.67 23.71 23.77z" fill="#d9f0f4"/><path d="m452.135 83.32v376.38c0 13.11-10.63 23.77-23.71 23.77h-20c13.08 0 23.71-10.66 23.71-23.77v-376.38c0-13.1-10.63-23.77-23.71-23.77h20c13.08 0 23.71 10.67 23.71 23.77z" fill="#bae1e5"/><g fill="#00c2f3"><path d="m123.437 22.332h-30.639c-4.142 0-7.5 3.358-7.5 7.5s3.358 7.5 7.5 7.5h30.639c4.142 0 7.5-3.358 7.5-7.5s-3.358-7.5-7.5-7.5z"/><path d="m183.437 22.332h-30.639c-4.142 0-7.5 3.358-7.5 7.5s3.358 7.5 7.5 7.5h30.639c4.142 0 7.5-3.358 7.5-7.5s-3.358-7.5-7.5-7.5z"/></g></g><path d="m512 129.21v198.04c0 13.1-10.64 23.76-23.72 23.76h-464.56c-13.08 0-23.72-10.66-23.72-23.76v-198.04c0-13.1 10.64-23.76 23.72-23.76h464.56c13.08 0 23.72 10.66 23.72 23.76z" fill="#ff6b81"/><path d="m300.444 223.187-72.862-43.813c-1.768-1.063-3.969-1.091-5.76-.077-1.795 1.015-2.903 2.917-2.903 4.977v87.626c0 2.06 1.109 3.962 2.903 4.977.873.494 1.844.74 2.814.74 1.021 0 2.04-.274 2.946-.817l72.862-43.813c1.72-1.034 2.772-2.893 2.772-4.9-.001-2.007-1.053-3.866-2.772-4.9z" fill="#fff"/><path d="m400.383 401.979h-288.635c-4.143 0-7.5 3.357-7.5 7.5s3.357 7.5 7.5 7.5h288.635c4.143 0 7.5-3.357 7.5-7.5s-3.358-7.5-7.5-7.5z" fill="#90abbd"/><path d="m183.089 383.152c-14.521 0-26.334 11.81-26.334 26.326s11.813 26.326 26.334 26.326 26.333-11.81 26.333-26.326-11.813-26.326-26.333-26.326z" fill="#ff6b81"/><path d="m47.55 105.45v245.56h-23.83c-13.08 0-23.72-10.66-23.72-23.76v-198.04c0-13.1 10.64-23.76 23.72-23.76z" fill="#56788b"/><path d="m512 129.21v198.04c0 13.1-10.64 23.76-23.72 23.76h-23.7v-245.56h23.7c13.08 0 23.72 10.66 23.72 23.76z" fill="#56788b"/><path d="m512 129.21v198.04c0 13.1-10.64 23.76-23.72 23.76h-20c13.08 0 23.72-10.66 23.72-23.76v-198.04c0-13.1-10.64-23.76-23.72-23.76h20c13.08 0 23.72 10.66 23.72 23.76z" fill="#415e6f"/></g></svg>