<svg id="Layer_1" enable-background="new 0 0 512 512" height="512" viewBox="0 0 512 512" width="512" xmlns="http://www.w3.org/2000/svg"><g><path d="m510.151 260.45c-1.16 1.57-28.842 38.88-73.949 76.759-26.572 22.31-53.665 40.11-80.517 52.9-27.272 12.99-54.365 20.82-80.797 23.38-6.408.62-12.766.93-19.085.93-32.401 0-66.001-8.18-99.872-24.31-26.862-12.79-53.955-30.59-80.527-52.9-45.108-37.879-72.79-75.189-73.949-76.759-1.939-2.65-1.939-6.25 0-8.9 1.16-1.57 28.842-38.88 73.949-76.759 26.572-22.31 53.665-40.11 80.527-52.9 33.87-16.13 67.471-24.31 99.872-24.31 6.318 0 12.676.31 19.085.93 26.433 2.56 53.525 10.39 80.797 23.38 26.852 12.79 53.945 30.59 80.517 52.9 45.107 37.88 72.789 75.189 73.949 76.759 1.949 2.65 1.949 6.25 0 8.9z" fill="#d9f0f4"/><path d="m510.151 260.45c-1.16 1.57-28.842 38.88-73.949 76.759-26.572 22.31-53.665 40.11-80.517 52.9-27.272 12.99-54.365 20.82-80.797 23.38 22.194-3.47 44.847-11.56 67.641-23.38 24.673-12.79 49.556-30.59 73.959-52.9 41.418-37.88 66.851-75.189 67.911-76.759 1.789-2.65 1.789-6.25 0-8.9-1.06-1.57-26.492-38.88-67.911-76.759-24.403-22.31-49.286-40.11-73.959-52.9-22.794-11.82-45.447-19.91-67.641-23.38 26.433 2.56 53.525 10.39 80.797 23.38 26.852 12.79 53.945 30.59 80.517 52.9 45.107 37.88 72.789 75.189 73.949 76.759 1.949 2.65 1.949 6.25 0 8.9z" fill="#bae1e5"/><path d="m362.592 256c0 58.929-47.906 106.869-106.79 106.869-3.369 0-6.708-.16-9.997-.47-54.215-5.05-96.793-50.839-96.793-106.399s42.578-101.349 96.793-106.399c3.289-.31 6.628-.47 9.997-.47 58.884 0 106.79 47.94 106.79 106.869z" fill="#4dd4f7"/><path d="m362.592 256c0 58.929-47.906 106.869-106.79 106.869-3.369 0-6.708-.16-9.997-.47 54.215-5.05 96.793-50.839 96.793-106.399s-42.578-101.349-96.793-106.399c3.289-.31 6.628-.47 9.997-.47 58.884 0 106.79 47.94 106.79 106.869z" fill="#00c2f3"/><g><path d="m305.601 234.384c-.381-.871-.924-1.661-1.599-2.329l-24.837-24.556c-.677-.669-1.473-1.202-2.349-1.573-6.735-2.851-13.886-4.296-21.253-4.296-30.102 0-54.591 24.507-54.591 54.629s24.49 54.629 54.591 54.629c30.102 0 54.592-24.507 54.592-54.629.001-7.602-1.532-14.962-4.554-21.875z" fill="#56788b"/><ellipse cx="288.362" cy="223.196" fill="#fff" rx="25.068" ry="25.084"/></g><g fill="#90abbd"><path d="m471.221 429.71c0-4.143-3.356-7.5-7.498-7.5h-112.11c-4.141 0-7.498 3.357-7.498 7.5s3.356 7.5 7.498 7.5h112.11c4.141 0 7.498-3.357 7.498-7.5z"/><path d="m463.723 457.21h-52.096c-4.141 0-7.498 3.357-7.498 7.5s3.356 7.5 7.498 7.5h52.096c4.141 0 7.498-3.357 7.498-7.5s-3.357-7.5-7.498-7.5z"/><path d="m146.455 75.002h-98.365c-4.141 0-7.498 3.357-7.498 7.5s3.357 7.5 7.498 7.5h98.365c4.141 0 7.498-3.357 7.498-7.5s-3.357-7.5-7.498-7.5z"/><path d="m48.09 55.002h52.096c4.141 0 7.498-3.357 7.498-7.5s-3.357-7.5-7.498-7.5h-52.096c-4.141 0-7.498 3.357-7.498 7.5s3.357 7.5 7.498 7.5z"/></g><g><path d="m293.248 479.66c0 17.83-14.476 32.34-32.268 32.34h-228.567c-17.792 0-32.268-14.51-32.268-32.34s14.476-32.33 32.268-32.33h2.807l16.863-23.3c1.409-1.95 3.666-3.11 6.064-3.11 2.408 0 4.665 1.16 6.074 3.11l16.863 23.3h179.896c17.792.001 32.268 14.501 32.268 32.33z" fill="#09eaa3"/><path d="m293.248 479.66c0 17.83-14.476 32.34-32.268 32.34h-19.98c17.792 0 32.268-14.51 32.268-32.34s-14.476-32.33-32.268-32.33h19.98c17.792.001 32.268 14.501 32.268 32.33z" fill="#14bb87"/></g><g><path d="m512 32.34c0 17.83-14.476 32.33-32.268 32.33h-19.98l-16.863 23.3c-1.409 1.95-3.666 3.11-6.064 3.11-2.408 0-4.665-1.16-6.074-3.11l-16.853-23.3h-123.17c-17.792 0-32.268-14.5-32.268-32.33s14.476-32.34 32.268-32.34h189.004c17.792 0 32.268 14.51 32.268 32.34z" fill="#fbdf63"/><path d="m512 32.34c0 17.83-14.476 32.33-32.268 32.33h-19.98c17.792 0 32.268-14.5 32.268-32.33s-14.476-32.34-32.268-32.34h19.98c17.792 0 32.268 14.51 32.268 32.34z" fill="#ffa402"/></g></g></svg>