<svg id="Layer_1" enable-background="new 0 0 512 512" height="512" viewBox="0 0 512 512" width="512" xmlns="http://www.w3.org/2000/svg"><g><g><g><path d="m293.186 479.66c0 17.83-14.48 32.34-32.277 32.34h-228.632c-17.797 0-32.277-14.51-32.277-32.34s14.48-32.33 32.277-32.33h2.808l16.868-23.3c1.409-1.95 3.667-3.11 6.066-3.11 2.408 0 4.667 1.16 6.076 3.11l16.868 23.3h179.946c17.797.001 32.277 14.501 32.277 32.33z" fill="#9090fb"/><path d="m293.186 479.66c0 17.83-14.48 32.34-32.277 32.34h-19.986c17.797 0 32.277-14.51 32.277-32.34s-14.48-32.33-32.277-32.33h19.986c17.797.001 32.277 14.501 32.277 32.33z" fill="#6c5fea"/></g><g><path d="m512 32.34c0 17.83-14.48 32.33-32.277 32.33h-19.986l-16.868 23.3c-1.409 1.95-3.667 3.11-6.066 3.11-2.408 0-4.667-1.16-6.076-3.11l-16.858-23.3h-123.203c-17.797 0-32.277-14.5-32.277-32.33s14.48-32.34 32.277-32.34h189.057c17.797 0 32.277 14.51 32.277 32.34z" fill="#fbdf63"/><path d="m512 32.34c0 17.83-14.48 32.33-32.277 32.33h-19.986c17.797 0 32.277-14.5 32.277-32.33s-14.48-32.34-32.277-32.34h19.986c17.797 0 32.277 14.51 32.277 32.34z" fill="#ffa402"/></g></g><g fill="#90abbd"><path d="m471.879 429.572c0-4.143-3.358-7.5-7.502-7.5h-72.196c-4.144 0-7.502 3.357-7.502 7.5s3.358 7.5 7.502 7.5h72.196c4.144 0 7.502-3.357 7.502-7.5z"/><path d="m464.377 457.072h-32.135c-4.144 0-7.502 3.357-7.502 7.5s3.358 7.5 7.502 7.5h32.135c4.144 0 7.502-3.357 7.502-7.5s-3.358-7.5-7.502-7.5z"/><path d="m116.754 74.86h-68.446c-4.144 0-7.502 3.357-7.502 7.5s3.358 7.5 7.502 7.5h68.445c4.144 0 7.502-3.357 7.502-7.5s-3.358-7.5-7.501-7.5z"/><path d="m48.308 54.86h32.135c4.144 0 7.502-3.357 7.502-7.5s-3.358-7.5-7.502-7.5h-32.135c-4.144 0-7.502 3.357-7.502 7.5s3.359 7.5 7.502 7.5z"/></g><path d="m420.176 252.39c0 76.18-51.965 140.24-122.384 158.67-13.304 3.49-27.268 5.34-41.672 5.34-90.606 0-164.056-73.43-164.056-164.01 0-90.59 73.451-164.02 164.056-164.02 14.404 0 28.368 1.85 41.672 5.34 70.42 18.43 122.384 82.49 122.384 158.68z" fill="#d9f0f4"/><path d="m420.176 252.39c0 76.18-51.965 140.24-122.384 158.67 61.947-26.04 105.44-87.28 105.44-158.67s-43.492-132.64-105.44-158.68c70.42 18.43 122.384 82.49 122.384 158.68z" fill="#bae1e5"/><path d="m256.12 80.4c-4.001 0-7.982.14-11.913.41-89.375 6.13-160.205 80.74-160.205 171.58 0 90.83 70.83 165.44 160.205 171.57 3.931.27 7.912.41 11.913.41 94.907 0 172.119-77.15 172.119-171.98 0-94.84-77.212-171.99-172.119-171.99zm100.639 51.52c32.699 27.32 54.155 67.66 56.296 112.97h-49.184c-1.04-39.22-10.223-76.12-26.227-105.51 5.902-1.98 11.633-4.19 17.185-6.61.649-.28 1.289-.56 1.93-.85zm-27.098 246.64c4.491 1.43 8.882 2.99 13.164 4.69-9.233 6.12-19.136 11.3-29.588 15.39 5.821-5.78 11.322-12.49 16.424-20.08zm-66.039 30.3v-41.06c17.625.49 34.67 2.69 50.704 6.51-14.594 20.02-32.159 32-50.704 34.55zm59.287-47.86c-18.645-4.88-38.611-7.66-59.287-8.2v-30.98h-15.004v30.98c-20.676.54-40.642 3.32-59.287 8.2-15.794-27.64-24.897-63.12-25.957-101.11h85.244v26.93h15.004v-26.93h85.244c-1.06 37.99-10.163 73.47-25.957 101.11zm-159.535-116.11c1.06-37.99 10.163-73.48 25.957-101.12 18.645 4.89 38.611 7.67 59.287 8.21v92.91zm100.248 0v-92.91c20.676-.54 40.642-3.32 59.287-8.21 15.794 27.64 24.897 63.13 25.957 101.12zm50.705-114.43c-16.035 3.83-33.079 6.03-50.704 6.51v-41.06c18.544 2.55 36.109 14.53 50.704 34.55zm-1.091-24.32c10.453 4.08 20.356 9.26 29.588 15.38-4.281 1.7-8.673 3.27-13.164 4.69-5.101-7.59-10.602-14.29-16.424-20.07zm-64.618-10.23v41.06c-17.625-.48-34.67-2.68-50.704-6.51 14.594-20.02 32.159-32 50.704-34.55zm-49.614 10.23c-5.822 5.78-11.323 12.48-16.425 20.07-4.491-1.43-8.883-2.99-13.164-4.69 9.233-6.12 19.136-11.3 29.589-15.38zm-43.522 25.78c6.152 2.76 12.534 5.25 19.115 7.46-16.005 29.39-25.187 66.29-26.227 105.51h-49.184c2.14-45.31 23.596-85.65 56.296-112.97zm-56.296 127.97h49.184c1.04 39.21 10.223 76.11 26.227 105.5-6.582 2.21-12.964 4.7-19.115 7.47-32.7-27.33-54.156-67.67-56.296-112.97zm70.229 123.36c4.281-1.7 8.673-3.26 13.164-4.69 5.101 7.59 10.603 14.3 16.425 20.08-10.453-4.09-20.356-9.27-29.589-15.39zm28.498-8.94c16.035-3.82 33.079-6.02 50.704-6.51v41.06c-18.544-2.55-36.109-14.53-50.704-34.55zm158.846-1.46c-.64-.29-1.27-.57-1.92-.85-5.552-2.42-11.293-4.63-17.195-6.61 16.005-29.39 25.187-66.29 26.227-105.5h49.184c-2.141 45.3-23.597 85.64-56.296 112.96z" fill="#4dd4f7"/><path d="m428.239 252.39c0 94.83-77.212 171.98-172.119 171.98-4.001 0-7.982-.14-11.913-.41 43.332-3.26 82.183-22.55 110.631-51.96.65.28 1.28.56 1.92.85 32.699-27.32 54.155-67.66 56.296-112.96h-9.983c.11-2.48.16-4.99.16-7.5s-.05-5.02-.16-7.5h9.983c-2.141-45.31-23.597-85.65-56.296-112.97-.64.29-1.28.57-1.93.85-28.448-29.41-67.299-48.7-110.621-51.96 3.931-.27 7.912-.41 11.913-.41 94.907 0 172.119 77.15 172.119 171.99z" fill="#00c2f3"/><g fill="#ff6b81"><ellipse cx="114.989" cy="167.839" rx="25.016" ry="25"/><path d="m256.12 279.315c-13.793 0-25.015 11.215-25.015 25s11.222 25 25.015 25c13.794 0 25.016-11.215 25.016-25s-11.222-25-25.016-25z"/><ellipse cx="351.365" cy="199.166" rx="25.016" ry="25"/></g></g></svg>