<svg id="Layer_1" enable-background="new 0 0 512 512" height="512" viewBox="0 0 512 512" width="512" xmlns="http://www.w3.org/2000/svg"><g><g fill="#d9f0f4"><path d="m53.763 134.833c-4.017-.992-8.087 1.456-9.083 5.478-.98 3.959-23.741 98.401-.091 224.014.679 3.603 3.826 6.116 7.362 6.115.46 0 .928-.042 1.396-.131 4.07-.767 6.749-4.689 5.982-8.76-23.012-122.218-.322-216.693-.09-217.633.996-4.021-1.456-8.087-5.476-9.083z"/><path d="m466.686 140.311c-.996-4.019-5.056-6.471-9.08-5.477-4.02.994-6.473 5.061-5.481 9.081.232.941 22.921 95.415-.09 217.633-.767 4.071 1.912 7.993 5.982 8.76.469.089.936.131 1.396.131 3.536 0 6.684-2.512 7.362-6.115 23.651-125.612.891-220.054-.089-224.013z"/><path d="m364.68 448.925c-122.057 22.992-216.436.37-217.579.09-4.019-.991-8.087 1.456-9.083 5.478-.996 4.021 1.456 8.09 5.477 9.086 2.614.648 44.697 10.801 109.168 10.801 33.126 0 72.168-2.682 114.794-10.711 4.07-.767 6.749-4.689 5.982-8.76-.767-4.073-4.682-6.753-8.759-5.984z"/><path d="m367.457 41.383c-125.584-23.656-220.003-.891-223.962.09-4.021.996-6.473 5.065-5.477 9.086.846 3.416 3.907 5.7 7.274 5.7.597 0 1.204-.072 1.809-.222.938-.232 95.177-22.965 217.579.09 4.071.768 7.992-1.913 8.759-5.984s-1.912-7.993-5.982-8.76z"/></g><g><path d="m420.171 252.531c0 76.197-51.964 140.272-122.384 158.706-13.304 3.491-27.268 5.341-41.672 5.341-90.605 0-164.055-73.447-164.055-164.047 0-90.611 73.45-164.057 164.055-164.057 14.404 0 28.368 1.85 41.672 5.341 70.419 18.434 122.384 82.509 122.384 158.716z" fill="#d9f0f4"/><path d="m420.171 252.531c0 76.197-51.964 140.272-122.384 158.706 61.947-26.046 105.439-87.3 105.439-158.706s-43.492-132.67-105.439-158.716c70.419 18.434 122.384 82.509 122.384 158.716z" fill="#bae1e5"/><path d="m256.115 80.502c-4.001 0-7.982.14-11.913.41-89.375 6.131-160.204 80.758-160.204 171.619 0 90.851 70.83 165.478 160.204 171.609 3.931.27 7.912.41 11.913.41 94.906 0 172.117-77.168 172.117-172.019.001-94.862-77.21-172.029-172.117-172.029zm100.638 51.531c32.699 27.326 54.155 67.675 56.296 112.996h-49.184c-1.04-39.229-10.223-76.137-26.227-105.534 5.902-1.981 11.633-4.191 17.185-6.611.65-.28 1.29-.56 1.93-.851zm-27.097 246.697c4.491 1.43 8.882 2.991 13.164 4.691-9.233 6.121-19.135 11.303-29.588 15.394 5.821-5.782 11.322-12.494 16.424-20.085zm-66.038 30.306v-41.069c17.625.49 34.67 2.691 50.704 6.512-14.594 20.024-32.159 32.007-50.704 34.557zm59.286-47.87c-18.645-4.881-38.611-7.662-59.287-8.202v-30.987h-15.004v30.987c-20.676.54-40.641 3.321-59.286 8.202-15.794-27.646-24.897-63.134-25.957-101.133h85.244v26.936h15.004v-26.936h85.244c-1.061 37.998-10.164 73.486-25.958 101.133zm-159.534-116.137c1.06-37.999 10.163-73.497 25.957-101.143 18.645 4.891 38.611 7.672 59.286 8.212v92.931zm100.248 0v-92.931c20.676-.54 40.641-3.321 59.287-8.212 15.794 27.646 24.897 63.144 25.957 101.143zm50.704-114.456c-16.034 3.831-33.079 6.031-50.704 6.511v-41.069c18.545 2.551 36.11 14.534 50.704 34.558zm-1.091-24.325c10.453 4.081 20.356 9.262 29.588 15.383-4.281 1.7-8.673 3.271-13.164 4.691-5.101-7.592-10.602-14.293-16.424-20.074zm-64.618-10.233v41.069c-17.625-.48-34.67-2.681-50.704-6.511 14.594-20.024 32.159-32.007 50.704-34.558zm-49.613 10.233c-5.822 5.781-11.323 12.483-16.425 20.075-4.491-1.43-8.882-2.991-13.164-4.691 9.233-6.122 19.136-11.303 29.589-15.384zm-43.522 25.785c6.152 2.761 12.533 5.251 19.115 7.462-16.004 29.397-25.187 66.305-26.227 105.534h-49.184c2.141-45.32 23.597-85.669 56.296-112.996zm-56.296 128h49.184c1.04 39.219 10.223 76.127 26.227 105.524-6.582 2.21-12.964 4.701-19.115 7.472-32.699-27.337-54.155-67.686-56.296-112.996zm70.229 123.388c4.281-1.7 8.672-3.261 13.164-4.691 5.101 7.592 10.603 14.303 16.425 20.085-10.453-4.092-20.356-9.273-29.589-15.394zm28.498-8.942c16.034-3.821 33.079-6.021 50.704-6.512v41.069c-18.545-2.55-36.11-14.533-50.704-34.557zm158.844-1.461c-.64-.29-1.27-.57-1.92-.85-5.552-2.421-11.293-4.631-17.195-6.612 16.004-29.397 25.187-66.305 26.227-105.524h49.184c-2.141 45.311-23.597 85.66-56.296 112.986z" fill="#4dd4f7"/><path d="m428.233 252.531c0 94.852-77.211 172.019-172.117 172.019-4.001 0-7.982-.14-11.913-.41 43.332-3.261 82.183-22.555 110.631-51.972.65.28 1.28.56 1.92.85 32.699-27.326 54.155-67.675 56.296-112.986h-9.983c.11-2.481.16-4.991.16-7.502s-.05-5.021-.16-7.502h9.983c-2.141-45.32-23.597-85.669-56.296-112.996-.64.29-1.28.57-1.93.85-28.448-29.417-67.299-48.711-110.621-51.972 3.931-.27 7.912-.41 11.913-.41 94.906.002 172.117 77.169 172.117 172.031z" fill="#00c2f3"/><g fill="#ff6b81"><ellipse cx="114.986" cy="167.961" rx="25.016" ry="25.006"/><path d="m256.116 279.462c-13.793 0-25.015 11.217-25.015 25.006 0 13.788 11.222 25.006 25.015 25.006 13.794 0 25.016-11.217 25.016-25.006-.001-13.788-11.223-25.006-25.016-25.006z"/><ellipse cx="351.36" cy="199.295" rx="25.016" ry="25.006"/></g></g><g><path d="m512 55.529c0 17.09-7.76 32.389-19.95 42.589-9.65 8.08-22.08 12.94-35.63 12.94-3.42 0-6.77-.31-10.02-.9-9.63-1.76-18.4-6-25.61-12.04-12.19-10.2-19.95-25.5-19.95-42.589 0-27.209 19.68-49.909 45.58-54.629 3.24-.59 6.59-.9 10-.9 30.64 0 55.58 24.91 55.58 55.529z" fill="#d9f0f4"/><path d="m512 55.529c0 17.09-7.76 32.389-19.95 42.589-9.65 8.08-22.08 12.94-35.63 12.94-3.42 0-6.77-.31-10.02-.9 25.91-4.7 45.55-27.37 45.55-54.629 0-27.25-19.63-49.919-45.53-54.629 3.24-.59 6.59-.9 10-.9 30.64 0 55.58 24.91 55.58 55.529z" fill="#bae1e5"/><path d="m492.05 94.488v3.63c-9.65 8.08-22.08 12.94-35.63 12.94-3.42 0-6.77-.31-10.02-.9-9.63-1.76-18.4-6-25.61-12.04v-3.63c0-19.69 15.65-35.119 35.63-35.119 13.55 0 25.12 7.1 31.15 17.82 2.86 5.08 4.48 10.97 4.48 17.299z" fill="#09eaa3"/><path d="m492.05 94.488v3.63c-9.65 8.08-22.08 12.94-35.63 12.94-3.42 0-6.77-.31-10.02-.9 18.61-3.37 33.98-16.02 41.17-32.969 2.86 5.08 4.48 10.97 4.48 17.299z" fill="#14bb87"/><ellipse cx="456.418" cy="51.874" fill="#fdd9b4" rx="22.5" ry="22.479"/></g><g><path d="m111.16 55.533c0 17.09-7.76 32.389-19.95 42.589-9.65 8.08-22.08 12.94-35.63 12.94-3.42 0-6.77-.31-10.02-.9-9.63-1.76-18.4-6-25.61-12.04-12.19-10.2-19.95-25.499-19.95-42.589 0-27.21 19.68-49.909 45.58-54.629 3.24-.59 6.59-.9 10-.9 30.64 0 55.58 24.91 55.58 55.529z" fill="#d9f0f4"/><path d="m111.16 55.533c0 17.09-7.76 32.389-19.95 42.589-9.65 8.08-22.08 12.94-35.63 12.94-3.42 0-6.77-.31-10.02-.9 25.91-4.7 45.55-27.37 45.55-54.629 0-27.25-19.63-49.919-45.53-54.629 3.24-.59 6.59-.9 10-.9 30.64 0 55.58 24.91 55.58 55.529z" fill="#bae1e5"/><path d="m91.21 94.492v3.63c-9.65 8.08-22.08 12.94-35.63 12.94-3.42 0-6.77-.31-10.02-.9-9.63-1.76-18.4-6-25.61-12.04v-3.63c0-19.69 15.65-35.119 35.63-35.119 13.55 0 25.12 7.1 31.15 17.82 2.86 5.08 4.48 10.969 4.48 17.299z" fill="#ff6b81"/><path d="m91.21 94.492v3.63c-9.65 8.08-22.08 12.94-35.63 12.94-3.42 0-6.77-.31-10.02-.9 18.61-3.37 33.98-16.02 41.17-32.969 2.86 5.08 4.48 10.969 4.48 17.299z" fill="#ed2061"/><ellipse cx="55.578" cy="51.878" fill="#fdd9b4" rx="22.5" ry="22.479"/></g><g><path d="m512 456.467c0 17.09-7.76 32.389-19.95 42.589-9.65 8.08-22.08 12.94-35.63 12.94-3.42 0-6.77-.31-10.02-.9-9.63-1.76-18.4-6-25.61-12.04-12.19-10.2-19.95-25.5-19.95-42.589 0-27.21 19.68-49.909 45.58-54.629 3.24-.59 6.59-.9 10-.9 30.64 0 55.58 24.91 55.58 55.529z" fill="#d9f0f4"/><path d="m512 456.467c0 17.09-7.76 32.389-19.95 42.589-9.65 8.08-22.08 12.94-35.63 12.94-3.42 0-6.77-.31-10.02-.9 25.91-4.7 45.55-27.37 45.55-54.629 0-27.25-19.63-49.919-45.53-54.629 3.24-.59 6.59-.9 10-.9 30.64 0 55.58 24.91 55.58 55.529z" fill="#bae1e5"/><path d="m492.05 495.426v3.63c-9.65 8.08-22.08 12.94-35.63 12.94-3.42 0-6.77-.31-10.02-.9-9.63-1.76-18.4-6-25.61-12.04v-3.63c0-19.69 15.65-35.119 35.63-35.119 13.55 0 25.12 7.1 31.15 17.82 2.86 5.08 4.48 10.969 4.48 17.299z" fill="#9090fb"/><path d="m492.05 495.426v3.63c-9.65 8.08-22.08 12.94-35.63 12.94-3.42 0-6.77-.31-10.02-.9 18.61-3.37 33.98-16.02 41.17-32.969 2.86 5.08 4.48 10.969 4.48 17.299z" fill="#6c5fea"/><ellipse cx="456.418" cy="452.812" fill="#fdd9b4" rx="22.5" ry="22.479"/></g><g><path d="m111.16 456.471c0 17.09-7.76 32.389-19.95 42.589-9.65 8.08-22.08 12.94-35.63 12.94-3.42 0-6.77-.31-10.02-.9-9.63-1.76-18.4-6-25.61-12.04-12.19-10.2-19.95-25.499-19.95-42.589 0-27.21 19.68-49.909 45.58-54.629 3.24-.59 6.59-.9 10-.9 30.64 0 55.58 24.909 55.58 55.529z" fill="#d9f0f4"/><path d="m111.16 456.471c0 17.09-7.76 32.389-19.95 42.589-9.65 8.08-22.08 12.94-35.63 12.94-3.42 0-6.77-.31-10.02-.9 25.91-4.7 45.55-27.37 45.55-54.629 0-27.25-19.63-49.919-45.53-54.629 3.24-.59 6.59-.9 10-.9 30.64 0 55.58 24.909 55.58 55.529z" fill="#bae1e5"/><path d="m91.21 495.43v3.63c-9.65 8.08-22.08 12.94-35.63 12.94-3.42 0-6.77-.31-10.02-.9-9.63-1.76-18.4-6-25.61-12.04v-3.63c0-19.69 15.65-35.119 35.63-35.119 13.55 0 25.12 7.1 31.15 17.82 2.86 5.079 4.48 10.969 4.48 17.299z" fill="#56788b"/><path d="m91.21 495.43v3.63c-9.65 8.08-22.08 12.94-35.63 12.94-3.42 0-6.77-.31-10.02-.9 18.61-3.37 33.98-16.02 41.17-32.969 2.86 5.079 4.48 10.969 4.48 17.299z" fill="#415e6f"/><ellipse cx="55.578" cy="452.816" fill="#fdd9b4" rx="22.5" ry="22.479"/></g></g></svg>