<svg id="Layer_1" enable-background="new 0 0 512 512" height="512" viewBox="0 0 512 512" width="512" xmlns="http://www.w3.org/2000/svg"><g><g><path d="m128.608 149.6v202.39c0 15.34 12.496 27.83 27.852 27.83h199.224c15.356 0 27.852-12.49 27.852-27.83v-202.39l-127.464-7.384z" fill="#ff6b81"/><path d="m383.536 111v240.99c0 15.34-12.496 27.83-27.852 27.83h-19.994c15.356 0 27.852-12.49 27.852-27.83v-240.99c0-15.35-12.496-27.83-27.852-27.83h19.994c15.356 0 27.852 12.48 27.852 27.83z" fill="#ed2061"/><path d="m383.536 111v38.6h-254.928v-38.6c0-15.35 12.496-27.83 27.852-27.83h199.224c15.356 0 27.852 12.48 27.852 27.83z" fill="#90abbd"/><g fill="#56788b"><path d="m383.536 111v38.6h-19.994v-38.6c0-15.35-12.496-27.83-27.852-27.83h19.994c15.356 0 27.852 12.48 27.852 27.83z"/><g><path d="m196.281 108.885h-30.63c-4.141 0-7.498 3.357-7.498 7.5s3.357 7.5 7.498 7.5h30.63c4.141 0 7.498-3.357 7.498-7.5s-3.357-7.5-7.498-7.5z"/><path d="m256.264 108.885h-30.63c-4.141 0-7.498 3.357-7.498 7.5s3.357 7.5 7.498 7.5h30.63c4.141 0 7.498-3.357 7.498-7.5s-3.357-7.5-7.498-7.5z"/></g></g></g><g><path d="m511.86 88.336v286.319c0 2.853-2.313 5.166-5.166 5.166h-75.232c-15.356 0-27.852-12.49-27.852-27.83v-240.991c0-15.37 12.46-27.83 27.83-27.83h75.254c2.853 0 5.166 2.313 5.166 5.166z" fill="#fbdf63"/><path d="m506.694 83.17h-14.829v296.65h14.829c2.853 0 5.166-2.313 5.166-5.166v-286.318c0-2.853-2.313-5.166-5.166-5.166z" fill="#ffa402"/><path d="m511.86 88.336v61.264h-108.25v-38.6c0-15.37 12.46-27.83 27.83-27.83h75.254c2.853 0 5.166 2.313 5.166 5.166z" fill="#90abbd"/><path d="m506.694 83.17h-14.829v66.43h19.994v-61.264c.001-2.853-2.312-5.166-5.165-5.166z" fill="#56788b"/><g><path d="m471.284 108.885h-30.63c-4.141 0-7.498 3.357-7.498 7.5s3.357 7.5 7.498 7.5h30.63c4.141 0 7.498-3.357 7.498-7.5s-3.357-7.5-7.498-7.5z" fill="#56788b"/></g></g><g><path d="m107.964 111.022v240.968c0 15.34-12.496 27.83-27.852 27.83h-74.722c-2.853 0-5.166-2.313-5.166-5.166v-286.318c0-2.853 2.313-5.166 5.166-5.166h74.722c15.382 0 27.852 12.47 27.852 27.852z" fill="#09eaa3"/><path d="m107.964 111v240.99c0 15.34-12.496 27.83-27.852 27.83h-19.994c15.356 0 27.852-12.49 27.852-27.83v-240.99c0-15.35-12.496-27.83-27.852-27.83h19.994c15.356 0 27.852 12.48 27.852 27.83z" fill="#14bb87"/><path d="m107.964 111.022v38.578h-107.74v-61.264c0-2.853 2.313-5.166 5.166-5.166h74.722c15.382 0 27.852 12.47 27.852 27.852z" fill="#90abbd"/><path d="m107.964 111v38.6h-19.994v-38.6c0-15.35-12.496-27.83-27.852-27.83h19.994c15.356 0 27.852 12.48 27.852 27.83z" fill="#56788b"/></g><path d="m504.358 21.276h-496.86c-4.141 0-7.498 3.357-7.498 7.5s3.357 7.5 7.498 7.5h496.86c4.141 0 7.498-3.357 7.498-7.5s-3.357-7.5-7.498-7.5z" fill="#90abbd"/><path d="m147.652 28.78c0 15.86-12.93 28.77-28.83 28.77-3.52 0-6.89-.63-10-1.79-10.98-4.06-18.83-14.63-18.83-26.98 0-12.36 7.85-22.93 18.83-26.99 3.11-1.16 6.48-1.79 10-1.79 15.9 0 28.83 12.91 28.83 28.78z" fill="#ff6b81"/><path d="m147.652 28.78c0 15.86-12.93 28.77-28.83 28.77-3.52 0-6.89-.63-10-1.79 10.98-4.06 18.83-14.63 18.83-26.98 0-12.36-7.85-22.93-18.83-26.99 3.11-1.16 6.48-1.79 10-1.79 15.9 0 28.83 12.91 28.83 28.78z" fill="#ed2061"/><g><path d="m207.597 512c-12.456 0-22.634-10.18-22.634-22.64l.01-19.8.03-142.36c.01-10.72 8.018-19.49 17.805-19.49s17.785 8.76 17.785 19.48l-.02 52.629c.01-10.72 8.018-19.49 17.805-19.49s17.785 8.76 17.785 19.48c0-10.72 8.008-19.49 17.795-19.49 9.777 0 17.785 8.75 17.785 19.46.01-5.35 2.009-10.21 5.239-13.74 3.219-3.54 7.678-5.73 12.566-5.73 9.777 0 17.785 8.76 17.785 19.48l-.02 89.551-.01 19.98c0 12.46-10.187 22.65-22.644 22.65z" fill="#fdd9b4"/><path d="m207.597 512c-12.456 0-22.634-10.18-22.634-22.64l.01-19.8c.1 12.37 10.237 22.44 22.624 22.44l97.063-.03c12.456 0 22.644-10.19 22.644-22.65l.01.02-.01 19.98c0 12.46-10.187 22.65-22.644 22.65z" fill="#fab684"/></g><path d="m300.349 237.509-66.775-40.155c-1.62-.974-3.637-1-5.279-.071-1.645.93-2.661 2.673-2.661 4.562v80.31c0 1.888 1.016 3.631 2.661 4.562.8.452 1.69.679 2.579.679.935 0 1.87-.251 2.7-.749l66.775-40.155c1.576-.948 2.54-2.652 2.54-4.491s-.963-3.544-2.54-4.492z" fill="#fff"/><g fill="#90abbd"><path d="m143.456 440.323h-124.07l17.951-17.914c2.932-2.926 2.937-7.675.013-10.606-2.925-2.933-7.672-2.938-10.603-.013l-19.885 19.843c-4.333 4.324-6.719 10.074-6.718 16.191s2.387 11.866 6.719 16.189l19.884 19.843c1.463 1.461 3.379 2.19 5.295 2.19 1.922 0 3.844-.734 5.308-2.203 2.924-2.932 2.919-7.681-.013-10.606l-17.951-17.914h124.07c4.141 0 7.498-3.357 7.498-7.5s-3.357-7.5-7.498-7.5z"/><path d="m485.398 411.79c-2.932-2.927-7.679-2.921-10.603.013-2.924 2.932-2.919 7.681.013 10.606l17.95 17.914h-124.07c-4.141 0-7.498 3.357-7.498 7.5s3.357 7.5 7.498 7.5h124.07l-17.951 17.914c-2.932 2.926-2.937 7.675-.013 10.606 1.465 1.469 3.386 2.203 5.308 2.203 1.916 0 3.832-.73 5.295-2.19l19.884-19.843c4.332-4.323 6.718-10.072 6.719-16.189s-2.386-11.867-6.719-16.191z"/></g></g></svg>