<svg id="Layer_1" enable-background="new 0 0 512 512" height="512" viewBox="0 0 512 512" width="512" xmlns="http://www.w3.org/2000/svg"><g><g><g><path d="m376.77 512h-328.06c-2.8 0-5.07-2.3-5.04-5.1 1.3-134.278 54.23-161.609 97.73-167.18h115.72c1.94.25 3.9.54 5.87.88 30.41 5.28 64 22.661 80.89 79.834z" fill="#9090fb"/><path d="m334.85 506.899c-1.05-108.287-35.68-150.919-71.86-166.3 30.41 5.28 64 22.661 80.89 79.834l32.89 91.567h-46.96c2.799 0 5.07-2.301 5.04-5.101z" fill="#6c5fea"/><path d="m257.12 339.72c-1.73 30.416-26.97 54.554-57.86 54.554s-56.13-24.137-57.86-54.554c10.92-1.39 21.24-1.42 30-1.42h55.72c8.76 0 19.08.03 30 1.42z" fill="#d9f0f4"/><path d="m338.03 298.865h-277.75c-3.41 0-5.81-3.34-4.75-6.589 13.84-42.655 19.86-115.377 19.86-115.377h247.53s6.02 72.722 19.87 115.377c1.05 3.249-1.34 6.589-4.76 6.589z" fill="#56788b"/><path d="m338.03 298.865h-138.77v-121.966h123.66s6.02 72.722 19.87 115.377c1.05 3.249-1.34 6.589-4.76 6.589z" fill="#415e6f"/><path d="m73.419 151.477 14.935 16.199 161.934-18.346 3.807-112.181c-17.591-46.102-210.96-84.952-180.676 114.328z" fill="#56788b"/><path d="m320.245 148.727c50.32-81.426-89.183-187.623-86.547-48.972v65.182h72.102z" fill="#415e6f"/><g><g fill="#fab684"><path d="m280.709 190.778h27.337c12.616 0 22.844-10.227 22.844-22.843s-10.228-22.843-22.844-22.843h-19.448z"/><path d="m116.598 190.778h-27.338c-12.616 0-22.844-10.227-22.844-22.843s10.228-22.843 22.844-22.843h19.448z"/></g><path d="m227.119 306.587c-2.331 6.318-3.534 22.525 0 31.705 0 15.388-12.473 27.863-27.859 27.863s-27.859-12.475-27.859-27.863c3.534-9.18 2.331-25.387 0-31.705z" fill="#fab684"/><path d="m292.219 222.268c0 22.117-18.81 48.534-55.93 78.541-2.08 1.69-4.29 3.23-6.59 4.609-9.18 5.499-19.91 8.439-30.64 8.419-13.42.03-26.43-4.579-36.83-13.029-37.11-30.007-55.92-56.424-55.92-78.541 0-2.35.09-4.699.28-7.009.96-9.649.68-53.704.66-82.151v-.03c-.25-9.639 5.15-18.548 13.82-22.797 18.94-8.419 48.55-12.619 78.19-12.599 21.27-.01 42.52 2.14 59.83 6.479 6.81 1.7 13.02 3.74 18.37 6.119 8.66 4.25 14.06 13.158 13.81 22.797v.03c-.02 28.447-.29 72.502.66 82.151.19 2.311.29 4.661.29 7.011z" fill="#fdd9b4"/><path d="m292.219 222.268c0 22.117-18.81 48.534-55.93 78.541-2.08 1.69-4.29 3.23-6.59 4.609 28.24-25.347 42.52-47.884 42.52-67.152 0-2.35-.1-4.699-.29-7.009-.95-9.649-.68-69.702-.66-98.149v-7.029c.23-9.019-4.48-17.398-12.18-21.917 6.81 1.7 13.02 3.74 18.37 6.119 8.66 4.25 14.06 13.158 13.81 22.797v.03c-.02 28.447-.29 72.502.66 82.151.19 2.309.29 4.659.29 7.009z" fill="#f9c19b"/><g><path d="m185.579 211.94c3.479 2.245 8.122 1.247 10.369-2.233.731-1.134 1.97-1.81 3.312-1.81s2.581.677 3.312 1.81c1.435 2.222 3.846 3.433 6.308 3.433 1.394 0 2.803-.388 4.061-1.2 3.48-2.246 4.48-6.888 2.233-10.368-3.507-5.431-9.456-8.674-15.915-8.674-6.458 0-12.407 3.243-15.914 8.674-2.246 3.48-1.246 8.122 2.234 10.368z" fill="#fab684"/></g></g><g fill="#6c5fea"><path d="m122.492 470.985c-1.376-.044-4.147.322-6.818 2.947-2.942 2.889-6.854 9.202-6.854 30.569 0 4.142 3.357 7.499 7.5 7.499s7.5-3.358 7.5-7.499c0-13.046 1.568-17.976 2.247-19.499 2.223-1.267 3.74-3.641 3.79-6.384.073-4.141-3.223-7.559-7.365-7.633z"/><path d="m282.848 473.931c-2.67-2.622-5.438-2.979-6.818-2.946-4.142.074-7.438 3.492-7.364 7.633.05 2.774 1.601 5.169 3.864 6.426.563 1.37 2.172 6.452 2.172 19.458 0 4.142 3.357 7.499 7.5 7.499s7.5-3.358 7.5-7.499c0-21.369-3.911-27.682-6.854-30.571z"/></g></g><g><path d="m223.836 236.29c-3.482-2.248-8.123-1.247-10.369 2.233-3.177 4.922-8.563 7.861-14.406 7.861s-11.229-2.939-14.407-7.861c-2.247-3.479-6.89-4.479-10.369-2.233-3.48 2.247-4.479 6.889-2.233 10.369 5.953 9.221 16.049 14.726 27.008 14.726s21.056-5.505 27.009-14.726c2.247-3.48 1.247-8.122-2.233-10.369z" fill="#fab684"/></g></g><g><path d="m468.331 420.435c0 50.493-41.07 91.565-91.56 91.565-3.38 0-6.72-.18-10-.55-45.8-4.99-81.56-43.903-81.56-91.015 0-47.113 35.76-86.025 81.56-91.015 3.28-.37 6.62-.55 10-.55 50.49-.001 91.56 41.072 91.56 91.565z" fill="#56788b"/><path d="m468.331 420.435c0 50.493-41.07 91.565-91.56 91.565-3.38 0-6.72-.18-10-.55 45.8-4.99 81.56-43.903 81.56-91.015 0-47.113-35.76-86.025-81.56-91.015 3.28-.37 6.62-.55 10-.55 50.49-.001 91.56 41.072 91.56 91.565z" fill="#415e6f"/><g><path d="m432.35 420.435c0 17.09-7.76 32.39-19.95 42.59h-71.26c-12.19-10.2-19.95-25.5-19.95-42.59 0-27.21 19.68-49.91 45.58-54.63 3.24-.59 6.59-.9 10-.9 30.64 0 55.58 24.91 55.58 55.53z" fill="#d9f0f4"/><path d="m432.35 420.435c0 17.09-7.76 32.39-19.95 42.59h-20c12.17-10.18 19.9-25.48 19.9-42.59 0-27.25-19.63-49.92-45.53-54.63 3.24-.59 6.59-.9 10-.9 30.64 0 55.58 24.91 55.58 55.53z" fill="#bae1e5"/><path d="m412.402 459.396v3.63c-9.65 8.08-22.08 12.94-35.63 12.94-3.42 0-6.77-.31-10.02-.9-9.63-1.76-18.4-6-25.61-12.04v-3.63c0-19.691 15.65-35.121 35.63-35.121 13.55 0 25.12 7.1 31.15 17.821 2.86 5.08 4.48 10.97 4.48 17.3z" fill="#ff6b81"/><path d="m412.402 459.396v3.63c-9.65 8.08-22.08 12.94-35.63 12.94-3.42 0-6.77-.31-10.02-.9 18.61-3.37 33.98-16.021 41.17-32.971 2.86 5.081 4.48 10.971 4.48 17.301z" fill="#ed2061"/><ellipse cx="376.77" cy="416.779" fill="#fdd9b4" rx="22.5" ry="22.481"/></g></g></g></svg>