<svg id="Layer_1" enable-background="new 0 0 512 512" height="512" viewBox="0 0 512 512" width="512" xmlns="http://www.w3.org/2000/svg"><g><path d="m256.001 0c-3.362 0-6.693.1-10.005.31-83.779 5.18-150.36 74.95-150.36 159.98 0 40 14.887 78.34 41.909 107.94 25.302 27.72 59.158 45.58 95.945 50.77v170.5c0 8.81 5.102 16.46 12.506 20.14 3.021 1.51 6.413 2.36 10.005 2.36 12.416 0 22.51-10.1 22.51-22.5v-170.5c36.787-5.19 70.643-23.05 95.945-50.77 27.023-29.6 41.909-67.94 41.909-107.94 0-88.39-71.943-160.29-160.364-160.29zm-122.848 160.29c0-67.71 55.106-122.79 122.847-122.79 67.742 0 122.847 55.08 122.847 122.79 0 67.7-55.105 122.79-122.847 122.79-67.741 0-122.847-55.09-122.847-122.79z" fill="#d9f0f4"/><path d="m416.365 160.29c0 40-14.887 78.34-41.909 107.94-25.302 27.72-59.158 45.58-95.945 50.77v170.5c0 12.4-10.095 22.5-22.51 22.5-3.592 0-6.983-.85-10.005-2.36 7.403-3.68 12.506-11.33 12.506-20.14v-170.5c36.787-5.19 70.643-23.05 95.945-50.77 27.023-29.6 41.909-67.94 41.909-107.94 0-85.03-66.581-154.8-150.36-159.98 3.312-.21 6.643-.31 10.005-.31 88.421 0 160.364 71.9 160.364 160.29z" fill="#bae1e5"/><path d="m443.708 120.18v80.21c0 12.35-10.045 22.4-22.4 22.4h-330.374c-12.346 0-22.4-10.05-22.4-22.4v-80.21c0-12.35 10.055-22.39 22.4-22.39h330.374c12.355 0 22.4 10.04 22.4 22.39z" fill="#4dd4f7"/><path d="m443.708 120.18v80.21c0 12.35-10.045 22.4-22.4 22.4h-20.009c12.366 0 22.4-10.03 22.4-22.4v-80.21c0-12.37-10.035-22.39-22.4-22.39h20.009c12.355 0 22.4 10.04 22.4 22.39z" fill="#00c2f3"/><g fill="#90abbd"><path d="m483.965 35.495c0-4.143-3.359-7.5-7.504-7.5h-72.209c-4.145 0-7.503 3.357-7.503 7.5s3.359 7.5 7.503 7.5h72.209c4.145 0 7.504-3.357 7.504-7.5z"/><path d="m476.462 62.995h-32.141c-4.145 0-7.503 3.357-7.503 7.5s3.359 7.5 7.503 7.5h32.141c4.145 0 7.504-3.357 7.504-7.5s-3.36-7.5-7.504-7.5z"/><path d="m103.998 314.227h-68.458c-4.144 0-7.503 3.357-7.503 7.5s3.359 7.5 7.503 7.5h68.458c4.144 0 7.503-3.357 7.503-7.5s-3.359-7.5-7.503-7.5z"/><path d="m35.54 294.227h32.141c4.144 0 7.504-3.357 7.504-7.5s-3.359-7.5-7.504-7.5h-32.141c-4.144 0-7.503 3.357-7.503 7.5s3.359 7.5 7.503 7.5z"/></g><g fill="#fff"><path d="m193.83 132.117c-3.831-1.575-8.217.248-9.797 4.077l-10.57 25.64-10.57-25.64c-1.158-2.81-3.898-4.643-6.938-4.643s-5.78 1.833-6.938 4.643l-10.57 25.64-10.57-25.64c-1.579-3.83-5.966-5.654-9.797-4.077-3.831 1.578-5.658 5.962-4.079 9.792l17.508 42.468c1.158 2.81 3.898 4.643 6.938 4.643s5.78-1.833 6.938-4.643l10.57-25.64 10.57 25.64c1.158 2.81 3.898 4.643 6.938 4.643s5.78-1.833 6.938-4.643l17.508-42.468c1.579-3.83-.248-8.214-4.079-9.792z"/><path d="m293.876 132.117c-3.83-1.576-8.218.248-9.797 4.077l-10.57 25.64-10.57-25.64c-1.158-2.81-3.897-4.643-6.937-4.643-3.039 0-5.78 1.833-6.937 4.643l-10.571 25.64-10.571-25.64c-1.579-3.83-5.965-5.654-9.796-4.077-3.831 1.578-5.658 5.962-4.079 9.792l17.508 42.468c1.158 2.81 3.897 4.643 6.937 4.643s5.78-1.833 6.937-4.643l10.571-25.64 10.57 25.64c1.159 2.81 3.898 4.643 6.938 4.643 3.039 0 5.779-1.833 6.938-4.643l17.508-42.468c1.579-3.83-.247-8.214-4.079-9.792z"/><path d="m393.923 132.117c-3.83-1.576-8.217.248-9.797 4.077l-10.57 25.64-10.57-25.64c-1.159-2.81-3.898-4.643-6.938-4.643-3.039 0-5.779 1.833-6.938 4.643l-10.57 25.64-10.57-25.64c-1.58-3.83-5.967-5.652-9.797-4.077-3.832 1.578-5.658 5.962-4.079 9.792l17.508 42.468c1.159 2.81 3.898 4.643 6.938 4.643 3.039 0 5.779-1.833 6.938-4.643l10.57-25.64 10.57 25.64c1.159 2.81 3.898 4.643 6.938 4.643 3.039 0 5.779-1.833 6.938-4.643l17.508-42.468c1.578-3.83-.248-8.214-4.079-9.792z"/></g><g><path d="m512 344.96v122.66c0 2.85-1.621 5.46-4.172 6.72-1.051.53-2.191.78-3.332.78-1.601 0-3.201-.51-4.532-1.53l-7.974-6.06-31.575-24.02h-97.265c-12.636 0-22.911-10.29-22.911-22.93v-75.62c0-12.64 10.275-22.93 22.911-22.93h125.939c12.636 0 22.911 10.29 22.911 22.93z" fill="#ff6b81"/><path d="m512 344.96v122.66c0 2.85-1.621 5.46-4.172 6.72-1.051.53-2.191.78-3.332.78-1.601 0-3.201-.51-4.532-1.53l-7.974-6.06v-122.57c0-12.64-10.275-22.93-22.911-22.93h20.009c12.637 0 22.912 10.29 22.912 22.93z" fill="#ed2061"/><g fill="#fff"><path d="m386.176 357.708h79.888c4.142 0 7.501 3.358 7.501 7.5s-3.358 7.5-7.501 7.5h-79.888c-4.142 0-7.501-3.358-7.501-7.5s3.359-7.5 7.501-7.5z"/><path d="m396.162 391.708h69.902c4.142 0 7.501 3.358 7.501 7.5s-3.358 7.5-7.501 7.5h-69.902c-4.142 0-7.501-3.358-7.501-7.5s3.358-7.5 7.501-7.5z"/></g></g><g><path d="m171.764 381.835v75.62c0 12.64-10.281 22.93-22.912 22.93h-97.268l-39.543 30.08c-1.33 1.02-2.93 1.53-4.54 1.53-1.14 0-2.28-.25-3.33-.78-2.55-1.26-4.17-3.87-4.17-6.72v-122.66c0-12.64 10.281-22.93 22.912-22.93h125.94c12.63 0 22.911 10.29 22.911 22.93z" fill="#fbdf63"/><path d="m171.764 381.835v75.62c0 12.64-10.281 22.93-22.912 22.93h-20.002c12.631 0 22.912-10.29 22.912-22.93v-75.62c0-12.64-10.281-22.93-22.912-22.93h20.002c12.631 0 22.912 10.29 22.912 22.93z" fill="#ffa402"/><g fill="#fff"><path d="m125.826 394.579h-79.888c-4.142 0-7.501 3.358-7.501 7.5s3.358 7.5 7.501 7.5h79.888c4.142 0 7.501-3.358 7.501-7.5s-3.359-7.5-7.501-7.5z"/><path d="m115.84 428.579h-69.902c-4.142 0-7.501 3.358-7.501 7.5s3.358 7.5 7.501 7.5h69.902c4.142 0 7.501-3.358 7.501-7.5s-3.358-7.5-7.501-7.5z"/></g></g></g></svg>