<svg id="Layer_1" enable-background="new 0 0 512 512" height="512" viewBox="0 0 512 512" width="512" xmlns="http://www.w3.org/2000/svg"><g><g><g><g><g><g><path d="m432.193 53.5v405c0 29.5-23.961 53.5-53.41 53.5h-227.582c-29.449 0-53.41-24-53.41-53.5v-405c0-29.5 23.961-53.5 53.41-53.5h227.583c29.448 0 53.409 24 53.409 53.5z" fill="#56788b"/><path d="m432.193 53.5v405c0 29.5-23.961 53.5-53.41 53.5h-19.992c29.449 0 53.41-24 53.41-53.5v-405c0-29.5-23.961-53.5-53.41-53.5h19.992c29.449 0 53.41 24 53.41 53.5z" fill="#415e6f"/><path d="m402.245 52.26v407.48c0 13.1-10.636 23.76-23.721 23.76h-227.063c-13.085 0-23.721-10.66-23.721-23.76v-407.48c0-13.1 10.636-23.76 23.721-23.76h23.701c3.249 0 6.138 2.1 7.137 5.2l5.868 18.23c1.459 4.53 5.618 7.57 10.366 7.57h132.919c4.738 0 8.907-3.04 10.366-7.57l5.868-18.23c1-3.1 3.879-5.2 7.137-5.2h23.701c13.085 0 23.721 10.66 23.721 23.76z" fill="#d9f0f4"/><path d="m402.245 52.26v407.48c0 13.1-10.636 23.76-23.721 23.76h-19.992c13.085 0 23.721-10.66 23.721-23.76v-407.48c0-13.1-10.636-23.76-23.721-23.76h19.992c13.085 0 23.721 10.66 23.721 23.76z" fill="#bae1e5"/><path d="m305.591 21.985h-81.2c-4.141 0-7.497 3.358-7.497 7.5s3.357 7.5 7.497 7.5h81.2c4.141 0 7.497-3.358 7.497-7.5s-3.356-7.5-7.497-7.5z" fill="#415e6f"/><path d="m305.591 434.722h-81.2c-4.141 0-7.497 3.358-7.497 7.5s3.357 7.5 7.497 7.5h81.2c4.141 0 7.497-3.358 7.497-7.5s-3.356-7.5-7.497-7.5z" fill="#56788b"/><path d="m214.9 120.7v75.62c0 12.64-10.276 22.93-22.901 22.93h-97.223l-39.525 30.08c-1.33 1.02-2.929 1.53-4.538 1.53-1.14 0-2.279-.25-3.329-.78-2.549-1.26-4.168-3.87-4.168-6.72v-122.66c0-12.64 10.276-22.93 22.901-22.93h125.882c12.624 0 22.901 10.29 22.901 22.93z" fill="#09eaa3"/><path d="m214.9 120.7v75.62c0 12.64-10.276 22.93-22.901 22.93h-19.992c12.625 0 22.901-10.29 22.901-22.93v-75.62c0-12.64-10.276-22.93-22.901-22.93h19.992c12.624 0 22.901 10.29 22.901 22.93z" fill="#14bb87"/><g fill="#fff"><path d="m168.983 133.444h-79.851c-4.141 0-7.497 3.358-7.497 7.5s3.357 7.5 7.497 7.5h79.851c4.141 0 7.497-3.358 7.497-7.5s-3.357-7.5-7.497-7.5z"/><path d="m159.002 167.444h-69.87c-4.141 0-7.497 3.358-7.497 7.5s3.357 7.5 7.497 7.5h69.87c4.141 0 7.497-3.358 7.497-7.5s-3.357-7.5-7.497-7.5z"/></g></g></g></g></g></g><path d="m468.785 377.7c0 4.66-2.09 8.9-5.45 11.96-3.36 3.08-7.99 4.98-13.09 4.98h-117.08c-6.3 0-11.93-3.58-15.02-9.07-3.17-5.67-9.24-9.5-16.19-9.5h-7.88l-90.01-.03c-3.23 0-5.84-2.62-5.84-5.84v-77.41c0-3.23 2.61-5.85 5.84-5.85l90.01-.02h7.88c10.25-.01 18.56-8.32 18.56-18.57v-75.42c0-9.36 7.59-16.95 16.95-16.95 4.69 0 8.93 1.9 11.99 4.96 3.07 3.07 4.97 7.31 4.97 11.99v47.59c0 10.25 8.31 18.57 18.56 18.57l57.25.02 19.97.01c10.2 0 18.55 7.63 18.55 16.95 0 9.14-8.03 16.65-17.98 16.93 9.95.27 17.99 7.79 17.99 16.94 0 9.31-8.34 16.93-18.54 16.93 10.2 0 18.55 7.63 18.55 16.95 0 9.31-8.33 16.93-18.52 16.93 10.19.02 18.53 7.64 18.53 16.95z" fill="#fdd9b4"/><path d="m294.075 286.92v89.15l-90.01-.03c-3.23 0-5.84-2.62-5.84-5.84v-77.41c0-3.23 2.61-5.85 5.84-5.85z" fill="#fff"/><g fill="#90abbd"><path d="m351.003 135.6h-32.142c-4.143 0-7.5 3.357-7.5 7.5s3.357 7.5 7.5 7.5h32.142c4.143 0 7.5-3.357 7.5-7.5s-3.357-7.5-7.5-7.5z"/><path d="m358.503 108.1c0-4.143-3.357-7.5-7.5-7.5h-52.11c-4.143 0-7.5 3.357-7.5 7.5s3.357 7.5 7.5 7.5h52.11c4.143 0 7.5-3.358 7.5-7.5z"/></g><path d="m272.764 345.988c0-4.142-3.358-7.5-7.5-7.5s-7.5 3.358-7.5 7.5 3.358 7.5 7.5 7.5 7.5-3.358 7.5-7.5z" fill="#90abbd"/><path d="m468.785 377.7c0 4.66-2.09 8.9-5.45 11.96-3.36 3.08-7.99 4.98-13.09 4.98h-20c5.1 0 9.73-1.9 13.09-4.98 3.36-3.06 5.45-7.3 5.45-11.96 0-9.31-8.34-16.93-18.53-16.95 10.19 0 18.52-7.62 18.52-16.93 0-9.32-8.35-16.95-18.55-16.95 10.2 0 18.54-7.62 18.54-16.93 0-9.15-8.04-16.67-17.99-16.94 9.95-.28 17.98-7.79 17.98-16.93 0-9.32-8.35-16.95-18.55-16.95l.03-.01 19.97.01c10.2 0 18.55 7.63 18.55 16.95 0 9.14-8.03 16.65-17.98 16.93 9.95.27 17.99 7.79 17.99 16.94 0 9.31-8.34 16.93-18.54 16.93 10.2 0 18.55 7.63 18.55 16.95 0 9.31-8.33 16.93-18.52 16.93 10.19.02 18.53 7.64 18.53 16.95z" fill="#f9c19b"/></g></svg>